<svg width="100" height="100" xmlns="http://www.w3.org/2000/svg">
 <g>
  <title>Layer 1</title>
  <g id="svg_4">
   <path fill="none" stroke="#B1FFFF" id="svg_9" d="m9.375,70.15625c-0.15625,0.3125 -0.43655,0.63866 -0.78125,1.40625c-0.42938,0.95617 -1.13347,2.16434 -2.03125,3.75c-1.30873,2.31147 -1.96558,3.46201 -2.34375,4.375c-0.26741,0.64558 -0.58187,1.28481 -1.09375,1.875c-0.43434,0.5008 -0.46875,0.625 -0.15625,0.625c0.46875,0 2.18831,-0.06161 4.53125,0c2.97183,0.07816 5.63081,0.2456 7.8125,0.46875c2.35222,0.24059 3.28125,0.3125 4.0625,0.3125c0.625,0 1.09375,0 1.71875,0c0.78125,0 1.5625,0 2.5,0c0.78125,0 1.5625,0 2.1875,0c0.3125,0 0.625,0 0.78125,0c0.15625,0 0.3125,0.15625 0.46875,0.3125c0.46875,0.46875 0.81566,0.59295 1.25,1.09375c1.02375,1.1804 1.6312,2.25566 2.5,3.28125c0.28566,0.33721 0.60497,0.63899 0.9375,1.09375c0.59054,0.80761 0.91747,1.10774 1.25,1.5625c0.59054,0.80761 1.32458,1.63708 2.1875,2.5c0.86292,0.86292 1.31045,1.39338 1.71875,1.5625c0.14436,0.05979 0.32866,0.14162 0.46875,0.3125c0.35717,0.43568 0.60199,0.65205 0.78125,0.78125c0.28344,0.20429 0.625,0.46875 0.78125,0.625c0.15625,0.15625 0.3125,0.3125 0.625,0.625c0.3125,0.3125 0.46875,0.46875 0.625,0.625c0.15625,0.15625 0.10835,0.38419 0.3125,0.46875c0.14436,0.05979 0.15625,0.15625 0.3125,0.3125c0.15625,0.15625 0.14675,-0.00387 0.46875,-0.78125c0.45538,-1.09938 0.78125,-2.1875 1.25,-3.28125c0.46875,-1.09375 1.07645,-2.34969 1.40625,-3.28125c0.44553,-1.25846 1.07772,-2.27521 1.40625,-3.125c0.2873,-0.74312 0.40895,-1.26189 0.46875,-1.40625c0.08456,-0.20415 0.33955,-0.60199 0.46875,-0.78125c0.20429,-0.28344 0.04942,-0.63947 -0.15625,-1.25c-0.37989,-1.12769 -1.15395,-2.30808 -1.875,-3.59375c-0.34181,-0.60947 -0.6113,-0.94229 -0.78125,-1.40625c-0.28942,-0.79009 -0.75548,-2.2052 -1.40625,-3.125c-0.45123,-0.63776 -0.52148,-1.14219 -0.78125,-1.5625c-0.11617,-0.18797 -0.45588,-0.37295 -0.625,-0.78125c-0.11959,-0.28871 -0.03666,-0.49254 -0.15625,-0.78125c-0.08456,-0.20415 -0.3125,-0.15625 -0.46875,-0.3125c-0.15625,-0.15625 -0.38848,-0.28496 -0.46875,-0.625c-0.0359,-0.15207 0,-0.3125 0,-0.46875c0,-0.15625 0,-0.3125 0.15625,-0.46875c0.15625,-0.15625 0.28624,-0.85591 0.9375,-2.1875c0.49503,-1.01216 1.31764,-2.00038 1.71875,-2.96875c0.56726,-1.36948 1.25,-2.8125 2.03125,-4.375c0.625,-1.25 1.42085,-2.48919 2.34375,-3.75c0.79391,-1.08459 1.6312,-2.25566 2.5,-3.28125c0.99981,-1.18024 2.29671,-2.08131 3.125,-2.8125c1.33557,-1.17902 2.4308,-2.25991 4.0625,-3.75c2.7034,-2.46879 4.53125,-3.75 5.9375,-5.46875c1.40625,-1.71875 2.53504,-2.94322 3.4375,-4.21875c0.97616,-1.3797 1.66252,-2.689 2.5,-4.0625c0.58658,-0.96201 1.13501,-1.94535 2.03125,-3.28125c0.5574,-0.83083 1.63708,-1.94958 2.5,-2.8125c0.86292,-0.86292 1.71875,-1.71875 2.34375,-2.65625c0.625,-0.9375 1.2614,-1.86795 2.03125,-3.125c0.47583,-0.77696 0.6123,-1.61642 0.9375,-2.34375c0.31889,-0.71321 0.625,-0.78125 0.78125,-1.25c0.15625,-0.46875 0.2803,-0.95116 0.625,-1.71875c0.28625,-0.63745 0.40148,-1.27078 0.625,-1.875c0.12122,-0.32768 0.21239,-1.10182 0.3125,-1.71875c0.07915,-0.48773 0.15625,-0.9375 0.15625,-1.5625c0,-0.625 0,-1.40625 0,-1.875c0,-0.15625 -0.17879,-0.61471 -0.3125,-0.9375c-0.18909,-0.45649 -0.5762,-0.90525 -2.03125,-1.40625c-1.82742,-0.62921 -4.37192,-0.7031 -7.34375,-0.78125c-1.24957,-0.03286 -1.88879,0.11756 -2.8125,0.46875c-2.22457,0.84578 -3.90921,1.86951 -5.9375,2.96875c-1.72128,0.93285 -2.87362,1.81619 -4.375,3.4375c-0.97878,1.05697 -1.93882,2.12678 -3.125,3.4375c-1.49012,1.64657 -2.77452,3.77588 -4.0625,5.625c-1.21468,1.74389 -2.23906,3.03731 -3.90625,5.46875c-0.88361,1.28866 -1.96745,2.27948 -2.8125,3.59375c-1.05884,1.64677 -1.64748,3.78736 -2.65625,5.625c-0.87685,1.59733 -1.84323,2.82706 -2.5,4.21875c-0.44734,0.9479 -1.48799,3.07538 -2.03125,4.0625c-0.74198,1.34819 -1.36426,2.74798 -2.03125,4.0625c-0.76147,1.50073 -1.12149,2.33039 -1.5625,3.28125c-0.50068,1.07951 -0.90557,1.88924 -1.40625,2.96875c-0.29401,0.63391 -0.78125,1.875 -1.09375,2.8125c-0.3125,0.9375 -0.72191,1.51077 -0.9375,2.03125c-0.30489,0.73608 -0.5568,1.51602 -0.9375,2.34375c-0.20646,0.4489 -0.27966,0.79351 -0.46875,1.25c-0.1337,0.32279 -0.25166,0.80614 -0.46875,1.25c-0.24752,0.50608 -0.40149,0.95828 -0.625,1.5625c-0.12122,0.32768 -0.2048,0.48129 -0.3125,0.9375c-0.08027,0.34004 -0.09646,0.48064 -0.15625,0.625c-0.08456,0.20415 -0.58,0.30963 -1.40625,0.46875c-0.76715,0.14774 -1.875,0 -2.8125,0c-1.40625,0 -2.5,0 -3.59375,0c-1.09375,0 -2.1875,0.15625 -3.4375,0.15625c-0.9375,0 -1.71875,0.15625 -2.8125,0.15625c-1.40625,0 -2.03125,0.15625 -2.5,0.15625c-0.15625,0 -0.46875,0.15625 -0.625,0.15625l-0.15625,0.15625l-0.15625,0"/>
   <path fill="none" stroke="#B1FFFF" id="svg_13" d="m30.78125,72.5c0,0.15625 0.02313,0.19193 -0.15625,0.625c-0.16912,0.4083 -0.3125,0.625 -0.46875,0.9375c-0.15625,0.3125 -0.34916,0.64879 -0.46875,0.9375c-0.08456,0.20415 -0.4913,0.61471 -0.625,0.9375c-0.18909,0.4565 -0.19291,0.80504 -0.3125,1.09375c-0.08456,0.20415 -0.46875,0.625 -0.625,0.9375c-0.15625,0.3125 -0.33505,0.61471 -0.46875,0.9375c-0.18909,0.4565 -0.43591,0.94975 -0.625,1.40625c-0.1337,0.32279 -0.3125,0.625 -0.46875,0.78125c-0.15625,0.15625 -0.1833,0.44574 -0.3125,0.625c-0.40858,0.56687 -0.54044,0.8896 -0.625,1.09375c-0.11959,0.28871 -0.15625,0.78125 -0.3125,1.09375c-0.15625,0.3125 0.04213,0.57713 -0.625,1.5625c-0.24776,0.36596 -0.46875,0.78125 -0.625,1.09375c-0.3125,0.625 -0.46875,0.9375 -0.625,1.25c-0.15625,0.3125 -0.32866,0.76662 -0.46875,0.9375c-0.35717,0.43568 -0.33955,0.60199 -0.46875,0.78125c-0.20429,0.28344 -0.2766,0.47293 -0.3125,0.625c-0.08027,0.34004 -0.15625,0.625 -0.3125,0.78125l-0.15625,0.15625l0,0.15625" stroke-width="5"/>
   <path fill="none" stroke="#B1FFFF" id="svg_16" d="m35.625,46.09375c-0.3125,-0.15625 -0.81857,-0.42798 -2.1875,-1.71875c-1.76849,-1.66752 -5.12921,-5.50524 -8.28125,-7.8125c-3.25378,-2.38174 -6.02421,-4.34605 -9.375,-6.09375c-2.9126,-1.51914 -5.46255,-2.35939 -7.8125,-3.28125c-2.026,-0.79477 -3.4375,-1.40625 -3.4375,-1.25c0,0.15625 0.52939,-0.03395 0.9375,-0.3125c1.00795,-0.68796 1.49049,-2.74917 3.28125,-4.0625c1.35703,-0.99524 3.05874,-1.38349 4.53125,-2.03125c1.35684,-0.59687 2.1875,-0.9375 2.5,-1.25c0.15625,-0.15625 0.15625,-0.46875 0.15625,-0.625c0,-0.3125 0.22794,-0.42085 0.3125,-0.625c0.05979,-0.14436 0.20201,-0.20201 0.3125,-0.3125c0.11049,-0.11049 0.26446,-0.34156 0.46875,-0.625c0.1292,-0.17926 0.4646,-0.14318 0.9375,0c1.70508,0.51626 4.03761,1.09897 8.59375,1.71875c3.11193,0.42332 6.72196,0.60204 10.15625,1.09375c3.12806,0.44786 6.08667,0.86273 9.21875,1.09375c3.27607,0.24164 6.5625,0.625 10.15625,0.9375l1.25,0l0.15625,0l0.15625,0"/>
   <path fill="none" stroke="#B1FFFF" id="svg_17" d="m73.59375,27.1875c0,0.15625 0.17474,0.45984 0.46875,1.09375c0.50068,1.07951 1.20843,2.52391 2.03125,3.90625c1.04202,1.75059 1.8705,3.22249 3.4375,5.625c0.8536,1.30873 1.77004,2.56029 2.34375,3.4375c0.66796,1.02132 1.40625,2.03125 2.03125,3.28125c0.46875,0.9375 0.97095,2.08616 1.71875,3.59375c0.40485,0.81619 0.75497,1.33159 1.25,2.34375c0.21709,0.44386 0.70827,1.59675 1.25,2.65625c0.82955,1.62239 0.83398,1.76719 1.09375,2.1875c0.11617,0.18797 0.22794,0.42085 0.3125,0.625c0.05979,0.14436 -0.06544,0.2217 -0.3125,0.46875c-0.24706,0.24705 -0.69539,0.38289 -1.09375,0.78125c-0.39836,0.39836 -0.60199,0.4958 -0.78125,0.625c-0.28344,0.20429 -0.6714,0.56466 -1.09375,0.9375c-0.26192,0.23122 -0.65272,0.41023 -1.25,0.9375c-0.37042,0.327 -0.46875,0.78125 -0.78125,1.09375c-0.3125,0.3125 -0.36523,0.82969 -0.625,1.25c-0.23235,0.37594 -0.54585,0.60603 -0.625,1.09375c-0.02503,0.15423 -0.07169,0.2646 -0.15625,0.46875c-0.05979,0.14436 -0.07169,0.2646 -0.15625,0.46875c-0.05979,0.14436 -0.04576,0.20201 -0.15625,0.3125c-0.11049,0.11049 0,0.3125 0,0.46875c0,0.15625 0.03172,0.27242 -0.15625,0.15625c-0.42031,-0.25977 -0.61935,-0.17435 -1.09375,-0.3125c-0.61855,-0.18012 -1.27396,-0.40025 -3.59375,-1.25c-2.37028,-0.86825 -4.78746,-1.97328 -6.09375,-2.65625c-1.05453,-0.55134 -1.76719,-0.67773 -2.1875,-0.9375c-0.5639,-0.34851 -0.92009,-0.65533 -1.71875,-1.09375c-1.2251,-0.67251 -3.23625,-1.40338 -4.0625,-1.5625c-0.30686,-0.0591 -1.0969,-0.14897 -2.1875,-0.625c-1.41039,-0.61561 -2.74314,-1.26909 -4.53125,-1.875c-1.97436,-0.66903 -3.42781,-0.85911 -4.375,-0.9375c-0.93431,-0.07732 -1.86059,-0.23378 -2.5,-0.3125c-0.31016,-0.03818 -0.46875,0 -0.78125,0l-0.3125,0l-0.46875,0l-0.15625,0"/>
   <path fill="none" stroke="#B1FFFF" id="svg_18" d="m78.90625,29.0625c-0.15625,0.15625 -0.28747,0.31452 -0.3125,0.46875c-0.07915,0.48773 -0.65533,1.07634 -1.09375,1.875c-0.33626,0.61255 -0.71398,1.42703 -0.9375,2.03125c-0.12122,0.32768 -0.15625,0.625 -0.3125,0.78125l0,0.15625l0.15625,0"/>
   <path fill="none" stroke="#B1FFFF" id="svg_19" d="m88.125,38.4375c0,0.15625 0.00871,0.37379 -0.46875,1.40625c-0.23647,0.51134 -1.08945,1.19492 -1.25,1.875c-0.1077,0.45621 0.0718,0.94586 0,1.25c-0.08027,0.34004 -0.26446,0.49781 -0.46875,0.78125c-0.1292,0.17926 -0.23223,0.28496 -0.3125,0.625c-0.0359,0.15207 -0.07598,0.44121 -0.15625,0.78125c-0.0359,0.15207 -0.07169,0.2646 -0.15625,0.46875c-0.05979,0.14436 -0.3125,0.625 -0.3125,0.9375l-0.15625,0.15625l0,0.3125"/>
   <path fill="none" stroke="#B1FFFF" id="svg_20" d="m56.5625,54.53125c-0.46875,0.625 -1.41795,1.58974 -2.34375,2.96875c-1.36321,2.03054 -1.64672,3.76797 -2.03125,5.15625c-0.26379,0.95235 -0.46875,1.5625 -0.625,1.71875l0.46875,-0.15625"/>
   <path fill="none" stroke="#B1FFFF" id="svg_21" d="m76.875,63.90625c-0.3125,0 -0.63689,0.09646 -0.78125,0.15625c-0.20415,0.08456 -0.2407,0.32086 -0.3125,0.625c-0.08027,0.34004 -0.60155,0.96561 -2.65625,2.65625c-1.54516,1.27138 -2.65625,2.1875 -3.125,2.8125l-0.15625,0.15625"/>
   <path fill="none" stroke="#B1FFFF" id="svg_22" d="m25.625,36.71875c-0.15625,0.15625 -0.49087,0.44939 -0.625,0.625c-0.76465,1.00111 -1.25,2.03125 -2.03125,3.28125c-0.78125,1.25 -1.5625,2.5 -2.03125,3.4375l-0.15625,0.46875l-0.15625,0.15625l-0.15625,0"/>
   <path fill="none" stroke="#B1FFFF" id="svg_23" d="m15.9375,30.46875c-0.15625,0 -0.44574,0.4958 -0.625,0.625c-0.28344,0.20429 -0.90203,0.5138 -2.1875,2.03125c-0.8688,1.02559 -1.78973,2.41443 -2.96875,3.75c-0.87743,0.99394 -1.5625,1.5625 -1.875,1.875l-0.15625,0l0.15625,-0.15625"/>
   <path fill="none" stroke="#B1FFFF" id="svg_24" d="m30.78125,11.09375c-0.15625,0.3125 -0.53276,0.70627 -1.09375,1.25c-0.71842,0.69632 -1.25,1.40625 -2.03125,2.1875c-0.625,0.625 -1.20533,1.28307 -1.5625,1.71875c-0.14009,0.17089 -0.3125,0.15625 -0.3125,0.3125c0,0.15625 -0.15625,0.625 -0.3125,1.09375l0,0.15625l-0.15625,0"/>
   <path fill="none" stroke="#B1FFFF" id="svg_25" d="m43.4375,14.6875c-0.625,0.78125 -0.89598,1.29345 -1.875,2.1875c-0.90113,0.82293 -2.17918,1.32793 -3.28125,1.40625c-0.15586,0.01108 -0.3125,0 -0.46875,0.15625c-0.15625,0.15625 -0.3125,0.3125 -0.46875,0.46875l0,0.15625l-0.15625,0l-0.15625,0.3125"/>
  </g>
 </g>

</svg>