<svg width="200" height="100" xmlns="http://www.w3.org/2000/svg">
 <g id="Layer_1">
  <title>Layer 1</title>
  <path stroke-width="5" d="m131.04614,30.30869c-0.17152,-0.51458 -0.18925,-0.67004 -0.34305,-0.85763c-0.39209,-0.47828 -0.78436,-1.58869 -1.54374,-2.74442c-0.9419,-1.43351 -2.37244,-2.95378 -3.259,-3.60205c-0.49922,-0.36504 -0.85764,-0.68611 -1.54374,-1.02916c-0.68611,-0.34305 -1.35139,-0.77075 -1.8868,-0.85763c-0.33862,-0.05495 -0.82739,-0.25493 -1.20068,-0.34305c-0.50082,-0.11823 -1.20068,-0.17153 -2.22984,-0.17153c-1.02916,0 -2.41099,-0.0645 -3.77358,0.17153c-1.5582,0.2699 -3.78044,0.97586 -5.31732,1.20069c-1.89752,0.27758 -2.42418,0.44074 -3.08748,0.68611c-0.71944,0.26614 -1.67428,0.75744 -2.22984,1.02916c-0.48726,0.23831 -1.24639,0.7885 -2.57289,1.71527c-1.60319,1.12007 -3.25463,2.06183 -3.94511,2.91595c-0.24113,0.29827 -0.51458,0.68611 -0.51458,0.85763c0,0.17153 0,0.34305 0.17153,0.34305c0.17152,0 0.34305,0 0.6861,0c0.34306,0 0.6861,0 1.20068,0c0.17152,0 0.34306,-0.17153 0.6861,-0.34305c0.34306,-0.17153 0.82074,-0.55357 1.54374,-1.20068c0.81838,-0.73249 1.20068,-1.20069 1.37222,-1.37221l0,-0.17153" id="svg_19" stroke="#7f4e1f" fill="none"/>
  <polyline fill="none" stroke="#42250b" stroke-width="13" opacity="NaN" points="197.84507715702057,47.57456588745117 197.44746363162994,50.1590576171875 197.04985010623932,55.92446517944336 197.04985010623932,60.497032165527344 196.6522365808487,66.26243591308594 195.85700953006744,71.43142700195312 194.6641536951065,75.80518341064453 193.67011988162994,79.58251953125 192.47727930545807,82.1670150756836 190.88682520389557,85.14912414550781 190.48921167850494,86.34196472167969 190.09159815311432,86.93838500976562 190.09159815311432,86.540771484375 190.29040491580963,84.75150299072266 190.68801844120026,82.96224212646484 191.4832454919815,78.38967895507812 193.47131311893463,73.41949462890625 195.45938074588776,68.4493179321289 197.24865686893463,65.666015625 198.83911097049713,64.47317504882812 198.64030420780182,65.06959533691406 198.64030420780182,66.6600570678711 198.4414974451065,69.04573822021484 197.24865686893463,74.81114959716797 195.65818750858307,81.76940155029297 194.4653469324112,88.1312255859375 193.47131311893463,92.90260314941406 193.073699593544,97.07755279541016 193.073699593544,97.6739730834961 193.073699593544,96.87874603271484 193.27250635623932,95.0894775390625 193.47131311893463,89.1252670288086 193.67011988162994,81.17298126220703 193.67011988162994,70.83500671386719 193.67011988162994,59.3041877746582 193.67011988162994,47.773372650146484 193.47131311893463,43.598419189453125 193.47131311893463,42.40557861328125 193.47131311893463,42.20677185058594 193.47131311893463,42.40557861328125 193.27250635623932,46.580528259277344 192.27847254276276,54.532814025878906 190.88682520389557,63.4791374206543 189.6939846277237,71.0338134765625 189.29637110233307,74.01592254638672 189.29637110233307,74.41353607177734 189.29637110233307,73.22068786621094 189.892791390419,68.4493179321289 190.68801844120026,59.3041877746582 191.88085901737213,47.375755310058594 192.47727930545807,36.64017105102539 193.073699593544,26.699810028076172 193.67011988162994,19.54275131225586 193.86892664432526,14.970186233520508 193.86892664432526,14.373764991760254 193.86892664432526,15.168993949890137 193.86892664432526,17.157066345214844 193.86892664432526,26.50100326538086 193.27250635623932,38.827049255371094 192.67608606815338,47.773372650146484 192.27847254276276,52.94235610961914 192.07966578006744,55.12923812866211 192.07966578006744,55.32804489135742 192.07966578006744,55.12923812866211 192.47727930545807,51.35190200805664 194.26654016971588,38.62824249267578 195.85700953006744,28.48907470703125 197.64627039432526,18.548715591430664 198.4414974451065,12.186885833740234 198.64030420780182,9.00597095489502 198.64030420780182,8.210742950439453 197.84507715702057,8.807164192199707 196.6522365808487,10.994043350219727 188.69995081424713,22.922473907470703 182.934539437294,28.687881469726562 177.16912806034088,31.471181869506836 173.98821985721588,32.26641082763672 172.59655725955963,32.26641082763672 172.59655725955963,32.067604064941406 172.59655725955963,30.47714614868164 172.59655725955963,25.90458106994629 172.39775049686432,20.13917350769043 172.39775049686432,14.970186233520508 172.39775049686432,11.59046459197998 172.39775049686432,10.795235633850098 172.39775049686432,11.192850112915039 172.39775049686432,16.36183738708496 172.39775049686432,25.705774307250977 172.0001369714737,34.0556755065918 171.80133020877838,39.42346954345703 171.80133020877838,41.80915451049805 171.80133020877838,42.40557861328125 171.80133020877838,42.00796127319336 172.198943734169,40.21869659423828 172.79536402225494,32.664024353027344 172.99417078495026,26.1033878326416 172.99417078495026,20.13917350769043 172.99417078495026,16.9582576751709 172.99417078495026,16.759450912475586 172.79536402225494,16.9582576751709 171.40371668338776,20.934402465820312 168.8192287683487,27.296232223510742 165.83711206912994,32.46521759033203 164.44546473026276,33.45925521850586 164.44546473026276,33.26044845581055 164.44546473026276,32.067604064941406 164.44546473026276,28.48907470703125 163.84904444217682,22.12724494934082 162.25859034061432,14.572572708129883 161.06574976444244,9.60239315032959 160.4693294763565,7.614320755004883 160.2705227136612,7.8131279945373535 159.67410242557526,9.403585433959961 158.68005335330963,14.373764991760254 157.28840601444244,21.928438186645508 155.69795191287994,28.886688232421875 154.70391809940338,32.664024353027344 154.70391809940338,34.45328903198242 154.70391809940338,34.652095794677734 154.70391809940338,34.45328903198242 154.9027248620987,34.25448226928711 155.101531624794,34.0556755065918 156.29437220096588,33.26044845581055 158.282439827919,33.061641693115234 161.66217005252838,33.65806198120117 164.44546473026276,36.04374694824219 165.63830530643463,38.827049255371094 166.23472559452057,42.40557861328125 166.23472559452057,46.580528259277344 166.23472559452057,50.35786437988281 166.23472559452057,52.3459358215332 166.23472559452057,53.737586975097656 166.03591883182526,54.73162078857422 166.03591883182526,55.32804489135742 165.43949854373932,56.322078704833984 165.0418850183487,57.1173095703125 164.04785120487213,58.11134338378906 163.4514309167862,58.11134338378906 163.25262415409088,58.11134338378906 163.25262415409088,57.91253662109375 163.05381739139557,57.514923095703125 162.45739710330963,56.322078704833984 161.66217005252838,54.9304313659668 160.66813623905182,52.94235610961914 159.67410242557526,51.15309143066406 159.07766687870026,49.96025085449219 159.07766687870026,49.56263732910156 158.87886011600494,50.1590576171875 157.68601953983307,52.3459358215332 156.89079248905182,55.12923812866211 156.6919857263565,57.1173095703125 156.6919857263565,57.91253662109375 156.6919857263565,58.310150146484375 156.6919857263565,58.11134338378906 157.68601953983307,56.322078704833984 158.68005335330963,54.334007263183594 162.25859034061432,49.56263732910156 166.83116114139557,45.586490631103516 174.58464014530182,42.00796127319336 178.75958216190338,42.00796127319336 181.14526331424713,43.2008056640625 182.53692591190338,45.586490631103516 183.13334619998932,50.1590576171875 183.13334619998932,55.72565841674805 182.7357326745987,61.09345245361328 181.54289209842682,65.46720886230469 180.5488430261612,69.8409652709961 180.15122950077057,71.0338134765625 180.15122950077057,71.23262023925781 181.3440853357315,70.23858642578125 182.53692591190338,69.24454498291016 186.115447640419,66.46124267578125 189.29637110233307,64.87078857421875 191.4832454919815,64.47317504882812 191.68205225467682,64.47317504882812 191.68205225467682,64.87078857421875 188.89875757694244,69.04573822021484 184.3261867761612,73.41949462890625 179.55480921268463,76.9980239868164 174.3858333826065,80.37774658203125 170.4096828699112,82.3658218383789 168.02400171756744,83.7574691772461 167.02996790409088,83.7574691772461 167.02996790409088,82.56462860107422 167.02996790409088,80.97416687011719 168.02400171756744,76.00399017333984 168.62042200565338,73.22068786621094 168.8192287683487,73.02188110351562 168.22280848026276,73.22068786621094 167.4275814294815,74.61234283447266 164.84307825565338,78.38967895507812 160.86694300174713,83.7574691772461 157.28840601444244,88.1312255859375 153.90869104862213,93.69783020019531 152.11943018436432,98.07158660888672 151.72180140018463,101.45130920410156 151.52299463748932,102.64414978027344 151.72180140018463,102.0477294921875 152.11943018436432,99.86085510253906 153.3122707605362,95.48709106445312 154.9027248620987,88.52884674072266 156.6919857263565,80.57655334472656 158.0836330652237,73.61830139160156 158.87886011600494,70.43739318847656 159.27647364139557,69.8409652709961 159.27647364139557,70.0397720336914 160.07171595096588,72.624267578125 161.66217005252838,77.19683074951172 163.25262415409088,81.76940155029297 165.63830530643463,86.14315795898438 168.02400171756744,89.52288055419922 170.01206934452057,90.7157211303711 170.6084896326065,90.7157211303711 171.20490992069244,90.51691436767578 171.40371668338776,89.92049407958984 171.40371668338776,88.72765350341797 171.40371668338776,87.33599853515625 170.80729639530182,85.74554443359375 169.21684229373932,83.16104888916016 166.23472559452057,79.58251953125 163.05381739139557,76.40160369873047 160.07171595096588,73.61830139160156 157.88482630252838,72.02784729003906 156.09556543827057,70.43739318847656 154.30630457401276,68.4493179321289 153.11346399784088,66.26243591308594 152.11943018436432,64.27436828613281 151.92060816287994,63.4791374206543 151.92060816287994,63.08152389526367 151.92060816287994,62.68391036987305 151.92060816287994,61.68987274169922 152.11943018436432,60.497032165527344 152.51704370975494,60.29822540283203 152.71585047245026,60.29822540283203 153.90869104862213,61.292259216308594 155.89675867557526,63.08152389526367 158.282439827919,64.27436828613281 161.06574976444244,64.47317504882812 163.84904444217682,63.67794418334961 167.4275814294815,62.68391036987305 172.0001369714737,61.292259216308594 176.57270777225494,60.29822540283203 181.94050562381744,58.90657424926758 187.90470850467682,57.514923095703125 189.09756433963776,57.31611633300781 189.09756433963776,57.91253662109375 188.69995081424713,61.491065979003906 187.7059017419815,67.05767059326172 186.115447640419,74.81114959716797 183.72976648807526,82.76343536376953 181.94050562381744,90.11930084228516 180.94645655155182,95.0894775390625 180.5488430261612,97.27635955810547 180.5488430261612,97.07755279541016 180.7476497888565,95.48709106445312 181.54289209842682,92.50498962402344 183.72976648807526,85.34793090820312 186.71186792850494,76.9980239868164 190.29040491580963,69.04573822021484 192.8748928308487,65.06959533691406 193.47131311893463,64.47317504882812 193.073699593544,64.87078857421875 189.892791390419,70.0397720336914 184.92260706424713,79.18490600585938 179.55480921268463,87.33599853515625 174.78344690799713,92.50498962402344 170.4096828699112,94.49305725097656 168.22280848026276,95.0894775390625 167.4275814294815,95.28828430175781 167.4275814294815,94.49305725097656 167.62638819217682,92.90260314941406 168.42161524295807,84.75150299072266 169.018035531044,79.78132629394531 169.61445581912994,78.58848571777344 169.61445581912994,80.17893981933594 169.61445581912994,82.96224212646484 168.8192287683487,88.72765350341797 167.82519495487213,94.09544372558594 165.83711206912994,98.66800689697266 163.6502376794815,102.24653625488281 162.059783577919,105.82506561279297 161.8609768152237,106.62030029296875 161.8609768152237,106.81910705566406 162.059783577919,106.62030029296875 162.45739710330963,105.42745208740234 163.4514309167862,102.0477294921875 165.240691781044,98.27039337158203 167.2287746667862,95.28828430175781 168.42161524295807,94.09544372558594 167.82519495487213,94.89067077636719 165.83711206912994,98.46920013427734 163.25262415409088,102.44534301757812 161.06574976444244,105.42745208740234 160.4693294763565,106.02387237548828 160.66813623905182,106.02387237548828 161.26455652713776,105.42745208740234 163.6502376794815,102.24653625488281 170.21087610721588,95.28828430175781 178.56077539920807,88.33003234863281 191.68205225467682,83.16104888916016 197.24865686893463,83.16104888916016 197.84507715702057,83.9562759399414 197.24865686893463,86.540771484375 195.45938074588776,91.70975494384766 192.8748928308487,97.47516632080078 191.2844387292862,100.65608215332031 190.88682520389557,101.45130920410156 190.88682520389557,101.25250244140625 191.08563196659088,100.85488891601562 192.27847254276276,96.67993927001953 193.67011988162994,92.50498962402344 194.86296045780182,89.72168731689453 194.86296045780182,89.52288055419922 194.4653469324112,90.31810760498047 192.27847254276276,95.0894775390625 188.89875757694244,102.0477294921875 184.5249935388565,108.60836791992188 182.53692591190338,109.80120849609375 181.74169886112213,110.00001525878906 181.54289209842682,110.00001525878906 181.3440853357315,109.20478820800781 180.5488430261612,106.4214859008789 179.55480921268463,102.64414978027344 178.75958216190338,97.8727798461914 177.96435511112213,95.48709106445312 177.76554834842682,97.07755279541016 177.3679348230362,98.86681365966797 177.3679348230362,103.63819122314453 177.3679348230362,108.01194763183594 177.3679348230362,110.39763641357422 177.5667415857315,110.99405670166016 177.76554834842682,110.99405670166016 177.96435511112213,109.40359497070312 178.36196863651276,107.41552734375 178.75958216190338,105.42745208740234 179.95242273807526,101.84892272949219 182.934539437294,98.07158660888672 185.51902735233307,97.27635955810547 186.71186792850494,97.07755279541016 187.30828821659088,97.07755279541016 187.30828821659088,97.47516632080078 187.5070949792862,100.65608215332031 188.30232203006744,103.2405776977539 188.89875757694244,104.43341827392578 188.89875757694244,104.6322250366211 189.09756433963776,104.43341827392578 189.892791390419,102.24653625488281 191.88085901737213,98.46920013427734 194.86296045780182,93.89663696289062 197.84507715702057,90.11930084228516 200.031951546669,89.1252670288086 201.4235988855362,89.92049407958984 202.21882593631744,93.4990234375 202.41763269901276,98.66800689697266 " id="svg_58" stroke-linecap="round"/>
  <path fill="none" stroke="#7f3f00" id="svg_62" d="m201.91056,51.43983c-0.79523,0.19881 -2.38922,1.58714 -5.3678,4.77137c-2.78661,2.97901 -5.86432,5.96582 -8.15109,9.74155c-2.53325,4.18268 -4.07288,8.30975 -5.76541,12.52486c-1.26587,3.15256 -1.17809,6.66052 -2.18687,6.56063c-0.19785,-0.01959 -0.0159,-0.59963 0.79523,-4.57256c0.97495,-4.77531 2.6619,-10.39159 5.16899,-15.90457c2.46625,-5.42314 5.50096,-10.36419 6.56064,-12.92247c0.7493,-1.80898 1.39165,-2.98211 0.99403,-2.98211c-0.39761,0 0.07796,2.38707 0,4.57256c-0.19893,5.57724 -1.50259,13.73145 -2.38568,19.08549c-0.72345,4.3862 -1.19286,7.95229 -1.19286,9.74155c0,0.79523 0.06946,0.62869 0.59642,-0.59643c1.83891,-4.27525 4.0752,-10.58072 7.35587,-17.89264c3.8595,-8.60201 7.30875,-15.43901 9.74156,-21.07356c1.69754,-3.93161 2.38568,-7.15706 2.38568,-8.74751c0,-0.39761 0,-0.19881 0,0c0,1.78926 -0.12198,4.40497 0.59642,6.95825c0.51083,1.81555 0.85957,2.28228 1.19284,1.98808c1.61214,-1.42316 2.3857,-4.37376 3.18092,-6.36183c0.39761,-0.99404 0.45856,-1.10163 0.19881,-0.99404c-0.18367,0.07608 -0.14233,2.11053 -7.55467,4.97018c-5.09317,1.96493 -11.7325,1.16605 -16.89862,0.99404c-2.98706,-0.09946 -3.25699,-0.41275 -3.18091,-0.59642c0.21518,-0.51951 3.26552,-3.3888 7.55467,-4.37376c4.49432,-1.03208 10.3569,-1.22875 15.30815,-0.79523c3.41887,0.29935 6.04631,1.52073 7.55467,3.37972c1.0099,1.24466 2.06989,3.26123 2.78331,4.17495c0.34605,0.44321 0.62019,0.41883 0.79523,0.19881c1.16762,-1.46776 2.16624,-3.78657 3.77733,-7.35587c2.15932,-4.78391 2.83926,-6.97879 2.5845,-8.54871c-0.10071,-0.62056 -1.66679,-1.06889 -4.97018,0c-4.91794,1.59132 -9.63155,4.76687 -14.51292,5.36779c-3.55173,0.43724 -3.97615,-0.19881 -3.97615,-1.39165c0,-4.37376 -0.14445,-9.98032 1.78928,-14.71173c1.75426,-4.29229 6.46156,-5.35546 6.36182,-6.56064c-0.03279,-0.39626 -3.2063,1.14844 -6.36182,2.98211c-4.00919,2.32973 -8.6982,4.57121 -13.51889,4.97018c-3.17009,0.26237 -4.30511,-0.20593 -4.17496,-1.39165c0.2,-1.82197 1.71376,-5.72423 3.97615,-9.34394c1.95999,-3.13589 2.38568,-3.57853 2.18687,-3.37972c-0.59642,0.59642 -1.03671,1.93439 -4.37376,5.36779c-3.23479,3.32819 -6.85352,5.59729 -10.13916,6.95825c-2.3233,0.96235 -2.92116,1.49924 -3.18091,1.39165c-0.18367,-0.07608 0.01802,-0.59683 0,-0.99404c-0.0995,-2.19364 -0.21394,-2.46177 -0.39761,-2.38569c-0.51952,0.21519 -1.32158,0.78977 -2.18689,0.99404c-0.19348,0.04568 -0.22575,-1.00013 0.59642,-4.57257c0.96254,-4.18232 2.10696,-8.47517 3.37973,-10.93439c0.32947,-0.6366 0.25041,-0.46047 -0.19881,0.79523c-1.51083,4.22318 -2.45517,9.71884 -4.37376,15.70577c-1.65044,5.15015 -1.37932,10.0401 -2.58449,9.94036c-0.19814,-0.0164 0,-0.39762 0,-1.19284c0,-0.99404 0,-1.39165 0,-1.78926c0,-0.19881 -0.11732,-0.46086 -0.59642,-0.99404c-1.03781,-1.15495 -2.59503,-2.17297 -4.17496,-3.37972c-1.80139,-1.3759 -3.47783,-3.12976 -5.16899,-4.17495c-0.37816,-0.23371 -0.59642,-0.39761 -0.59642,-0.19881c0,0.19881 -0.26256,0.62919 0.99403,1.78926c0.85178,0.78635 2.98138,1.20107 5.16899,1.39165c2.38493,0.20778 5.62126,0.08612 8.74751,0.79523c1.22623,0.27814 2.33594,1.48391 3.57854,3.37972c1.36555,2.0834 2.78329,7.15706 3.77733,11.1332c0.99405,3.97614 1.71622,8.61952 2.98212,12.92247c1.31351,4.46475 3.13916,8.48823 4.37375,11.92843c0.91338,2.54514 1.37653,4.69529 1.19286,4.77137c-0.25975,0.10759 -0.76068,-1.21442 -1.39166,-2.18688c-1.32091,-2.03576 -2.74292,-4.00608 -4.37375,-6.16302c-2.13478,-2.82347 -4.16071,-4.58875 -5.96422,-6.16302c-1.38084,-1.20533 -2.28711,-1.59753 -3.18091,-2.18688c-0.23473,-0.15477 -1.28426,1.36031 -1.78928,2.98211c-1.46223,4.69582 -2.08498,9.32664 -2.78329,13.51889c-0.46198,2.77335 -0.51515,4.97599 -0.39761,6.16302c0.09988,1.00879 0.39761,1.39165 0.39761,1.59045c0,0.19881 0.29787,0.7829 0.39761,1.98808c0.21317,2.57569 -0.1985,4.95367 -0.39761,8.54871c-0.23088,4.16856 0,7.75348 0,10.33797c0,2.38569 0.09915,3.76675 0.19881,5.16898c0.12685,1.78477 0,3.18092 0,4.37376l0,0.19881l0,0.19881" stroke-width="12"/>
  <path fill="none" stroke="#000" id="svg_2" d="m119.33353,22.14293c-0.47619,0.2381 -2.30029,0.97528 -5,1.66667c-3.03375,0.77694 -5.25931,1.09458 -7.61906,1.66667c-1.68456,0.4084 -3.92089,1.82365 -4.76191,3.09524c-1.93929,2.93214 -3.04991,6.20979 -4.28572,9.04763c-1.14864,2.63767 -2.17069,4.75421 -2.61905,6.42858c-0.50786,1.89657 -0.47619,4.76191 -0.47619,6.42858c0,1.66667 0.47619,3.33334 0.95238,4.28572c0.47619,0.95238 1.09659,2.46257 2.14285,3.57143c2.19833,2.32985 5.4994,3.33849 9.04763,3.80953c4.81398,0.63907 11.71515,1.32869 15.00002,0.71429c3.18324,-0.59539 5.25623,-1.88905 6.90477,-3.80953c2.02202,-2.35556 2.61845,-5.45082 2.85715,-8.80953c0.20255,-2.84996 -0.09872,-7.87358 -0.4762,-10.4762c-0.34851,-2.40297 -1.04037,-4.81793 -1.90477,-6.90477c-1.01869,-2.45935 -2.24342,-4.41258 -3.57143,-5.71429c-1.08875,-1.06719 -3.54192,-2.46266 -4.76191,-2.85715c-0.93407,-0.30203 -2.38095,-0.47619 -3.33334,-0.71428l-0.47619,0l-0.2381,-0.2381l-0.23809,0"/>
  <path fill="none" stroke="#000" id="svg_4" d="m103.85733,38.57151c0,0.71429 0,0.95238 0,2.14286l0,0.95238l0,0.47619l0,0.23809"/>
  <path fill="none" stroke="#000" id="svg_5" d="m117.66687,37.14294c0,0.23809 0,0.47619 0,0.71429c0,0.95238 0,2.14286 0,2.85714c0,0.71429 0,1.19048 0,1.42857l0,0.47619"/>
  <path fill="none" stroke="#000" id="svg_6" d="m102.66685,46.66676c0,0.23809 -0.2381,0.71428 -0.2381,1.42857c0,0.71429 -0.35387,1.38661 -0.47619,1.90477c-0.0547,0.23172 -0.2381,1.42857 -0.2381,1.90476c0,0.23809 0.4762,0.95238 0.95238,1.42857c0.2381,0.23809 1.00542,1.12476 1.90476,1.90476c0.76312,0.66185 1.44131,1.08107 1.90476,1.19048c0.51816,0.12232 1.19048,0.23809 2.14286,0.23809c0.95238,0 1.90476,-0.23809 3.33334,-0.47619c1.42857,-0.23809 1.97862,-0.64738 2.61905,-1.42857c0.54426,-0.66389 0.95238,-1.42857 1.19048,-2.14286c0.23809,-0.71429 0.23809,-1.66667 0.23809,-2.61905l0,-0.95238l0,-0.2381l0,-0.23809"/>
  <path fill="none" stroke="#000" id="svg_7" d="m50.52395,44.5239c0,0.23809 0.11441,0.48541 0,1.19048c-0.12061,0.7432 -0.49892,1.89937 -0.71429,2.85715c-0.26635,1.18447 -0.23809,1.90476 -0.23809,1.42857c0,-0.95238 -0.03167,-2.62725 0.47619,-4.52382c0.44836,-1.67437 0.79464,-2.69286 1.19048,-3.33334c0.17702,-0.28643 0.47619,-0.23809 0.95238,-0.23809c2.85715,0 6.90652,0.46153 10.95239,0.95238c3.81123,0.46238 6.67392,0.90623 8.33334,1.19048c1.19662,0.20498 1.07604,0.86055 0.71429,1.42857c-1.49702,2.35062 -2.27703,4.69108 -2.85715,5.95238c-0.62923,1.36808 -0.30783,2.2126 -0.47619,2.38095c-0.16836,0.16836 -0.46321,-0.02656 -1.90476,-0.71428c-2.59657,-1.23875 -5.94951,-2.63164 -9.04763,-3.33334c-2.14091,-0.4849 -3.57143,-0.71428 -3.80953,-0.71428c-0.23809,0 -0.47619,0 -0.95238,0c-0.23809,0 -0.95238,0 -1.66667,0l-0.23809,0"/>
  <path fill="none" stroke="#000" id="svg_10" d="m60.28586,51.19057c0.95238,0.47619 2.14286,1.19048 3.09524,1.66667c0.95238,0.47619 1.79742,0.94171 2.61905,1.19048c0.68364,0.20699 1.42857,0.47619 1.66667,0.47619c0.23809,0 0.49432,-0.09112 0.71429,0c0.62217,0.25771 0.95238,0.71429 1.42857,0.71429c0.2381,0 0.30784,0.06974 0.4762,0.2381c0.16836,0.16835 0.1651,0.34733 0.47619,0.47619c0.21997,0.09111 0.47619,0.23809 0.47619,0.47619c0,0.23809 0.2381,0.23809 0.4762,0.47619l0,0.2381"/>
  <path fill="none" stroke="#000" id="svg_11" d="m68.14301,42.61914c0.2381,-0.2381 0.2381,-0.47619 0.47619,-0.47619c0.2381,0 0.4762,-0.23809 0.71429,-0.23809c0.2381,0 0.47619,0 0.95238,0c0.23809,0 0.49432,-0.09112 0.71429,0c0.31108,0.12886 0.5174,0.20303 0.71429,0.47619c0.31129,0.4319 0.29395,0.98863 0.47619,1.42857c0.12886,0.31109 0.35387,0.67233 0.47619,1.19048c0.0547,0.23173 0,0.47619 0,0.95238c0,0.23809 0,-0.2381 0,-0.47619c0,-0.47619 0.47182,-0.88381 0.71429,-2.14286c0.09005,-0.4676 0.71429,-0.95238 0.4762,-0.95238c-0.2381,0 0,0.71429 0,1.42857c0,0.95238 0,1.66667 0,2.38095c0,0.95238 -0.11578,1.6247 -0.2381,2.14286c-0.0547,0.23172 0,0.47619 0,1.19048c0,0.23809 0,0.47619 0,0.71429c0,0.23809 0,0.47619 0,0.71429c0,0.23809 0.14698,0.49431 0.2381,0.71429c0.12885,0.31108 0.47619,0.47619 0.47619,0.71429c0,0.23809 0.23809,0.47619 0.47619,0.71429c0.2381,0.23809 0.2381,0.47619 0.47619,0.71428c0.2381,0.2381 0.2381,0.47619 0.2381,0.71429c0,0.2381 0.09112,0.49432 0,0.71429c-0.12886,0.31109 -0.47619,0.47619 -0.47619,0.71429c0,0.23809 -0.4762,0.71429 -0.71429,0.95238c-0.2381,0.2381 -0.4032,0.58543 -0.71429,0.71429c-0.21997,0.09111 -0.4032,0.34734 -0.71429,0.47619c-0.21997,0.09111 -0.4032,0.10924 -0.71429,0.23809c-0.21997,0.09111 -0.47619,0 -0.71429,0l-0.2381,0"/>
  <path fill="none" stroke="#000" id="svg_12" d="m80.52398,52.85724c-0.2381,0 -0.72044,0.16182 -1.19048,0.2381c-0.7432,0.12061 -1.43472,0.16182 -1.90476,0.23809c-0.7432,0.12061 -0.87939,0.34733 -1.19048,0.47619c-0.65992,0.27334 -1.23476,0.16489 -1.66667,0.47619c-0.54632,0.39376 -1.23169,0.91732 -1.42857,1.19048c-0.31129,0.4319 -0.4762,0.71428 -0.71429,1.19048c-0.2381,0.47619 -0.2381,0.71429 -0.2381,1.19048c0,0.23809 0,0.71428 0,1.66667c0,0.95238 0.2381,0.95238 0.47619,0.95238c0.2381,0 0.49432,0.14698 0.71429,0.23809c0.31109,0.12886 1.0505,0.4687 1.90476,0.95238c0.29301,0.1659 0.30784,0.30783 0.4762,0.47619c0.16836,0.16835 0.14697,0.25622 0.23809,0.47619c0.12886,0.31109 0.38509,0.49432 0.4762,0.71429c0.12885,0.31108 0.62317,0.9705 0.71429,1.19048c0.12885,0.31109 0.47619,0.47619 0.47619,0.71429c0,0.2381 0,0.47619 0,-0.2381l0,-0.47619"/>
  <path fill="none" stroke="#000" id="svg_13" d="m86.71446,62.14296c-0.4762,-0.23809 -0.71429,-0.23809 -1.19048,-0.71429c-0.47619,-0.47619 -2.63776,-2.36623 -3.57143,-3.57143c-0.72907,-0.94111 -0.90235,-1.68534 -1.19048,-2.38095c-0.20374,-0.49187 -0.23061,-0.8124 -0.71429,-1.66667c-0.1659,-0.29301 -0.30783,-0.30783 -0.47619,-0.47619c-0.16836,-0.16836 0,-0.47619 0,-0.71429c0,-0.23809 0,-0.47619 0.2381,-0.71429l0,-0.23809"/>
  <path fill="none" stroke="#000" id="svg_14" d="m84.3335,75.7144c0,0.4762 -0.07855,0.71753 0,1.66667c0.11945,1.44334 0.2381,3.33334 0.2381,4.04762c0,0.71429 0,1.19048 0,1.90476c0,0.95238 -0.11749,1.63776 -0.2381,2.38096c-0.03814,0.23502 0,0.47619 0,0.95238c0,0.2381 0,0.4762 0,0.71429c0,0.2381 0,0.47619 0,0.71429c0,0.2381 -0.11815,0.45423 -0.2381,1.42857c-0.05818,0.47262 -0.0566,0.73072 -0.23809,0c-0.34911,-1.40557 -0.2381,-2.85715 -0.2381,-4.04762c0,-0.95238 -0.20984,-2.14886 -0.47619,-3.33334c-0.21537,-0.95778 -0.38356,-2.38988 -0.2381,-3.57143c0.11995,-0.97433 0.58543,-1.83177 0.71429,-2.14286c0.09111,-0.21997 0.08035,-0.7881 0.47619,-1.42857c0.17702,-0.28643 0.82352,-1.11749 0.95238,-1.42857c0.09112,-0.21997 0.96513,-0.36679 1.42857,-0.4762c1.03631,-0.24464 3.09524,-0.47619 5.71429,-0.47619c3.09525,0 6.19048,0 9.76192,0c4.52381,0 7.85715,0 10.4762,0c2.61905,0 4.01874,-0.50507 4.52381,0c0.16836,0.16836 0.10924,0.4032 0.2381,0.71429c0.09112,0.21997 0.65034,1.20879 0.95238,2.14286c0.39449,1.21999 1.30132,2.5805 1.66667,3.80952c0.34594,1.16372 0.47619,1.90476 0.71429,2.61905c0.23809,0.71429 0.35624,1.16852 0.47619,2.14286c0.02909,0.23631 0,0.71429 0,0.95238c0,0.23809 0,0.47619 0,0.71429c0,0.23809 -0.02331,0.0418 -0.47619,-0.2381c-1.01268,-0.62588 -2.30464,0.25206 -4.28572,0.71429c-2.33025,0.54369 -3.80952,0.47619 -5.71429,0.71429c-1.90476,0.2381 -2.86864,0.07298 -4.04762,0.2381c-1.71661,0.24042 -3.08984,0.737 -4.04762,0.95238c-1.18447,0.26635 -2.89059,0.84792 -4.52381,1.42857c-1.70852,0.60743 -2.64443,1.32866 -4.52381,2.14286c-1.11401,0.48262 -2.14286,0.71429 -3.57143,1.19048c-0.71429,0.2381 -1.44725,0.42616 -2.14286,0.71429c-0.49187,0.20374 -0.71429,0.47619 -1.42857,0.47619c-0.23809,0 -0.23809,-0.23809 -0.23809,-1.42857c0,-1.66666 -0.4762,-2.85714 -0.4762,-4.04762c0,-0.47619 0,-0.95238 0,-1.19048c0,-0.23809 0,-0.95238 0,-1.66666l0,-0.71429l0,-0.2381"/>
  <path fill="none" stroke="#000" id="svg_15" d="m114.57162,78.80965c-0.23809,0 -0.47926,-0.03814 -0.71429,0c-0.74319,0.12061 -1.42857,0.23809 -2.14285,0.23809c-0.2381,0 -0.4762,0.2381 -0.95238,0.4762c-0.47619,0.23809 -0.82352,0.6413 -0.95238,0.95238c-0.09112,0.21997 -0.16836,0.54593 0,0.71429c0.16836,0.16836 0.4762,0 0.71429,0c0.2381,0 0.4762,0 0.95238,0c0.71429,0 1.19048,0 1.66667,0c0.47619,0 0.71428,0 1.19048,0c0.23809,0 0.91042,-0.11578 1.42857,-0.23809c0.23172,-0.0547 0.30783,-0.06974 0.47619,-0.2381c0.16836,-0.16836 0.47619,0 0.71429,0c0.2381,0 0.49432,-0.09112 0.71429,0c0.31108,0.12886 0.54593,0.30783 0.71429,0.47619c0.16836,0.16836 0.14697,0.25623 0.23809,0.4762c0.12886,0.31108 0.58543,0.1651 0.71429,0.47619c0.09112,0.21998 0.06974,0.30783 0.2381,0.47619c0.16836,0.16836 0.2381,0.2381 0.47619,0.2381c0.2381,0 0.78027,0.05428 1.66667,0.47619c1.07492,0.51163 1.68238,0.92325 2.14286,1.19048c0.7425,0.43089 1.42857,0.71429 1.42857,0.95238l0.23809,0"/>
  <path fill="none" stroke="#000" id="svg_16" d="m109.33353,68.80964c-0.2381,0.23809 -0.40719,0.4864 -0.47619,0.71429c-0.24877,0.82162 -0.51438,1.18173 -0.71429,2.14285c-0.29491,1.41793 -0.40646,2.2126 -0.2381,2.38096c0.16836,0.16836 0.73241,-0.14698 0.95238,-0.2381c0.31108,-0.12885 0.76469,-0.64622 1.42857,-1.19048c0.5208,-0.42695 0.71428,-0.71429 0.95238,-0.95238c0.2381,-0.2381 0.50082,-0.69199 0.71429,-0.95238c0.54426,-0.66389 0.71429,-0.95238 0.95238,-1.19048c0.2381,-0.2381 0.52048,-0.5494 0.95238,-0.2381c0.27316,0.19688 1.00481,0.66545 1.66667,1.42857c0.78,0.89935 1.3605,1.47898 1.90476,2.14286c0.21348,0.2604 0.47619,0.71429 0.95238,1.19048c0.47619,0.47619 0.71429,0.47619 0.71429,0.71429c0,0.23809 0.1651,0.58543 0.47619,0.71429c0.21997,0.09112 0.2381,0.23809 0.2381,0.47619c0,0.2381 0.16181,0.95853 0.23809,1.42857c0.12061,0.7432 0.64455,1.26022 0.4762,1.42857c-0.16836,0.16836 -0.4762,0 -0.71429,0c-0.2381,0 -0.4762,0 -0.71429,0c-0.4762,0 -0.71429,0 -1.19048,0c-0.23809,0 -0.47619,0 -0.71428,0c-0.2381,0 -0.43423,0.11578 -0.95238,0.23809c-0.46345,0.10941 -1.66667,0.4762 -2.38096,0.95238l-0.47619,0.2381l-0.23809,0l-0.2381,-0.2381"/>
  <path fill="none" stroke="#000" id="svg_17" d="m110.04781,67.38107c-0.2381,0.23809 -0.27245,0.46051 -0.47619,0.95238c-0.28813,0.69561 -0.58543,1.11749 -0.71429,1.42857c-0.09112,0.21997 -0.22788,0.88338 0,0.95238c0.82163,0.24877 0.51054,-0.93671 0.71429,-1.42857c0.28813,-0.69561 0.7555,-1.63161 0.95238,-1.90476c0.3113,-0.43191 0.40321,-1.06162 0.71429,-1.19048c0.21997,-0.09112 0.21496,-0.29147 0.71429,-0.47619c0.92072,-0.3406 1.66667,-0.23809 2.14286,-0.23809c0.47619,0 0.71429,0 1.19048,0c1.19048,0 1.66667,0.23809 2.14286,0.23809c0.2381,0 0.4032,0.10924 0.71429,0.2381c0.21997,0.09112 1.11728,1.23476 1.42857,1.66666c0.39377,0.54632 0.56788,1.51715 1.19048,2.38096c0.59064,0.81948 0.93277,1.28259 1.19048,1.90476c0.18223,0.43994 0.74863,1.4129 0.95238,1.90476c0.28813,0.69561 0.51054,1.1748 0.71429,1.66667c0.28813,0.69561 0.40298,0.99667 0.71429,1.42857c0.19688,0.27316 0.34734,0.4032 0.47619,0.71429c0.09111,0.21997 0,0.47619 0.2381,0.47619c0.2381,0 0.54593,-0.16836 0.71429,0c0.16836,0.16836 0.06974,0.30783 0.2381,0.47619c0.16836,0.16836 0.49431,0.14699 0.71428,0.2381c0.31109,0.12885 0.51741,0.44112 0.71429,0.71429c0.31129,0.43191 0.75858,0.87917 1.19048,1.19048c0.54631,0.39376 0.75549,0.67922 0.95238,0.95238c0.31129,0.4319 0.4762,0.95238 0.95238,1.42857c0.2381,0.2381 0.36679,0.48894 0.4762,0.95238c0.12231,0.51816 1.05141,1.13359 1.42857,1.90476c0.3308,0.67636 0.74187,1.18187 0.95238,1.90476c0.27448,0.94254 0.83179,1.63776 0.95239,2.38096c0.07628,0.47004 0,0.95238 0,1.42857c0,0.23809 0,0.47619 -0.2381,0.47619l-0.2381,0l-0.2381,-0.2381"/>
  <path fill="none" stroke="#000" id="svg_18" d="m112.90496,87.14299c0.2381,0 1.19048,0.23809 2.61905,0.47619c1.42857,0.23809 3.7043,0.73277 5.00001,1.66666c1.09264,0.78753 1.66666,1.66667 2.14285,2.14286c0.71429,0.71429 1.23972,1.14587 1.66667,1.66667c0.54425,0.66389 0.95238,1.19048 1.19048,1.66666c0.2381,0.4762 0.4762,0.4762 0.71429,0.4762c0.2381,0 0.47619,0 0.71429,0c0.2381,0 0.47619,0 0.71429,0c0.2381,0 1.19048,0 2.61906,0c1.42857,0 2.42308,0.15591 3.57143,-0.2381c1.00716,-0.34557 2.17453,-0.84988 3.09525,-1.19048c0.49931,-0.18472 0.71428,-0.4762 1.19048,-1.42857l0.2381,-0.4762l0,-0.47619l0.23808,-0.47619"/>
  <path fill="none" stroke="#000" id="svg_20" d="m155.52405,5.23815c-0.2381,0 -2.16196,0.4435 -3.80952,1.42857c-1.92789,1.15267 -5.65282,3.17026 -7.38097,4.52381c-1.61246,1.26294 -2.95576,2.28233 -2.61905,2.61905c0.16837,0.16836 0.46272,-0.27327 1.66667,-0.71429c0.70697,-0.25897 0.80812,-0.47156 0.71428,0.47619c-0.11963,1.20814 -0.77412,3.89799 -1.90475,5.95239c-0.82782,1.50418 -1.29056,1.86741 -0.71429,0.47619c0.61122,-1.47562 1.85846,-5.19278 5.4762,-9.04763c3.58826,-3.82345 7.08337,-5.84224 7.85715,-5.2381c0.37534,0.29305 -0.16603,1.92666 -1.42856,5.95239c-1.57716,5.02896 -3.17703,8.89238 -5.00002,12.14287c-1.09874,1.95911 -1.09145,2.43784 -0.71428,1.66667c0.66159,-1.35272 2.13,-4.53107 4.28572,-8.33334c2.84024,-5.00962 3.30243,-6.78399 3.09523,-6.66667c-1.20811,0.68403 -1.09209,2.06362 -4.28572,7.85715c-3.23882,5.87549 -5.91109,12.06879 -7.61905,16.90478c-1.07846,3.0536 -0.73392,2.84365 -0.2381,2.14286c0.68759,-0.97184 4.00145,-5.83846 7.85715,-8.57144c3.13216,-2.22012 4.11176,-2.12267 3.33334,0.23809c-1.98108,6.00817 -4.78651,11.65332 -7.61905,16.90478c-1.92151,3.56245 -2.83902,5.38508 -2.61905,5.47619c1.24434,0.51542 1.90475,-2.61905 3.33333,-4.76191c2.85715,-4.28572 6.38023,-7.55799 6.66667,-7.38096c1.28094,0.79166 -2.56255,6.69611 -6.42857,14.04763c-3.52019,6.69387 -5.15388,11.91355 -6.42857,14.04763c-0.17267,0.28908 -0.10165,0.05306 2.38095,-1.19048c5.06015,-2.53464 11.67976,-4.70567 16.90477,-5.95238c0.9549,-0.22784 1.1563,0.3481 -0.71428,3.57143c-2.58533,4.45497 -5.71515,8.13412 -9.28572,10.95239c-0.67386,0.53188 -0.46889,0.49707 0.2381,0.23809c1.20395,-0.44102 3.1347,-1.01881 3.57143,-0.71429c1.76855,1.23319 -1.77827,6.319 -2.14285,8.09525c-0.14362,0.69969 0,0.95238 0.23808,0.95238c2.14287,0 7.42696,-0.82622 14.76193,-3.57143c7.90906,-2.96008 13.7784,-6.59476 15,-5.71429c0.19315,0.13921 -0.35672,0.69952 -0.47618,2.14286c-0.09819,1.18642 0,1.90476 0,2.14286c0,0.23809 -0.29762,1.07972 -1.19048,2.14285c-3.03941,3.61907 -7.30048,5.41702 -11.90479,7.38096c-4.92152,2.09924 -10.6454,4.26833 -16.42857,5.95239c-4.71272,1.37235 -7.38696,1.40031 -8.57144,1.66666c-0.95778,0.21537 -1.87758,0.55339 -3.80952,1.19048c-1.64616,0.54285 -3.69376,0.67233 -3.57144,1.19048c0.0547,0.23173 1.09946,-0.55181 1.90477,-1.42857c1.51945,-1.65427 2.38583,-4.27965 3.57143,-5.2381c0.41403,-0.33471 -0.07634,0.93648 -1.42857,7.61905c-1.00949,4.98879 -1.3093,9.27461 -1.42857,11.19049c-0.02959,0.47527 0.22491,-0.00453 0.4762,-0.71429c1.35782,-3.83532 3.57143,-8.33334 5.71429,-13.33334l2.38095,-5.23811"/>
  <path fill="none" stroke="#000" id="svg_21" d="m77.19064,65.00011c0.23809,0.2381 0.71429,0.71429 1.19048,0.95238c0.47619,0.23809 1.19048,0.71429 2.14286,1.66666c1.19048,1.19048 2.51199,3.2479 3.09524,4.28572c0.62817,1.11776 0.71429,2.38095 1.19048,3.33334l0.2381,0l0,0.2381l0,-0.71429"/>
  <path fill="none" stroke="#000" id="svg_22" d="m86.23827,60.71439c0,0.23809 0.10924,0.4032 0.2381,0.71429c0.09112,0.21997 0.09799,0.57239 0.95238,1.66667c0.82888,1.06161 2.36913,1.91911 3.80953,3.09524c1.18089,0.96424 2.38095,1.90477 3.33334,2.85715c0.2381,0.2381 0.55862,0.16797 0.95238,0.71429c0.31129,0.4319 0.48256,0.65958 0.71428,0.71429c0.51816,0.12232 0.40321,0.58543 0.71429,0.71429c0.21997,0.09112 0.47619,0 0.71429,0.2381c0.2381,0.2381 0.16511,0.58543 0.4762,0.71429c0.21997,0.09111 0.47619,0.23809 0.71429,0.23809c0.23809,0 0.47619,0 0.71429,0l0.23809,0l0.2381,0"/>
  <path fill="none" stroke="#000" id="svg_23" d="m118.38116,70.95249c-0.2381,0 -0.40321,0.10924 -0.71429,0.2381c-0.43994,0.18224 -0.25437,-0.25558 0,-0.47619c1.79871,-1.55999 4.98918,-2.88567 8.09525,-4.04762c2.61018,-0.97644 5.58997,-2.10285 7.61905,-3.09524c1.54234,-0.75434 2.78082,-2.04074 3.33334,-3.09524c0.69888,-1.33385 0.89587,-3.10724 1.42857,-5.4762c0.21538,-0.95778 0.2381,-1.66667 0.2381,-2.38095c0,-0.47619 0.07298,-1.29972 -0.2381,-1.42857c-0.21997,-0.09111 -0.4762,0 -0.71429,0c-0.71428,0 -0.95238,0 -1.42857,0c-1.90475,0 -3.57143,0.23809 -5.2381,0.47619l-1.66667,0l-0.47618,0"/>
  <path fill="none" stroke="#000" id="svg_25" d="m129.09544,82.85727c-0.47618,-1.66667 -0.83275,-2.83948 -0.95238,-4.04762c-0.11731,-1.18468 -0.11815,-3.09944 0,-4.76191c0.11935,-1.67936 0.75427,-3.07628 1.19048,-4.04762c0.52525,-1.16966 0.69801,-1.68415 0.95239,-1.90476c0.89935,-0.77999 1.36166,-1.26434 2.14285,-1.90477c0.66388,-0.54426 1.46649,-0.85968 2.14285,-1.19048c0.77118,-0.37717 1.39966,-0.83177 2.14287,-0.95238c0.70506,-0.11441 0.91731,0.04121 1.19048,0.23809c0.43192,0.3113 1.79652,1.32969 2.85715,2.85715c1.09485,1.57674 2.48656,3.66205 2.85715,5.00001c0.19067,0.68837 0.02,1.41909 0.2381,1.90476c0.52525,1.16965 0.59367,2.11395 0.71428,2.85715c0.03813,0.23502 0,0.71429 0,0.95238c0,0.71429 0.11815,1.40662 0.2381,2.38096c0.08728,0.70894 0.12869,1.44131 0.2381,1.90476c0.12231,0.51816 0.27327,0.9389 0.71428,2.14286c0.25897,0.70699 0.21722,1.67397 0.4762,2.38095c0.44101,1.20395 0.64076,1.92186 0.95238,3.09525c0.19325,0.7277 0.2381,1.90476 0.4762,2.38095l0,0.2381l0,0.23809"/>
  <path fill="none" stroke="#000" id="svg_26" d="m137.90498,55.0001c0.2381,0 0.49432,0.14698 0.71428,0.23809c0.3111,0.12886 0.71608,0.4471 0.95239,0.47619c0.97433,0.11995 2.16367,0.66522 3.33333,1.19048c0.48569,0.2181 0.83008,0.43423 0.95239,0.95238c0.0547,0.23172 -0.34894,0.91383 -0.71429,2.14286c-0.34595,1.16372 -0.4762,1.90477 -0.4762,2.61905l0,0.47619l0,0.23809"/>
  <path fill="none" stroke="#000" id="svg_27" d="m106.00019,61.90487c0,0.23809 0.05003,0.49486 -0.2381,1.19048c-0.20374,0.49187 -0.39168,1.21697 -0.95238,2.85715c-0.41476,1.21325 -0.61566,2.52042 -0.95238,2.85715c-0.16836,0.16836 -0.40298,0.52048 -0.71429,0.95238c-0.39377,0.54632 -0.82352,0.6413 -0.95238,0.95238c-0.09111,0.21997 0,0.47619 0,0.71429c0,0.23809 0,0.71429 0,0.95238l0,0.2381"/>
  <path fill="none" stroke="#000" id="svg_28" d="m99.80971,31.42865c-0.23809,-0.47619 -1.18815,-2.09292 -1.42857,-3.80953c-0.09908,-0.70738 -0.05003,-1.44725 0.2381,-2.14286c0.20374,-0.49187 0.25622,-0.8054 0.47619,-0.71429c0.31109,0.12886 1.3245,1.10246 2.38096,2.85715c0.82384,1.36832 0.95238,2.14286 0.95238,2.38095c0,0.23809 -0.45319,-0.48022 -0.71429,-1.90476c-0.43774,-2.38832 -0.62164,-4.05654 -0.47619,-5.2381c0.11995,-0.97434 0.40813,-1.71706 0.95238,-2.38095c0.21347,-0.2604 0.50133,-0.34458 0.71429,-0.2381c1.0648,0.5324 1.19048,2.14286 1.19048,3.09524c0,0.2381 0,0.47619 0,0.2381c0,-0.47619 -0.0836,-0.999 0.47619,-1.90476c0.62587,-1.01268 2.36329,-1.78513 3.57143,-1.90476c1.89549,-0.18769 1.90476,0.2381 1.90476,0.47619c0,0.2381 0.03556,0.60137 0.2381,0.47619c0.90577,-0.5598 1.55592,-2.20896 3.80952,-2.85715c1.618,-0.46537 2.65121,-0.5957 2.85715,-0.47619c1.66027,0.96349 1.53053,3.43414 2.61905,4.76191c0.21348,0.2604 0.5361,-0.40262 1.42857,-1.19048c1.43907,-1.27039 3.28942,-1.90297 5.2381,-2.14286c1.18156,-0.14546 1.45345,0.22213 1.90476,0.95238c1.00919,1.6329 2.00449,2.68015 2.38095,3.80953c0.07529,0.22588 0.1691,0.24831 0.2381,0.47619c0.24878,0.82163 1.42419,2.07429 1.66667,3.33334c0.1801,0.9352 -0.11772,2.31899 -0.95238,4.04762c-0.55751,1.15464 -0.71429,1.42857 -0.71429,1.66667c0,0.23809 0,0.47619 0,0.71429c0,0.23809 0.11847,0.45852 0.2381,1.66667c0.07039,0.71081 0,1.19048 0,1.90476c0,0.71429 0,1.66667 0,2.14286c0,0.23809 -0.14699,0.21997 -0.2381,0c-0.25771,-0.62217 -0.888,-0.76878 -1.90475,-1.90477c-1.12283,-1.25449 -2.07715,-2.67208 -2.85715,-3.57143c-0.22062,-0.25438 -0.54593,-1.02212 -0.71429,-1.19048c-0.16836,-0.16836 -0.71429,0 -1.42857,-0.71429c-0.2381,-0.2381 -0.58286,-0.82034 -2.14286,-2.61905c-0.44123,-0.50875 -0.62317,-0.73241 -0.71429,-0.95238c-0.12886,-0.31109 -0.47619,-0.71429 -0.47619,-0.95238l0,-0.47619l0,-0.23809"/>
  <path fill="none" stroke="#000" id="svg_30" d="m128.38116,40.00008c0.2381,0 0.69955,-0.97109 1.90477,-1.90476c0.9411,-0.72907 2.00095,-1.52657 3.09523,-2.38095c0.53081,-0.41444 0.95239,-0.47619 1.19048,-0.47619c0.2381,0 0.57523,-0.05689 0.95239,0.71429c0.3308,0.67636 0.2381,1.19048 0.2381,2.38095c0,0.47619 -0.08035,1.50239 -0.4762,2.14286c-0.35405,0.57286 -0.71429,0.95238 -1.19048,1.42857c-0.71429,0.71429 -0.95239,0.95238 -1.42857,1.42857c-0.4762,0.4762 -0.95238,0.95238 -1.19048,1.19048c-0.2381,0.23809 -0.35388,0.67232 -0.4762,1.19048c-0.10941,0.46346 -0.4762,1.42857 -1.19048,3.09524l0,0.47619"/>
  <path fill="none" stroke="#000" id="svg_32" d="m108.14305,37.85723c-0.2381,0 -0.4032,-0.34734 -0.71429,-0.47619c-0.21997,-0.09111 -0.67232,-0.35387 -1.19048,-0.47619c-0.46346,-0.10941 -0.91732,-0.27931 -1.19048,-0.47619c-0.4319,-0.31129 -0.71428,-0.23809 -1.42857,-0.23809c-0.71429,0 -1.19048,0 -2.38096,0c-1.42857,0 -2.35899,0.11815 -3.33334,0.23809c-0.94525,0.11636 -1.42857,0.23809 -1.66667,0.23809l0.2381,0"/>
  <path fill="none" stroke="#000" id="svg_33" d="m115.28591,36.42865c0.4762,-0.47619 1.10127,-1.05087 2.14286,-1.90477c1.32777,-1.08852 2.7498,-1.89409 3.57143,-2.14286c1.36728,-0.41398 2.21259,-0.16835 2.38095,0c0.16836,0.16836 0.2381,0.47619 0.2381,0.71429l0.2381,0l0,0.47619"/>
  <path fill="none" stroke="#000000" id="svg_36" d="m109.09543,38.57151c0,0.2381 -0.23809,0.47619 -0.47619,0.95238c-0.2381,0.47619 -0.47619,0.95238 -0.71429,1.19048c-0.2381,0.23809 -0.35387,0.43423 -0.47619,0.95238c-0.0547,0.23173 -0.2381,0.4762 -0.71429,0.95238c-0.2381,0.23809 -0.59197,0.67232 -0.71429,1.19048c-0.0547,0.23172 -0.2381,0.71429 -0.2381,0.95238c0,0.23809 -0.10924,0.4032 -0.2381,0.71429c-0.09112,0.21997 0,0.47619 0,0.71429c0,0.23809 -0.09112,0.49432 0,0.71429c0.12886,0.31109 0.49432,0.14698 0.71429,0.23809c0.31109,0.12886 0.4762,0.2381 0.71429,0.47619c0.2381,0.2381 0.40321,0.34733 0.71429,0.47619c0.21997,0.09112 0.4762,0 0.71429,0c0.2381,0 0.47619,0 0.71429,0l0.2381,0l0.23809,0l0.2381,0"/>
  <path fill="none" stroke="#3f7f00" id="svg_39" d="m-1.14277,19.76197c0.2381,0 0.47619,0 1.42857,0c1.42857,0 4.76191,0.2381 7.14286,0.47619c2.38095,0.2381 4.76191,0.47619 6.42858,0.47619c1.42857,0 3.09524,0 4.04762,0c1.19048,0 2.38095,0.2381 3.33334,0.2381c0.95238,0 1.42857,0 1.66667,0c0.2381,0 0.73241,-0.09111 0.95238,0c0.31109,0.12886 0.95238,0.47619 1.19048,0.47619c0.47619,0 1.39966,0.11749 2.14286,0.2381c0.70506,0.11442 1.16734,0.05338 1.66667,0.23809c0.92072,0.34059 1.90476,0.2381 2.14286,0.2381c0.2381,0 0.4032,0.10924 0.71429,0.2381c0.21997,0.09112 0.4032,0.34733 0.71428,0.47619c0.21997,0.09112 0.37952,0.12214 0.95238,0.47619c0.64047,0.39583 2.03551,0.70361 2.85714,0.95238c0.68364,0.20699 1.66667,0.47619 2.14286,0.47619c0.23809,0 0.49431,0.14698 0.71429,0.2381c0.31108,0.12886 0.37952,0.36024 0.95238,0.71429c0.64048,0.39583 1.19048,0.71429 1.90476,1.42857c0.71429,0.71429 1.26382,1.40706 2.14286,1.90476c0.85427,0.48368 1.89135,0.52103 2.61905,0.71429c1.17339,0.31161 1.88864,0.55395 2.85715,0.71429c2.82855,0.46826 4.98889,0.35691 6.90477,0.47619c1.18818,0.07397 2.61905,0 3.09524,0c0.47619,0 1.20322,-0.10941 1.66667,0c1.03631,0.24464 2.12939,0.98756 3.33334,1.42857c1.41397,0.51795 3.08412,1.4457 3.80953,1.90476c1.17315,0.7424 2.36198,0.99237 3.33334,1.42857c1.16965,0.52525 2.21214,0.99371 3.80952,1.66667c1.76901,0.74527 3.30185,1.76917 5.4762,2.38095c3.05785,0.86037 4.76191,1.42857 5.4762,1.66667c0.71429,0.23809 1.82083,0.70774 2.85715,0.95238c0.69518,0.16411 1.42857,0.47619 2.61905,1.19048c1.19048,0.71429 1.90476,1.42857 2.61905,1.90476l0.2381,0.23809"/>
  <path fill="none" stroke="#3f7f00" id="svg_40" d="m130.76212,47.14295c0.71429,0.47619 1.50238,1.03273 2.14287,1.42857c0.57285,0.35405 1.42857,0.95238 2.14285,0.95238c0.95238,0 1.90477,0 2.85715,0c0.4762,0 0.73241,-0.09111 0.95238,0c0.31108,0.12886 0.30783,0.30783 0.4762,0.47619c0.16837,0.16836 0.30783,0.06974 0.4762,0.23809c0.16835,0.16835 0.47618,0.23809 0.71428,0.47619c0.2381,0.23809 0.4762,0.23809 0.71429,0.47619c0.23808,0.23809 0.48254,0.42149 0.71428,0.47619c0.51816,0.12232 0.9705,0.62317 1.19048,0.71429c0.31108,0.12886 0.6413,0.34733 0.95238,0.47619c0.43994,0.18224 0.71429,0.2381 0.95239,0.2381c0.47618,0 0.71428,0 0.95238,0l0.2381,0l0.2381,0l0,0.23809"/>
  <path fill="none" stroke="#000000" id="svg_42" d="m120.76211,93.80966c0,0.23809 0.29917,0.42786 0.4762,0.71429c0.39584,0.64047 1.66666,3.80952 2.61905,5.95238c0.95238,2.14286 1.54672,3.78757 1.66666,4.76191c0.08727,0.70894 0,1.19048 0,1.42857l-0.23809,0.23809l0,0.2381l-0.2381,0.2381"/>
  <path fill="none" stroke="#000000" id="svg_43" d="m158.85739,45.23819c-0.95239,1.66667 -2.28284,3.98124 -3.80954,7.38096c-1.05051,2.33932 -1.19048,3.09524 -0.95238,2.85715l0.71428,-0.71429l1.42857,-2.14286l5.95239,-8.57144"/>
  <path fill="none" stroke="#000000" id="svg_44" d="m170.28596,37.61913c-0.95238,1.90477 -2.56281,4.32038 -4.04762,6.66668c-1.83626,2.90165 -4.03078,6.10079 -5,8.80953c-1.24524,3.48016 -0.99699,4.47457 -0.4762,4.04762c0.66389,-0.54426 3.09811,-1.93182 5.4762,-1.66667c0.74829,0.08343 1.14873,1.44317 1.66667,2.85714c0.88203,2.4079 1.9252,4.51538 3.09525,7.38096c0.96936,2.37409 1.19048,4.04762 1.19048,4.52381c0,0.2381 -0.01299,-1.42673 -0.95239,-8.09524c-1.20715,-8.5691 -2.26189,-19.04556 -2.38095,-29.28574c-0.06366,-5.47582 0.6037,-9.39631 -0.2381,-10.2381c-0.16837,-0.16836 -0.56049,0.21926 -2.85715,1.66667c-4.50412,2.83859 -10.72186,4.42117 -16.19049,4.04762c-2.65579,-0.18141 -3.22034,-1.75154 -2.38095,-4.52381c1.51321,-4.99778 4.83809,-9.57546 9.76192,-15.9524c1.54681,-2.00331 1.66667,-2.14286 1.66667,-1.90476c0,0.47619 -0.13461,0.98833 0.47618,1.42857c0.19316,0.13922 4.51888,-2.13185 13.33334,-3.33334c6.84151,-0.93256 12.38234,0.07169 13.80954,2.38095c1.27654,2.06547 -0.66533,6.24203 -6.42857,11.66668c-7.50334,7.06251 -18.27927,11.3014 -17.85716,16.90478c0.0253,0.33577 0.95448,0.24637 2.85715,-0.23809c6.43576,-1.6387 15.43098,-4.03081 24.76193,-4.28572c5.0038,-0.1367 6.97162,3.74563 0.47618,14.76192c-6.04651,10.25491 -13.43477,14.6553 -15.2381,18.33335c-1.09431,2.23195 -0.3111,3.68067 0,3.80953c0.21997,0.09112 0.46506,-0.25523 1.19048,-0.71429c1.17316,-0.7424 2.12175,-0.89282 0.71428,3.80952c-1.44666,4.83329 -3.53429,9.72692 -4.5238,9.52382c-1.256,-0.2578 -2.24486,-8.28697 -3.57144,-19.28573c-1.60295,-13.29007 -7.34422,-30.76665 2.14287,-49.52386c3.87607,-7.66348 12.52486,-10.07989 15.2381,-8.57144c3.87083,2.15204 5.86549,11.48415 4.76192,21.90478c-1.08258,10.22238 -5.69122,17.90897 -12.38097,19.76192c-2.52402,0.69911 -3.99364,-1.60981 -4.52382,-7.14286c-1.20386,-12.56376 0.56673,-23.62741 5.23811,-27.61907c2.83328,-2.42102 7.94652,-1.12311 10,9.52382c1.98604,10.29724 1.5087,23.14847 -2.14285,26.4286c-1.84924,1.66115 -3.96834,-1.41206 -4.04762,-8.09525c-0.11874,-10.01064 1.19675,-22.09578 7.38095,-25.95241c4.7552,-2.96546 10.35907,-0.17397 10.47621,7.85715c0.11647,7.98512 -4.38257,15.6159 -10.95239,17.85716c-7.71452,2.63177 -19.45349,-0.33148 -30.23813,-5.95239c-9.9594,-5.1908 -19.0573,-10.97802 -21.90479,-20.9524c-0.84969,-2.97633 1.67915,-5.3576 4.52382,-5.00001c6.49971,0.81706 11.26115,4.96502 13.33334,7.61906c0.85439,1.09428 1.07452,1.28715 1.42857,0.71429c1.58334,-2.5619 2.70251,-5.38625 4.7619,-7.38096c1.33574,-1.29379 2.60225,-1.92434 4.28572,-1.90476c2.89636,0.03367 4.62332,2.07434 5.4762,7.14286c0.79411,4.71931 0.4762,8.57144 0.4762,10.4762c0,0.2381 -0.00343,-0.37941 1.19048,-2.14286c3.21469,-4.74822 9.27713,-9.07508 17.85716,-10.7143c9.61412,-1.83678 19.98607,-0.45491 22.38097,6.42858c1.72124,4.94723 -0.92865,10.66202 -4.5238,12.85715c-3.7963,2.31794 -10.47621,1.42857 -15.71431,1.19048l-3.33333,-0.71428l-1.66667,-1.19048l-2.14287,-2.14286"/>
  <polyline fill="none" stroke="#000000" points="224.57173144817352,109.04776895046234 224.3336359858513,109.04776895046234 224.09554052352905,109.04776895046234 " id="svg_45" stroke-linecap="round"/>
  <path fill="none" stroke="#000000" id="svg_46" d="m103.85733,87.85727c0,0.2381 0,0.4762 0,0.71429c0,0.4762 0,0.95238 0,3.09525c0,3.80952 0.32906,7.90275 1.42857,11.19048c1.0518,3.14507 1.66667,6.19048 2.14286,8.33334l0,1.19048l0,0.2381"/>
  <path fill="none" stroke="#3f7f00" id="svg_49" d="m-5.19039,27.38103c1.90476,1.42857 5.1429,3.49698 12.38096,5.00001c4.71461,0.97902 9.04568,1.43904 12.85716,2.14286c2.61773,0.48338 4.97009,1.32309 7.85715,1.90477c3.06997,0.61852 5.59628,0.61761 6.66667,1.19048c0.29688,0.15889 0.49432,0.38508 0.71429,0.47619c0.62217,0.25771 2.55823,1.80132 3.33334,3.33334c1.25811,2.48669 2.14259,4.98304 2.38095,10.00001c0.24859,5.2322 -0.64862,11.68996 -2.61905,17.14288c-2.07404,5.73962 -4.35725,12.60378 -5.2381,16.90478c-0.77765,3.7971 -0.78328,4.27551 -0.71429,4.04762c0.24877,-0.82163 0.49607,-1.51906 2.85715,-6.90477c4.14721,-9.45992 8.57144,-15.4762 12.14287,-19.04763c1.66667,-1.66667 1.80554,-1.42407 1.66667,0.71428c-0.35789,5.51097 -2.49941,14.25494 -2.85714,20.47621c-0.2597,4.51635 0.11815,7.1209 0.23809,8.09525c0.02909,0.23631 0.24536,0.24525 0.71429,-0.2381c3.87039,-3.98946 7.66669,-10.79103 19.28573,-15.71429c5.42339,-2.29802 7.14287,-1.42857 7.14287,-1.19048c0,2.61906 -0.07338,6.69091 -0.71429,10.4762c-0.56909,3.36117 -1.28071,5.77529 -2.61905,8.80953c-0.64457,1.46136 -1.04449,2.59943 -1.66667,2.85715c-0.65991,0.27335 -2.40684,-0.91635 -9.04763,-5.71429c-6.21489,-4.49023 -15.09068,-10.59377 -30.00003,-21.90479c-8.38488,-6.36121 -13.70897,-11.92937 -17.38097,-14.04763c-2.22127,-1.28138 -4.81809,-0.90598 -6.90477,2.61905c-3.63452,6.13982 -7.14525,13.10359 -11.19049,22.14288c-1.35463,3.02699 -1.21957,3.33155 -1.19048,3.09524c0.23989,-1.94868 0.55997,-4.65845 2.85715,-10.71429c3.06109,-8.06967 8.37891,-17.47206 14.76192,-30.71431c1.38703,-2.87754 1.29664,-3.09067 1.42857,-1.19048c0.71601,10.31247 4.32439,23.75619 5.4762,37.38099c0.86336,10.21275 1.07138,18.56619 1.19048,22.61906c0.01399,0.47599 0.03634,-0.47247 0.2381,-2.61905c0.2905,-3.09076 0.37004,-12.0149 2.85715,-23.57145c2.12649,-9.88091 4.08647,-19.83156 8.80953,-20.00002c0.33651,-0.012 1.05543,1.80455 2.38095,11.19049c1.70323,12.06049 0.62321,21.6758 0.95238,27.61907c0.11923,2.15275 0.1691,2.37074 0.23809,2.14286c0.24877,-0.82163 1.91637,-7.96811 4.52382,-17.85715c2.2271,-8.44654 3.92173,-15.60507 5.4762,-15.23811c0.23172,0.0547 0.07461,1.21639 2.38095,15.23811c1.33418,8.11134 1.83855,12.44868 2.61905,15.23811c0.34549,1.23476 0.47619,1.42857 1.19048,0.47619l0.95238,-0.95238" stroke-width="13"/>
  <path fill="none" stroke="#3f7f00" id="svg_52" d="m10.52391,57.38105c-0.2381,0 -0.86503,4.03917 -1.19048,11.19049c-0.44392,9.75472 -0.27263,21.42951 0,30.95241c0.21133,7.38177 0.2381,11.42858 0.2381,14.28573c0,0.47619 0,0.2381 0,-2.14286c0,-2.61905 -0.45335,-8.81165 -1.19048,-16.66668c-0.69283,-7.383 -2.73579,-15.65336 -3.09524,-18.80954c-0.02694,-0.23657 0.01688,-0.47559 0,-0.2381c-0.2387,3.3587 -1.45996,9.27977 -2.61905,15.4762c-0.97891,5.23321 -1.6129,9.52756 -1.90476,13.33335c-0.20109,2.62215 -0.2381,3.80952 -0.2381,3.57143c0,-1.19048 0.43358,-4.52806 1.42857,-14.28573c1.14161,-11.19557 2.3809,-23.08733 2.61905,-33.80956c0.12689,-5.71288 0,-7.85715 0,-5.71429c0,7.61906 0.18577,18.34345 -0.47619,28.80955c-0.5579,8.82082 -1.42857,12.85715 -1.19048,12.85715c0.47619,0 0.10071,-5.47684 0,-13.33334c-0.11906,-9.28801 -0.16266,-19.0539 -0.47619,-26.90479c-0.23829,-5.96664 -0.88537,-10.48316 -1.19048,-13.09525c-0.19532,-1.67222 -0.39065,-1.91706 -0.2381,-2.85715c0.24121,-1.4864 1.3094,-6.42048 1.42857,-9.04763c0.04316,-0.9514 -0.03814,-1.19355 0,-1.42857c0.1206,-0.7432 0.30783,-0.78402 0.47619,-0.95238c0.33672,-0.33672 0,-0.71429 0,-1.19048c0,-0.71429 -0.28238,-1.35537 -0.71429,-1.66667c-0.54632,-0.39376 -1.46482,-1.24634 -1.90476,-1.42857c-0.31109,-0.12885 -0.82353,-0.4032 -0.95238,-0.71428c-0.09112,-0.21997 0,-0.47619 0,-0.71429c0,-0.2381 0.1651,-0.34734 0.47619,-0.47619c0.21997,-0.09111 0.47619,0 0.95238,0c0.2381,0 1.19048,-0.2381 1.66667,-0.2381c0.47619,0 0.95238,0 1.42857,0c0.2381,0 0.47619,0 0.71429,0l0.2381,0l-0.47619,0l-0.47619,0" stroke-width="6"/>
  <path fill="none" stroke="#3f7f00" stroke-width="13" id="svg_54" d="m16.95249,48.57152c-1.66667,-1.90476 -2.99116,-3.24532 -4.04762,-5c-0.82384,-1.36832 -1.55743,-2.54606 -1.42857,-2.85715c0.09111,-0.21997 0.73968,0.70176 1.90476,3.09524c2.19086,4.50077 3.86994,8.62723 6.66667,12.14287c1.67699,2.10807 2.38095,2.38095 2.61905,2.38095c0.2381,0 0.55293,-0.17672 1.19048,-4.28572c0.47598,-3.06768 0.2381,-5.71429 0.2381,-7.14286c0,-0.23809 0.2381,0.47619 0.71429,1.90476c0.71429,2.14286 2.04191,4.20333 3.57143,6.90477c1.31156,2.31646 1.96585,5.61456 3.09524,5.2381c0.22588,-0.07529 0.30732,-1.69652 -0.23809,-5.71429c-0.45856,-3.37803 -1.07053,-5.21614 -1.19048,-6.19048c-0.02909,-0.23631 0.15198,-0.54891 -0.47619,-1.66667c-0.58324,-1.03782 -1.63775,-1.78416 -2.38095,-1.90476c-0.23502,-0.03814 -0.95238,0 -1.90476,0c-1.42857,0 -2.84446,-0.35684 -4.52381,-0.47619c-1.18748,-0.08439 -2.85958,-0.65537 -3.57143,-0.71428c-1.44334,-0.11946 -2.11394,-0.35559 -2.85715,-0.47619c-0.23502,-0.03814 -0.58543,0.07299 -0.71429,-0.23809c-0.09112,-0.21997 -0.40379,-1.70462 -1.42857,-3.57143c-0.66807,-1.21701 -1.03274,-2.21667 -1.42857,-2.85714c-0.35405,-0.57286 -1.11749,-1.29972 -1.42857,-1.42857c-0.21997,-0.09111 -0.57592,-0.13837 -0.95238,0.23809c-1.50585,1.50585 -1.80931,7.13529 -2.14286,14.76192c-0.41625,9.51769 -0.1902,19.99694 0.47619,30.71431c0.76962,12.37765 0.93144,18.57254 1.19048,23.33336c0.22029,4.04863 0.47619,6.66667 0.47619,8.33334c0,0.71429 0,1.19048 0,1.42857c0,0.2381 -0.04277,0.00555 -0.2381,-1.66666c-0.61022,-5.22419 -1.20906,-10.95036 -1.90476,-17.38097c-0.48926,-4.52242 -0.87556,-7.49716 0,-9.76191c0.50063,-1.29492 1.7856,-2.74911 3.33334,-4.04762c2.22651,-1.868 4.4396,-2.83725 6.66667,-3.57143c2.08477,-0.68727 4.55411,-1.30124 8.80953,-2.38096c1.68012,-0.42629 1.90476,-0.47619 1.90476,0.71429c0,2.14286 0.21679,8.10481 -0.23809,15.9524c-0.484,8.34988 -2.0233,15.92378 -2.38095,22.61906c-0.0508,0.95103 0.0091,0.23884 0.23809,-2.61905c0.24795,-3.09447 1.07142,-10.71201 1.19048,-20.00002c0.0946,-7.38036 1.19048,-14.28573 0,-14.28573c-0.2381,0 -0.21812,2.63894 0.47619,9.04763c0.72535,6.69518 1.44831,13.43493 2.61905,17.61906c0.69098,2.46951 0.98794,2.98232 1.19048,2.85714c2.26442,-1.39949 4.41646,-10.67146 8.57144,-17.61906c2.20308,-3.68381 2.82823,-6.54918 3.57143,-6.42857c0.94008,0.15256 -0.00594,3.09553 0.23809,8.09525c0.23244,4.76219 0.35707,9.75554 0.47619,13.09525c0.08487,2.37944 -0.23764,3.31854 0,3.33334c1.91588,0.11928 0.62116,-4.53947 1.66667,-10.4762c1.09335,-6.20837 2.61905,-10.23811 4.04762,-13.09525c0.71428,-1.42857 1.37101,-0.52496 2.38095,3.57143c1.16246,4.71503 1.77066,9.26265 2.61905,13.33334c0.54312,2.606 0.98243,3.34721 1.19048,2.85715c1.67731,-3.95104 2.80887,-8.11773 4.04762,-10.71429c0.91697,-1.92207 1.42857,-2.38095 1.42857,-2.14286c0,1.42857 0.43612,3.82153 1.66667,7.85715c1.38366,4.53775 1.66667,5.4762 1.90477,5.4762c0.71428,0 -0.05546,-1.90569 0,-3.57143c0.11911,-3.57738 0.59494,-7.14534 0.47619,-10.00001c-0.11915,-2.86457 -0.59466,-4.02995 -0.71429,-5.23811c-0.09385,-0.94774 -0.58295,-1.85849 -0.95238,-2.85715c-0.34059,-0.92071 -0.67809,-1.44754 -1.19048,-2.38095c-0.66807,-1.21701 -1.98267,-2.79568 -3.09524,-4.28572c-1.02723,-1.37574 -1.75423,-2.75331 -2.61905,-3.57143c-0.62363,-0.58995 -1.42857,-1.42857 -1.90476,-1.90477c-0.71429,-0.71429 -1.11749,-1.06161 -1.42857,-1.19048c-0.21997,-0.09112 -0.42281,0.02314 -0.23809,-0.47619c0.3406,-0.92072 0.81213,-2.54581 1.90476,-3.33334c0.4319,-0.3113 0.71429,-0.2381 1.42857,-0.2381c0.71429,0 1.29021,0.09973 1.66667,0.47619c0.37647,0.37646 1.00576,2.11972 1.19048,2.61906c0.34059,0.92071 0.67791,1.67651 0.95238,2.61905c0.21051,0.7229 0.40299,1.23476 0.71429,1.66666c0.19688,0.27316 0.19613,0.59197 0.71429,0.71429c0.23172,0.0547 0.23809,0.2381 0.23809,-0.23809c0,-0.4762 -0.58843,-2.20262 -1.42857,-3.80953c-1.04072,-1.99054 -1.90477,-2.85715 -2.38095,-4.28571c-0.23809,-0.71429 -0.91058,-1.21378 -1.19048,-1.66667c-0.12517,-0.20253 -0.2381,-0.23809 -0.47619,-0.23809c-0.23809,0 -0.47619,0 -0.71429,0c-0.23809,0 -1.16734,-0.52957 -1.66667,-0.71429c-0.92072,-0.3406 -2.16153,-0.66425 -2.85714,-0.95238c-0.98375,-0.40748 -1.90477,-0.71429 -2.38095,-0.71429c-0.2381,0 0,0 -0.95238,0c-1.19048,0 -4.83258,0.1331 -9.52382,-0.95238c-4.62191,-1.06944 -7.56662,-2.66443 -8.80953,-4.04762c-0.57378,-0.63854 -0.59196,-1.3866 -0.71428,-1.90476c-0.21881,-0.9269 0,-1.66667 0,-2.14286c0,-0.47619 -0.26697,-1.45009 0,-3.09524c0.1206,-0.7432 0.26091,-1.89982 0.71428,-4.04763c0.25074,-1.18788 0.59466,-2.12519 0.71429,-3.33334c0.11731,-1.18468 0.35656,-1.649 0.47619,-2.85714c0.07038,-0.71081 -0.57521,-1.84788 -0.95238,-2.61905c-0.3308,-0.67636 -0.17003,-1.00278 -0.71429,-1.66667c-0.21347,-0.2604 -0.47619,-0.71428 -0.71429,-0.95238c-0.23809,-0.23809 -0.31208,-0.60355 -0.71428,-0.95238c-0.5688,-0.49332 -0.93008,-0.73891 -1.19048,-0.95238c-0.66389,-0.54426 -1.16156,-0.83178 -1.90476,-0.95238c-0.47004,-0.07628 -3.09524,-0.47619 -4.28572,-0.47619c-0.95238,0 -1.66667,0 -2.61905,0c-1.19048,0 -2.38096,0 -3.80953,0c-0.71429,0 -1.19048,0 -1.66667,0c-0.47619,0 -0.95238,0 -1.19048,0c-0.71429,0 -0.95238,0 -1.19048,0c-0.2381,0 -0.71429,0 -1.19048,0c-0.47619,0 -1.19048,0 -1.90476,0c-0.47619,0 -1.50238,-0.08035 -2.14286,-0.47619c-0.28643,-0.17702 -0.38508,-0.49431 -0.47619,-0.71429c-0.12886,-0.31109 -0.14698,-0.49431 -0.2381,-0.71429c-0.12886,-0.31109 -0.2381,-0.47619 -0.2381,-0.71428c0,-0.2381 0.01812,-0.38508 0.2381,-0.47619c0.31109,-0.12885 0.47619,-0.47619 0.71429,-0.47619c0.2381,0 0.47619,0 0.71429,0c0.2381,0 0.47619,0 0.71429,0c0.2381,0 0.47619,0 0.71429,0c0.2381,0 0.47619,0 0.71429,-0.23809c0.2381,-0.2381 0.49432,-0.14698 0.71429,-0.2381c0.31109,-0.12886 0.47619,-0.2381 0.71429,-0.2381c0.2381,0 0.47619,0 0.71429,0c0.2381,0 0.48849,-0.15256 1.42857,0c0.7432,0.12061 0.95238,0.2381 1.42857,0.2381c0.2381,0 0.47619,0 0.71429,0c0.2381,0 0.72702,-0.10941 1.19048,0c0.51816,0.12232 1.20321,0.36678 1.66667,0.47619c0.51816,0.12232 0.71429,0.2381 0.95238,0.2381c0.23809,0 0.47619,0 0.71429,0c0.23809,0 0.71428,0 1.42857,0c0.71429,0 1.42857,0 1.90476,0c0.47619,0 1.19048,0 1.42857,0c0.2381,0 0.47619,0 0.71429,0c0.2381,0 0.47619,0 0.71429,0c0.2381,0 0.43423,0.11577 0.95238,0.23809c0.69518,0.16411 1.41289,0.27245 1.90476,0.47619c0.69561,0.28813 0.95238,0.23809 1.19048,0.23809c0.71429,0 1.19048,0 1.42857,0c0.23809,0 0.70567,0.26568 1.42857,0.47619c0.94254,0.27447 1.02212,0.30783 1.19048,0.47619c0.33672,0.33672 1.19663,0.39991 1.66667,0.47619c0.7432,0.1206 1.44669,0.38507 1.66667,0.47619c0.31108,0.12886 0.47619,0.23809 0.71429,0.47619c0.23809,0.23809 0.58543,0.4032 0.71429,0.71429c0.09111,0.21997 0.34733,0.4032 0.47619,0.71429c0.09111,0.21997 0.40299,0.99667 0.71429,1.42857c0.19688,0.27316 0.35387,0.43422 0.47619,0.95238c0.0547,0.23172 0.06974,0.30783 0.23809,0.47619c0.16836,0.16836 0.10924,0.4032 0.23809,0.71429c0.18223,0.43995 0.10924,0.6413 0.2381,0.95238c0.36446,0.87989 0.11578,1.3866 0.23809,1.90476c0.10941,0.46345 0.11578,1.14851 0.23809,1.66667c0.16411,0.69518 0.16182,1.19662 0.23809,1.66667c0.12061,0.7432 0.31208,1.44768 0.47619,2.14286c0.12232,0.51815 0.47619,1.19048 0.47619,1.66667c0,0.23809 0.18806,0.73296 0.47619,1.42857c0.40748,0.98374 0.47619,1.42857 0.71429,2.14286c0.23809,0.71429 0.23809,1.19048 0.47619,1.90477c0.23809,0.71428 0.36872,1.1357 0.71429,2.14286c0.394,1.14834 0.81331,2.08597 1.19048,2.85715c0.3308,0.67636 0.66425,1.44725 0.95238,2.14286c0.20374,0.49187 0.62234,0.785 1.19048,1.42857c0.35234,0.39913 0.47619,0.71428 0.71429,0.95238c0.2381,0.2381 0.47619,0.47619 0.71428,0.71429c0.2381,0.2381 0.71429,0.2381 0.95238,0.47619c0.23809,0.23809 0.4032,0.34734 0.71429,0.47619c0.21997,0.09111 0.4032,0.34733 0.71428,0.47619c0.43995,0.18223 0.71429,0.23809 1.19048,0.47619c0.47619,0.23809 0.9367,0.51054 1.42857,0.71429c0.69561,0.28813 1.16227,0.5215 1.90476,0.95238c0.46048,0.26723 2.45477,1.50893 3.09524,1.90476c0.85929,0.53107 1.15792,0.98734 1.66667,1.42857c0.89935,0.78 1.42857,1.19048 2.14286,1.90476c0.47619,0.47619 0.58345,0.82155 1.19048,1.42857c0.60703,0.60703 1.36051,1.24088 1.90477,1.90476c0.64042,0.7812 1.20761,1.41745 1.66667,2.14286c0.7424,1.17315 1.24049,2.34542 1.90476,3.33334c0.77467,1.15209 0.99238,2.12389 1.42857,3.09525c0.52525,1.16965 0.69128,2.38498 0.95238,3.80952c0.21887,1.19416 0.59435,2.1209 0.71429,3.09524c0.14545,1.18156 0.2381,1.90477 0.2381,2.38096c0,0.2381 0.47619,1.19048 0.71429,1.90476c0.2381,0.71429 0.38349,1.4665 0.71429,2.14286c0.37717,0.77117 0.71429,1.19048 0.95238,1.42857c0.23809,0.23809 0.40928,0.55005 1.19048,1.19048c0.66389,0.54426 1.63531,0.783 2.61905,1.19048c1.39123,0.57626 2.61905,0.95238 3.57143,0.95238c0.23809,0 0.23809,0.2381 0.47619,0.2381c0.2381,0 0.47619,0 0.95238,0c0.23809,0 1.19048,0 2.38095,0c1.42857,0 2.14286,0 2.61905,0c0.2381,0 0.47619,0 0.71429,0c0.2381,0 0.47619,0 0.71429,0c0.2381,0 0.47619,0 0.71429,0c0.2381,0 0.47619,0 0.71429,0c0.71429,0 1.19048,0 1.42857,0c0.2381,0 0.71429,0 0.95238,0c0.4762,0 0.75858,0.0732 1.19048,-0.2381c0.27316,-0.19688 0.6413,-0.34734 0.95238,-0.47619c0.21997,-0.09112 0.4762,-0.2381 0.71429,-0.2381c0.2381,0 0.30784,-0.30783 0.4762,-0.47619c0.16836,-0.16836 0.23809,-0.2381 0.47619,-0.2381l0.23809,0"/>
  <path fill="none" stroke="#b9c9a9" stroke-width="13" id="svg_55" d="m11.47629,-1.66662c0,0.71429 -0.33577,2.9728 0.71429,5.4762c1.27944,3.05026 3.57143,4.52381 5.2381,5.95239c1.66667,1.42857 2.14286,1.42857 2.38095,1.42857c0.47619,0 3.80763,-0.95733 6.90477,-2.14286c4.99695,-1.91275 9.91834,-3.69435 15.47621,-4.76191c3.77025,-0.72419 6.41068,-0.78208 8.09525,-1.19048c1.17987,-0.28604 2.986,-0.6413 2.85714,-0.95238c-0.09111,-0.21997 -2.70475,0.72604 -5.4762,1.90476c-5.19416,2.20912 -9.26238,5.87619 -8.80953,6.42858c1.53939,1.87776 10.0492,0.19 21.42859,-2.85715c13.39496,-3.58687 27.00815,-7.50328 37.38099,-9.52382c8.72561,-1.69967 18.80984,2.39876 18.57145,-2.38095c-0.01186,-0.2378 -0.47619,0 -0.71429,0l-0.2381,0.2381"/>
  <path fill="none" stroke="#b9c9a9" stroke-width="13" id="svg_56" d="m41.51028,10.78848c-0.45492,0.41622 -0.90984,0.62433 -1.36475,0.62433c-1.1373,0 -2.52499,-0.10933 -7.05124,-1.04055c-5.48994,-1.12949 -10.44492,-2.18284 -17.05945,-3.12165c-6.58007,-0.93392 -15.45978,-1.53593 -20.24388,-1.87299c-3.86206,-0.2721 -5.91394,-0.41622 -5.68648,-0.62433c0.22746,-0.20811 0.97154,-2.00975 7.50616,-4.37031c4.36154,-1.57556 9.06462,-2.08008 11.37297,-2.28921c0.4527,-0.04101 0.24656,0.03941 -0.22746,0.20811c-1.54328,0.54925 -5.93276,0.90005 -9.78075,1.24866c-2.30835,0.20913 -2.95465,0.67583 -2.27459,0.62433c1.37887,-0.10441 2.91671,-0.70737 8.87091,-1.24866c4.98473,-0.45316 5.87457,-0.23876 5.68648,0c-0.29739,0.37751 -0.46965,1.54062 -4.54919,2.70543c-5.28304,1.50845 -11.16599,1.35121 -16.60453,2.28921c-4.34002,0.74854 -7.39555,1.00387 -7.2787,1.45677c0.10452,0.40509 0.90274,0.31208 3.63935,0.41622c3.86347,0.14703 8.88834,-0.29732 16.14961,0.20811c7.53931,0.52478 13.18894,1.5608 18.42421,1.66488c0.22741,0.00452 -0.00017,-0.00799 -0.22746,0c-2.96352,0.10413 -9.32583,0.20811 -18.42421,0.20811c-11.14551,0 -21.83108,-0.10401 -25.7029,-0.20811c-1.81889,-0.0489 -2.27459,0 -2.04714,0c0.45492,0 1.13121,-0.3121 4.32173,-0.41622c8.18333,-0.26706 15.68593,0.3263 24.79307,0.83244c9.77331,0.54316 19.0938,1.14353 26.61274,1.87299c4.99673,0.48476 9.21249,-0.42913 9.09837,0.83244c-0.03752,0.4148 -0.68238,0 -2.50206,0c-5.91394,0 -15.46723,0 -28.43241,0c-12.2828,0 -23.43729,-0.47166 -33.43652,-1.04055c-8.65363,-0.49234 -10.46313,-0.62433 -10.00821,-0.62433c0.68238,0 5.91394,0 17.96929,0c9.55329,0 20.01842,0.18361 29.34225,0.83244c8.64538,0.60162 15.4625,1.14456 19.5615,1.24866c1.5916,0.04042 1.36476,0 1.13729,0c-2.50205,0 -7.50806,0.16372 -15.92215,0c-10.69784,-0.20816 -22.2975,-0.65075 -32.29922,-1.04055c-10.92944,-0.42596 -14.32994,-1.04055 -14.32994,-0.83244c0,0.20811 0.45492,0 0.90984,0c3.63935,0 10.23989,-0.06073 28.65988,1.04055c13.19583,0.78894 26.38327,1.68156 38.66809,2.91354c8.41464,0.84386 14.57375,1.56357 19.5615,2.28921c2.51152,0.36539 2.72951,0.41622 2.27459,0.41622c-0.68238,0 -1.82925,0.17794 -8.416,-0.20811c-7.29566,-0.4276 -15.24187,-1.01096 -22.51847,-1.45677c-6.37082,-0.39032 -10.94219,-1.12425 -13.87502,-1.66488c-1.83873,-0.33895 -2.50205,-0.62433 -2.27459,-0.62433c0.22746,0 1.82066,-0.00478 5.45902,0.62433c4.77795,0.82616 12.25853,2.26023 26.15782,3.74598c8.85721,0.94678 15.43348,2.08008 17.74183,2.28921c0.22635,0.02051 0.21014,0.12847 0,0.20811c-0.29719,0.11263 -0.35237,0.40689 -1.1373,0.62433c-0.8708,0.24123 -1.59221,0.20811 -2.50205,0.20811c-2.27459,0 -4.57856,0.12524 -6.82378,-0.20811c-0.71,-0.10541 -0.90984,-0.20811 -1.36476,-0.20811c-0.45492,0 -1.1373,0 -1.81967,0c-0.45492,0 -0.68238,0 -0.90984,0c-0.22746,0 -0.45492,0 -0.68238,0c-0.22746,0 -0.65475,-0.3108 -1.36475,-0.41622c-0.67357,-0.10001 -1.37693,-0.32059 -1.81968,-0.41622c-0.99001,-0.21383 -1.37977,-0.59887 -1.81967,-0.83244c-0.70933,-0.37662 -1.1373,-0.83244 -1.36476,-1.04055c-0.45492,-0.41622 -0.84011,-0.92792 -1.13729,-1.04055c-0.21015,-0.07964 -0.13384,0.29219 0.68238,1.24866c1.38574,1.62385 3.38766,2.53826 5.45902,3.53787c0.44987,0.2171 0.90984,0.41622 1.36475,0.62433c0.45492,0.20811 1.1373,0.41622 1.59222,0.41622c0.45492,0 0.90984,0 1.36475,-0.20811c0.90984,-0.41622 1.81968,-0.62433 2.27459,-0.62433c0.45492,0 0.47223,-0.12847 0.68238,-0.20811c0.29719,-0.11263 0.45492,-0.20811 0.90984,-0.41622c0.45492,-0.20811 0.90984,-0.20811 1.36476,-0.20811c0.45492,0 2.50205,0.62433 2.50205,0c0,-0.20811 -0.45492,0 -0.90984,0c-0.45492,0 -2.72951,0 -5.0041,0c-1.59222,0 -3.41189,0 -4.09427,0c-0.45492,0 -1.13729,0 -2.04713,0c-0.68238,0 -0.90984,0 -1.36476,0c-0.45492,0 -1.32467,-0.3093 -1.81968,-0.41622c-0.44275,-0.09563 -0.94606,-0.12708 -1.59222,-0.41622c-0.73672,-0.32967 -1.60953,-0.96091 -1.81967,-1.04055c-0.29719,-0.11263 -0.36788,-0.64017 -0.45492,-0.83244c-0.1231,-0.27191 -0.45491,-0.62433 -0.68237,-1.24866c-0.22746,-0.62433 -0.45492,-1.04055 -1.36476,-2.28921c-0.45492,-0.62433 -3.80613,-4.62686 -5.00411,-5.82708c-0.86767,-0.86931 -1.59222,-1.66488 -2.50205,-2.49732c-1.36476,-1.24866 -2.47451,-2.1241 -4.77665,-3.32976c-2.4735,-1.29541 -5.30249,-1.85537 -7.2787,-2.49732c-1.4379,-0.46709 -2.89035,-0.89339 -2.72951,-1.04055c0.32168,-0.29431 1.82016,-0.06241 6.59632,0c7.96351,0.10407 18.4242,0.20811 30.47955,0.20811c12.28281,0 24.10884,0.10405 34.57382,0.20811c7.50572,0.07463 15.24638,0.19397 18.65166,0c1.83029,-0.10426 2.27382,-0.22528 2.04714,-0.20811c-1.37887,0.10441 -4.9926,0.71113 -10.23567,1.24866c-7.26514,0.74484 -15.46439,1.56081 -22.29102,1.66488c-4.54855,0.06934 -6.43125,0.18417 -6.59631,0.62433c-0.3764,1.00372 -0.85944,2.50374 -1.1373,4.1622c-0.38533,2.29988 -1.13729,4.78653 -1.59221,6.65952c-0.45492,1.87299 -0.45492,3.12165 -0.45492,4.78653c0,0.62433 0,1.04055 -0.68237,0.62433c-1.36476,-0.83244 -2.47155,-1.70836 -3.86681,-2.49732c-1.55996,-0.88209 -2.65978,-1.13603 -2.95698,-1.24866c-0.42029,-0.15928 -1.11918,-0.24307 -2.04713,-0.62433c-1.11741,-0.4591 -1.43138,-0.56338 -1.59222,-0.41622c-0.16084,0.14716 -0.0478,0.43254 0.22746,1.04055c0.38928,0.85985 1.30326,2.12873 2.27459,3.12165c1.2872,1.3158 2.62902,2.39728 3.41189,2.91354c0.41261,0.27209 0.64888,0.24413 0.90983,0.41622c0.82522,0.54419 2.04714,0.83244 3.41189,1.24866c2.04714,0.62433 2.74736,0.78871 3.41189,1.04055c0.46989,0.17808 1.33758,0.46865 2.72951,1.04055c1.11741,0.45911 1.55213,0.72552 2.04714,0.83244c0.22138,0.04782 0.90984,0.41622 1.13729,0.41622c0.22746,0 0.45492,0.20811 0.68238,0.41622c0.22746,0.20811 0.72469,0.56034 1.1373,0.83244c0.78287,0.51626 1.13729,0.83244 1.59221,1.24866c0.45492,0.41622 0.68238,0.62433 0.90984,0.83244c0.68238,0.62433 1.24165,0.97675 1.36476,1.24866c0.08705,0.19227 0.15772,0.30359 0.45492,0.41622c0.21014,0.07964 0.84011,0.5117 1.13729,0.62433c0.21014,0.07964 0.3164,-0.16015 1.13729,-0.62433c0.61186,-0.34598 1.80557,-0.51992 3.18444,-0.62433c0.22668,-0.01716 0.22745,-0.20811 0.45492,-0.20811c0.45492,0 0.8401,0.09548 1.13729,0.20811c0.21014,0.07964 0.90984,0.62433 0.90984,0.41622c0,-0.20811 -0.43616,-0.42801 -0.90984,-1.04055c-1.31374,-1.69889 -3.18443,-3.32976 -5.23157,-5.20275c-2.04714,-1.87299 -3.41189,-3.32976 -4.54919,-4.37031c-1.36476,-1.24866 -2.75502,-2.68843 -3.41189,-3.53787c-0.47368,-0.61254 -0.73795,-0.83556 -0.68237,-1.24866c0.11458,-0.85163 0.58717,-1.32176 1.36475,-2.0811c1.43379,-1.40016 4.06773,-2.15783 6.82378,-2.91354c3.38248,-0.92748 6.09872,-1.41204 9.55329,-2.0811c4.28041,-0.82901 6.55212,-1.13387 7.50616,-1.45677c0.87958,-0.2977 1.52559,-0.26906 1.36475,-0.41622c-0.16084,-0.14715 -0.4267,0.2074 -3.18443,0.41622c-3.17358,0.24031 -7.54169,-0.38647 -12.73772,0.20811c-5.53313,0.63316 -9.41723,2.20832 -12.05534,2.91354c-1.54384,0.4127 -1.18327,0.13678 -0.45492,-0.20811c2.81365,-1.33233 7.22951,-1.96927 12.2828,-2.49732c4.75118,-0.49648 9.78075,-0.20811 11.37297,-0.20811c0.68238,0 0.54196,0.01584 0.45492,0.20811c-0.2462,0.54382 -1.4199,1.40319 -4.32172,3.95409c-2.08765,1.83518 -4.95886,4.21091 -6.82378,5.61897c-2.00028,1.51027 -3.29503,2.46064 -3.41188,2.91354c-0.05226,0.20254 -0.06591,0.40729 0,0.20811c0.47531,-1.43631 2.62479,-3.25844 4.32172,-5.82708c1.47429,-2.23163 2.64668,-4.59451 4.32172,-6.2433c1.76566,-1.73798 3.84659,-2.14226 7.50616,-3.12165c2.48914,-0.66615 4.98493,-1.33741 7.05124,-1.66488c1.80693,-0.28636 3.86681,-0.41622 7.05124,-0.41622c3.63935,0 7.17594,0.08276 10.91804,-0.83244c0.98273,-0.24034 1.20705,-0.52885 0.90985,-0.41622c-0.21014,0.07964 -2.04532,1.0489 -5.45903,1.66488c-8.18425,1.4768 -15.49403,2.57507 -20.6988,3.53787c-2.9745,0.55024 -4.32172,0.62433 -3.86681,0.62433c0.45492,0 2.04714,0 7.05124,0c4.77665,0 9.78075,0 14.5574,0c3.86681,0 5.88635,-0.44147 6.36886,0c0.16084,0.14716 0.3062,0.35492 0.68238,0.83244c0.29739,0.37751 0.22746,0.62433 0.45491,0.62433c0.90985,0 1.09018,-0.28265 1.59222,-0.20811c0.31752,0.04714 0.32274,0.50339 0.68239,0.83244c0.35963,0.32905 1.13729,0.83244 1.5922,1.24866c0.68239,0.62433 0.78674,0.97675 0.90985,1.24866c0.08704,0.19227 0,0.41622 0,0l0.22746,-0.83244"/>
  <path fill="none" stroke="#b9c9a9" stroke-width="13" id="svg_57" d="m134.09546,0.32293c0,-0.17787 0.2012,-0.24958 0.71428,-0.35575c2.99174,-0.61908 8.56674,-0.97828 13.09526,-1.06725c4.99828,-0.0982 9.28572,0 13.33334,0c3.09523,0 6.66667,0 9.76192,0c2.38095,0 4.782,0.08444 6.42857,-0.17787c1.69525,-0.27007 4.52808,-0.69435 7.14287,-1.06725c2.38504,-0.34013 4.3259,-0.38669 5.95238,-0.7115c1.23869,-0.24737 2.14287,-0.53362 2.61905,-0.53362c0.71429,0 1.19048,0 2.38095,0c0.4762,0 0.95239,0 1.19049,0c0.23808,0 0.54591,-0.12578 0.71428,0c0.16837,0.12578 0.32053,0.48123 0.71429,0.88937c0.31129,0.32266 0.42615,0.54758 0.71428,1.06725c0.40749,0.73493 0.73277,1.70013 1.66667,2.66812c0.19688,0.20407 0.12869,0.54314 0.2381,0.88937c0.12231,0.3871 0.47618,0.7115 0.47618,0.88937l0.2381,-0.17787l0.2381,-0.35575l0.2381,-0.35575"/>
 </g>

</svg>