<svg width="1000" height="1000" xmlns="http://www.w3.org/2000/svg">
 <g id="Layer_1">
  <title>Layer 1</title>
  <path d="m54.16682,41.66657c-29.16666,10.41666 -86.11765,34.05005 -152.08331,68.74999c-80.05132,42.10944 -177.19492,103.56534 -231.24995,149.99997c-41.36078,35.52994 -55.99701,67.72195 -62.5,66.66666c-2.05643,-0.33371 7.49765,-9.06076 16.66666,-18.75c36.50784,-38.57922 136.86435,-109.27422 216.66664,-162.49997c82.68629,-55.14929 169.53343,-95.87227 247.91663,-127.08331c58.96239,-23.47796 97.34161,-59.95263 104.16664,-52.08332c3.86081,4.45155 -30.35274,28.5043 -79.16665,58.33332c-71.66129,43.79051 -160.96928,84.22166 -252.08329,127.08331c-77.56706,36.48892 -147.91663,54.16664 -141.66666,66.66666c2.08334,4.16669 18.1582,-29.12349 52.08333,-70.83333c46.5143,-57.18782 120.50343,-121.90053 208.33331,-170.8333c79.82889,-44.47517 147.4813,-63.52819 181.24998,-66.66665c4.14877,-0.38559 -25.86943,24.52523 -91.66666,72.91665c-108.4813,79.78397 -228.73215,166.5553 -345.83327,256.24996c-103.57767,79.33623 -159.60693,132.67653 -147.91666,147.91664c29.19128,38.05542 141.77444,-26.79102 283.33328,-79.16666c195.98339,-72.51228 418.85345,-149.68726 645.83325,-224.99995c187.58591,-62.24167 284.52573,-91.60284 285.4166,-85.41666c10.52411,73.07961 -201.42633,56.49086 -366.6666,118.74999c-208.16333,78.43164 -456.61353,189.2453 -716.66656,289.58328c-223.07407,86.07016 -400.28378,217.21756 -420.83328,170.83328c-21.14728,-47.73352 164.64807,-97.81027 318.74997,-191.6666c208.42096,-126.93954 435.1254,-267.15746 668.74991,-383.33329c187.7504,-93.36375 319.46814,-120.21799 312.49994,-137.49998c-13.05951,-32.38928 -140.60211,58.21692 -272.91663,120.83331c-165.90625,78.51331 -344.48595,171.37201 -524.99991,258.3333c-135.98102,65.50787 -189.47235,90.25415 -187.49997,89.58331c97.04779,-33.00809 198.39426,-147.4816 349.99994,-239.58329c183.31559,-111.36571 392.62063,-188.68432 539.58325,-210.41663c53.6236,-7.92967 58.25653,3.76652 29.16669,31.24999c-154.21194,145.69607 -366.25508,203.42252 -608.33327,277.08329c-237.10411,72.14723 -416.71236,159.79005 -429.16661,122.91664c-14.36029,-42.51672 191.35678,-72.06578 462.49994,-139.58331c536.89743,-133.69318 896.69824,-226.86878 1189.58313,-266.66662c134.95935,-18.33858 148.67834,-11.42402 77.08337,4.16666c-204.47668,44.5273 -500.01019,83.28029 -877.08322,156.24998c-591.68271,114.50011 -927.54776,175.99865 -1097.91653,189.58329c-4.15344,0.33118 106.64948,-42.3148 374.99997,-104.16664c356.3342,-82.13111 742.71106,-160.90897 1072.91653,-208.3333c236.85388,-34.01711 235.54285,-22.1439 137.49994,18.75c-216.51556,90.3091 -515.3421,176.1033 -870.83319,274.99995c-313.98948,87.35103 -665.25452,80.76912 -637.49988,164.5833c21.9566,66.30515 281.24393,-100.53174 622.91655,-202.08328c383.22505,-113.90169 745.48988,-223.67375 1029.16652,-268.74997c130.42133,-20.72396 126.65826,3.38351 2.08331,60.41666c-416.15802,190.52626 -799.38977,325.6733 -1241.66647,493.74993c-383.17752,145.6174 -505.16531,157.48239 -185.41663,22.91666c637.91853,-268.46701 1065.08682,-443.28304 1456.24979,-572.91658c273.54083,-90.65291 398.95599,-98.8446 387.49994,-89.58333c-98.41577,79.56101 -340.7218,168.07765 -637.49994,310.41663c-497.33325,238.52805 -794.71333,399.01712 -1010.4165,445.83328c-67.67749,14.68872 -45.51831,-4.9082 72.91667,-77.08331c213.6007,-130.16977 496.37529,-283.39618 795.83321,-391.66663c307.38983,-111.13828 369.97308,-96.02988 339.58331,-60.41666c-104.44482,122.39698 -369.69977,263.90052 -735.41658,420.83326c-415.2549,178.19003 -908.70409,474.95914 -985.41649,322.91666c-72.1084,-142.91736 477.51846,-250.86011 852.08318,-429.16663c335.65926,-159.7861 594.30391,-260.18318 718.74989,-314.58329c12.80536,-5.59772 -82.2287,76.83466 -262.49994,168.74998c-258.22467,131.66159 -541.71297,261.88412 -814.58322,370.83325c-195.2244,77.94739 -262.16092,97.00964 -245.83328,91.66669c104.79135,-34.2912 462.02692,-172.086 791.66653,-295.83331c330.78006,-124.17545 598.40536,-216.62144 745.83322,-229.16663c20.75824,-1.7664 -54.32892,53.89896 -245.83331,145.83331c-321.90552,154.53525 -959.57721,411.53058 -1345.83313,545.83325c-220.3382,76.61243 -204.82385,79.70306 8.33331,12.5c333.64349,-105.18939 702.54439,-284.93555 1062.49985,-449.99994c396.11264,-181.64496 556.92087,-269.46249 574.99997,-239.58328c18.30286,30.24904 -136.43048,125.12494 -337.5,243.74997c-240.01859,141.60382 -486.73369,266.14093 -735.41655,387.49994c-315.70629,154.06689 -390.69591,183.46191 -379.16661,177.08331c120.43835,-66.63269 265.95958,-230.92371 510.4166,-427.08331c275.91434,-221.40189 555.14191,-430.54034 827.08319,-572.91655c261.25269,-136.78012 311.42639,-124.44188 304.16663,-112.49998c-44.15906,72.63976 -149.54541,182.05381 -293.74994,306.24995c-153.60938,132.29607 -349.47687,279.25011 -614.58325,379.16658c-415.86362,156.73566 -701.29755,131.46057 -687.49988,202.08331c3.59525,18.40204 130.57207,-37.26062 343.74993,-114.58331c282.45627,-102.45099 586.31165,-194.69263 860.41651,-304.1666c302.14722,-120.67371 400.64905,-182.58635 397.91663,-189.58331c-14.57727,-37.32841 -167.49792,41.20746 -381.24994,112.49997c-259.3786,86.51028 -499.17166,218.86456 -714.58322,314.58331c-89.80386,39.9046 -74.65487,18.12982 31.25,-62.5c247.83185,-188.68472 493.48288,-318.0869 718.74991,-466.6666c187.67102,-123.78244 353.37756,-261.43555 387.49988,-212.49996c3.37036,4.83348 -18.41162,27.05464 -77.08325,93.74998c-138.2218,157.12459 -277.11115,271.8915 -460.41663,389.58327c-183.41443,117.76169 -343.30609,200.30286 -435.4166,241.66663c-8.4993,3.81677 7.92621,-17.08698 87.49997,-93.74997c167.83527,-161.69586 320.46387,-290.07852 454.16663,-349.99995c114.2265,-51.19276 171.05322,-55.81007 172.91663,-52.08333c4.65845,9.31695 -24.74463,33.53006 -52.08331,68.74998c-53.66821,69.13982 -104.26385,108.38933 -95.83331,122.91664c3.13702,5.4057 42.22473,-39.20192 118.74994,-106.24997c87.87616,-76.99322 185.66461,-149.66505 264.58331,-208.33331c41.79871,-31.07316 36.69836,-30.25904 25,-20.83333c-67.68945,54.53957 -158.11279,161.58719 -281.24994,258.33329c-120.927,95.00967 -236.20673,162.49353 -310.41663,216.66663c-23.91541,17.45822 -16.51068,20.47018 -4.16669,2.08334c15.57953,-23.20621 12.37238,-27.27319 -12.5,-10.41666c-94.23895,63.86771 -230.54999,152.85217 -564.58324,281.24994c-229.44032,88.19366 -404.22026,151.95746 -502.08327,193.75c-14.59134,6.23126 2.27301,-7.63635 68.75,-41.66669c95.46468,-48.86951 231.91092,-103.55499 518.74992,-172.91663c197.01616,-47.64124 362.42732,-118.58215 383.33327,-70.83331c1.18164,2.69891 -31.0722,21.33563 -118.74997,52.08331c-126.83032,44.47809 -325.40717,81.07574 -683.33324,170.83331c-178.48036,44.75775 -253.95192,65.74921 -239.5833,62.5c102.18893,-23.10803 310.87781,-72.83728 606.24991,-150c351.38339,-91.7951 692.21286,-229.83084 1131.24979,-312.49994c126.2406,-23.77066 138.14502,-2.77286 45.83337,49.99997c-193.39795,110.56192 -506.94153,222.58273 -895.83319,327.08328c-421.64849,113.30273 -951.25031,440.13812 -1043.74988,210.41663c-2.80566,-6.9679 106.54352,-43.22308 322.91666,-122.91663c307.84691,-113.38477 651.01736,-310.48779 1027.08316,-445.83325c323.6958,-116.49756 570.35754,-188.63622 587.49988,-141.66666c35.48401,97.22491 -255.58826,183.75272 -552.08319,293.74997c-373.80582,138.67896 -809.74038,230.84875 -1170.83319,293.74994c-216.28516,37.67621 -267.88361,35.82275 -195.83331,14.58331c310.2027,-91.44366 632.71661,-177.70447 985.41653,-279.16663c302.05051,-86.89166 478.6091,-119.97867 485.4166,-95.83331c21.03149,74.59637 -216.81238,137.97845 -493.74991,216.66663c-475.40618,135.08038 -800.20901,119.20795 -785.41656,206.25c2.79239,16.43109 124.98007,-18.84753 318.74995,-58.33331c256.22369,-52.2124 549.92024,-201.5141 593.74989,-104.16669c16.34058,36.29309 -165.93509,103.36554 -399.99992,166.66669c-263.94307,71.38147 -554.30711,45.10248 -541.66658,129.16663c2.16849,14.42126 129.3876,-17.06335 533.33325,-70.83331c379.38071,-50.50012 749.81586,-99.55365 1002.08319,-127.08331c81.19421,-8.8606 50.21313,-2.86987 -85.41663,18.75c-264.19244,42.11322 -598.10226,86.06635 -1166.66653,160.41663c-343.86438,44.96667 -549.58261,97.77979 -552.08322,75c-8.38336,-76.37073 275.78619,-51.22168 597.91655,-104.16663c405.25423,-66.60706 809.75331,-141.12146 1229.16646,-172.91669c72.82666,-5.52094 45.58752,-1.61029 -68.75,16.66669c-227.61761,36.38489 -494.15894,79.04022 -724.99985,122.91663c-125.23337,23.80334 -131.04474,29.41687 47.91666,12.5c271.19037,-25.63501 580.79187,-80.20337 868.74982,-89.58331c149.92053,-4.88354 169.84045,7.00043 95.83337,20.83331c-156.72546,29.29407 -408.69824,17.39386 -758.33325,35.41669c-131.48807,6.77789 -152.16211,9.86584 -95.83328,2.08331c162.28836,-22.42224 400.01712,-40.89954 695.83316,-47.91663c237.51538,-5.63416 349.99866,-10.54681 343.75,-10.41669c-100.06506,2.0838 -324.99976,4.20313 -612.49988,6.25c-297.91638,2.12103 -676.04163,-118.76318 -674.99991,4.16669c0.05295,6.24976 95.30978,-26.43488 293.74997,-54.16669c392.83734,-54.89862 631.24982,-79.16663 756.24982,-79.16663c2.08337,0 -72.16394,21.77966 -224.99988,41.66663c-215.84637,28.08588 -441.65753,30.20831 -620.83328,31.25c-66.66553,0.38757 3.99896,-17.60931 177.08328,-47.91669c245.60266,-43.00549 484.74011,-88.56976 658.33325,-108.33331c49.85132,-5.6756 35.3894,-4.76447 -62.5,0c-304.26276,14.80902 -539.78754,26.70709 -729.16653,37.5c-77.21103,4.40033 -64.64673,-4.37866 39.58334,-35.41663c186.47369,-55.52869 443.37231,-99.74976 702.08319,-152.08331c245.4873,-49.65857 266.66077,-56.71832 247.91663,-56.25c-125.11707,3.12598 -334.10889,29.32581 -591.66656,81.25c-211.10327,42.5589 -359.41583,67.99097 -356.24994,87.5c2.66968,16.45148 109.41656,-31.24652 335.41663,-83.33337c186.7373,-43.03784 367.27002,-72.02722 466.66663,-93.74997c8.3916,-1.83395 -51.04529,9.48624 -175,54.16666c-140.85376,50.77179 -365.79388,48.87207 -352.08331,135.41669c1.62988,10.28839 105.40088,-21.40558 243.74994,-43.75c180.35583,-29.12885 347.64734,-63.63416 387.5,-20.83337c8.51819,9.14832 -43.97803,54.40295 -193.75,75c-95.14136,13.08411 -165.25659,14.69562 -166.66663,4.16669c-0.61841,-4.61725 49.93481,-23.21796 116.66663,-37.5c89.4978,-19.15442 168.0116,-35.39044 168.75,-25c6.26575,88.16595 -220.94666,28.74762 -370.83331,22.91669c-160.78131,-6.2547 -293.97412,-21.07343 -299.99994,-60.41669c-7.33618,-47.89856 141.31207,-120.45529 356.25,-206.24997c140.18237,-55.95526 209.74854,-61.3884 204.16663,-79.16666c-30.27271,-96.41701 -246.61133,36.18509 -408.33331,75c-127.75409,30.66229 -183.32117,35.73438 -179.16663,35.41666c54.64435,-4.17883 177.24847,-30.43207 395.83331,-75c160.54016,-32.73303 310.42188,-35.1947 308.33325,-64.58331c-0.5907,-8.31241 -68.83752,20.57187 -187.5,60.41666c-141.77185,47.60449 -269.72388,85.82968 -306.24994,187.5c-17.6095,49.01611 34.09705,105.81354 85.41663,166.66663c57.487,68.1662 92.80121,155.87103 125.00006,254.16663c36.71521,112.08282 53.63782,201.94855 72.91663,256.24994c1.55859,4.38989 2.08325,2.08337 2.08325,-10.41663c0,-14.58337 1.33447,-50.21155 -6.25,-93.75c-12.41113,-71.24609 -31.55432,-156.18402 -77.08325,-235.41663c-17.85791,-31.07764 -37.5,-43.75 -39.58337,-43.75c-2.08325,0 -6.10547,17.30377 -20.83325,64.58331c-14.50446,46.56274 -24.25427,85.01575 -37.50006,93.75c-1.73926,1.14685 -1.93481,-2.086 -2.08331,-6.25c-1.0423,-29.22241 -9.66553,-66.45728 -14.58331,-102.08331c-2.86298,-20.7406 -5.63983,-27.69354 -4.16669,-29.16669c1.47314,-1.47314 3.49927,0.05377 4.16669,4.16669c2.1106,13.00598 7.27802,22.66364 8.33331,29.16663c1.00116,6.16931 -0.82489,12.97192 2.08331,12.5c4.59833,-0.74615 2.08337,-8.33331 2.08337,-12.5c0,-4.16663 0.24652,-7.23303 2.08331,-6.25c6.62274,3.54437 12.5,20.83337 16.66669,35.41669l2.08331,4.16669" id="svg_20" stroke-width="99" stroke="#0d4166" fill="none"/>
  <path d="m85.41682,354.16652c0,4.16666 0,10.41666 0,29.16666c0,20.83331 0,52.08331 0,87.49997c0,25.00003 0,50.00003 0,68.75003c0,18.74994 -2.08333,41.66663 -2.08333,62.49994c0,22.91669 0,45.83337 0,68.75c0,12.5 0,20.83331 0,31.25c0,8.33331 0,16.66669 0,18.75c0,4.16669 0,6.25 0,8.33331c0,2.08337 0,6.25 0,8.33337c0,2.08331 0,4.16663 0,6.25c0,2.08331 0,4.16663 0,6.25l0,2.08331l0,2.08331l0,2.08337" id="svg_4" stroke-width="55" stroke="#ffffff" fill="none"/>
  <path d="m172.9168,385.41649c0,6.25 0,10.41669 0,16.66669c0,18.75 0,37.5 0,62.49997c0,29.16666 0,52.08334 0,75.00003c0,18.74994 0,37.49994 0,52.08331c0,20.83331 0,31.25 0,41.66663c0,8.33337 0,12.5 0,20.83337c0,8.33331 0,18.74994 0,24.99994c0,14.58337 1.98993,21.97742 4.16667,29.16669c2.41487,7.97577 0,14.58331 0,18.75c0,6.25 0,8.33331 0,10.41669c0,6.25 0,8.33331 0,4.16663c0,-8.33331 0,-14.58331 0,-31.25c0,-18.75 -1.03101,-35.45923 0,-47.91663c2.09045,-25.25848 6.23427,-41.28247 8.33333,-58.33331c1.78185,-14.47412 2.06299,-26.64642 4.16666,-41.66669c2.02274,-14.44238 1.77345,-25.27863 4.16669,-35.41663c2.14059,-9.06775 2.25208,-16.88959 4.16666,-25c2.14059,-9.06775 6.19272,-18.01563 8.33331,-27.08337c1.91458,-8.11038 -1.20746,-12.67874 0,-16.66666c2.17676,-7.18927 5.88425,-6.45392 8.33334,-10.41666c1.09528,-1.77219 4.16666,-4.16663 12.5,-8.33331c4.16666,-2.08334 12.51419,-3.82303 16.66666,-4.16669c12.62924,-1.04523 33.39014,-3.45798 50,-2.08331c12.62924,1.04523 17.38791,3.55301 20.83334,8.33331c5.44772,7.55829 16.15689,19.02502 20.83331,27.08334c7.5405,12.99362 17.07767,22.69724 29.16666,45.83334c8.62949,16.51526 12.22293,33.40503 16.66669,49.99994c3.92316,14.65076 6.31058,29.30762 8.33331,43.75c2.10367,15.02032 4.16669,25 4.16669,35.41669c0,12.5 0,25 0,33.33331c0,6.25 0,12.5 0,16.66669c0,8.33331 0,12.5 0,16.66663c0,4.16669 0,6.25 0,8.33337c0,6.25 -2.08334,8.33331 -2.08334,10.41663c0,2.08337 0,4.16669 0,0l2.08334,-6.25" id="svg_6" stroke-width="55" stroke="#ffffff" fill="none"/>
  <path d="m456.25011,322.91652c0,8.33331 0,18.75 0,33.33331c0,18.75 0,33.33334 0,56.25c0,18.75 -1.49677,39.65067 0,56.25c2.09174,23.19821 1.83063,39.77164 4.16663,54.16666c2.1106,13.00604 6.83142,31.64813 12.5,50c6.62207,21.43872 16.57391,34.09515 20.83337,54.16663c2.59491,12.22772 7.9679,25.12781 12.49994,37.5c3.85889,10.53461 6.32404,23.96716 12.5,33.33331c6.48761,9.83875 11.21899,17.44171 16.66669,25c3.44543,4.78033 8.33331,6.25 8.33331,6.25c4.16669,0 8.42645,0.49713 20.83337,-2.08331c8.40979,-1.74915 12.5,-2.08337 16.66663,-4.16669c8.33331,-4.16669 8.33337,-6.25 12.5,-8.33331l0,-2.08331l4.16669,-4.16669l0,0" id="svg_9" stroke-width="55" stroke="#ffffff" fill="none"/>
  <path d="m464.58343,481.2498c-4.16669,4.16669 -4.16669,6.25 8.33331,6.25c12.5,0 20.927,1.52728 33.33331,0c8.52545,-1.0495 16.66669,-6.25 20.83337,-6.25l4.16663,0" id="svg_10" stroke-width="55" stroke="#ffffff" fill="none"/>
  <path d="m629.16674,499.9998c2.08331,2.08337 2.08331,2.08337 10.41669,4.16669c16.66663,4.16663 33.33331,4.16669 45.83331,4.16669c16.66663,0 33.2041,-3.12146 45.83331,-4.16669c8.30493,-0.68732 16.53741,-3.12146 29.16669,-4.16669c8.30493,-0.68738 12.49994,-2.08331 12.49994,-2.08331c8.33337,-4.16669 16.66669,-8.33331 20.83337,-12.5c4.16663,-4.16669 6.19269,-5.51563 8.33331,-14.58334c1.43597,-6.08279 0,-12.5 0,-18.75c0,-6.25 0.06549,-13.35846 -4.16669,-20.83331c-2.90326,-5.12766 -9.42126,-11.20984 -14.58331,-16.66666c-7.15851,-7.5672 -14.58331,-8.33334 -18.75,-10.41669c-4.16663,-2.08331 -10.49469,-3.35605 -20.83331,-2.08331c-8.52545,1.04953 -18.75,6.25 -31.25,12.5c-12.5,6.25 -19.22681,11.93671 -29.16669,20.83331c-6.58606,5.89481 -12.18982,9.34439 -16.66663,18.75c-3.69165,7.75607 -5.13654,10.07932 -8.33337,20.83331c-3.02698,10.18256 -5.20673,20.74683 -6.25,39.58337c-0.57605,10.4007 0,20.83331 4.16669,31.24994c4.16669,10.41669 7.12189,23.38806 12.5,35.41669c6.85577,15.3335 19.26605,27.6734 29.16669,47.91669c5.78894,11.83636 11.49542,23.80676 20.83331,33.33331c11.38995,11.62006 20.23773,21.27429 25,27.08331c7.47162,9.11389 17.07452,11.76849 25,16.66669c8.8609,5.47638 16.88953,6.4187 25,8.33331c4.53381,1.07031 8.33331,2.08331 12.5,2.08331c4.16663,0 5.38702,2.94629 8.33331,0c1.47314,-1.47314 7.84155,-3.18304 12.5,-12.5c0.9317,-1.86334 1.71759,-2.28723 4.16669,-6.25c1.09528,-1.77216 6.15656,-5.31073 8.33331,-12.5c0.6037,-1.9939 0,-4.16663 0,-6.25l0,-2.08331" id="svg_11" stroke-width="55" stroke="#ffffff" fill="none"/>
  <path d="m918.75,277.08319c0,2.08331 -4.16663,8.33331 -4.16663,16.66666c0,12.5 -3.12238,31.13901 -4.16669,45.83334c-1.03381,14.54663 0,29.16666 0,43.74997c0,12.5 0,22.91669 0,33.33334c0,10.41666 0,18.75 0,29.16666c0,8.33334 0,20.83334 0,29.16666c0,8.33334 0,14.58334 0,25c0,6.25 0,14.58331 0,22.91669c0,8.33331 0,16.66663 0,31.25c0,10.41663 -0.7384,22.94281 0,33.33331c1.04431,14.69434 2.08331,29.16663 2.08331,41.66663c0,12.5 0,20.83337 0,35.41669c0,8.33331 0,14.58331 0,20.83331c0,2.08337 0,8.33337 0,10.41669c0,2.08331 0,4.16669 0,6.25c0,2.08331 4.16669,6.25 4.16669,8.33331c0,2.08331 1.97614,6.87231 4.16669,10.41669c2.4491,3.96271 3.07135,4.47778 4.16663,6.25c2.4491,3.96271 4.16669,4.16663 8.33337,4.16663c0,0 4.16663,2.08337 4.16663,2.08337c4.16669,2.08331 4.16669,4.16663 8.33337,4.16663c0,0 4.16663,2.08337 4.16663,2.08337l4.16669,0" id="svg_13" stroke-width="55" stroke="#ffffff" fill="none"/>
  <rect id="svg_15" height="4.16667" width="4.16667" y="283.33319" x="79.16681" stroke-width="55" stroke="#1f6791" fill="none"/>
 </g>
</svg>