<svg width="200" height="100" xmlns="http://www.w3.org/2000/svg">
 <g id="Layer_1">
  <title>Layer 1</title>
  <rect stroke-width="75" id="svg_124" height="61.48532" width="176.85663" y="-12.76338" x="60.2418" fill-opacity="0" stroke="#a59d9d" fill="none"/>
  <rect id="svg_102" height="6.90846" width="102.07254" y="3.50604" x="4.80138" fill-opacity="0" stroke-width="38" stroke="#000000" fill="none"/>
  <rect stroke-width="99" id="svg_99" height="110.70811" width="210.36269" y="107.82383" x="-58.92919" fill-opacity="0" stroke="#99602c" fill="none"/>
  <rect id="svg_128" height="1.38169" width="22.79793" y="86.61485" x="76.30396" fill-opacity="0" stroke-width="18" stroke="#000000" fill="none"/>
  <rect id="svg_127" height="7.00388" width="14.33506" y="56.53141" x="76.99481" fill-opacity="0" stroke-width="16" stroke="#ffffff" fill="none"/>
  <rect id="svg_101" height="8.46286" width="61.48532" y="48.23834" x="-25.59586" fill-opacity="0" stroke-width="38" stroke="#544131" fill="none"/>
  <path d="m82.00345,30.10362c-0.34542,0 -0.87415,0.14242 -1.89983,0.51814c-0.87333,0.31991 -1.56408,0.64775 -2.41796,1.5544c-1.64503,1.74669 -1.80789,3.60231 -2.24525,5.18135c-0.42504,1.53455 -0.23426,3.83681 1.03627,5.8722c0.98923,1.58475 2.32457,3.8787 3.79966,5.52677c1.14027,1.27399 1.67737,1.89666 2.59067,2.07254c0.84798,0.16331 2.45757,-0.40276 3.10881,-0.69085c1.13898,-0.50385 2.21467,-1.64787 2.9361,-3.10881c0.65337,-1.32312 1.13449,-2.72586 1.55441,-3.97237c0.45467,-1.34969 0.34542,-2.59067 0.34542,-5.00863c0,-1.20898 -0.39853,-2.53362 -2.07254,-4.14508c-0.97181,-0.9355 -1.8589,-1.44741 -2.9361,-2.07254c-0.66805,-0.38768 -1.72711,-0.69085 -2.41796,-0.86356c-0.69084,-0.17271 -1.20898,-0.17271 -1.89983,-0.17271l-0.34542,0l-0.17271,0l-0.17271,0" id="svg_3" fill-opacity="0" stroke="#B1FFFF" fill="none"/>
  <path d="m80.10362,35.45768c0.17271,0.17271 0.25669,0.31499 0.34542,0.69085c0.11904,0.50428 0,0.69085 0,1.03627c0,0.51814 0.16809,0.82388 0,0.86356c-0.37586,0.08873 -0.17271,-0.69085 -0.17271,-1.20898c0,-0.69085 -0.05295,-1.11551 0.17271,-1.20898c0.15957,-0.0661 0.38972,-0.03506 0.51814,0.17271c0.28713,0.4646 0.51814,1.03627 0.51814,1.5544c0,0.51814 0,0.86356 -0.17271,1.03627c-0.17271,0.17271 -0.69084,0.51814 -1.20898,0.51814c-0.17271,0 -0.48578,-0.03572 -0.86356,-0.34542c-0.48158,-0.3948 -0.46519,-0.59737 -0.69085,-0.69085c-0.15957,-0.06609 -0.21239,-0.17733 -0.17271,-0.34542c0.08873,-0.37587 0.46727,-0.75064 0.86356,-1.03627c0.31329,-0.22581 0.56872,-0.29483 0.69084,-0.17271c0.12212,0.12212 0.17271,0.34542 0.17271,0.51813c0,0.34542 -0.08398,0.66041 -0.17271,1.03627c-0.03968,0.16809 -0.17271,0.34542 -0.34542,0.34542c-0.17271,0 -0.17271,-0.34542 -0.17271,-0.69085c0,-0.34542 0.31499,-0.77483 0.69085,-0.86356c0.16809,-0.03968 0.37532,-0.02544 0.51814,0.17271c0.22581,0.3133 0.60384,1.02034 0.69084,1.72712c0.06331,0.51425 -0.32924,1.39956 -0.51813,1.55441c-0.48158,0.3948 -0.69547,0.55782 -0.86356,0.51814c-0.75172,-0.17746 -1.20898,-0.69085 -1.72711,-1.38169c-0.51814,-0.69085 -0.51814,-1.20898 -0.51814,-1.55441c0,-0.34542 -0.15581,-1.00595 0.17271,-1.20898c0.14692,-0.0908 0.36234,-0.03032 0.69085,0.17271c0.73459,0.454 1.02853,1.13111 1.20898,1.72712c0.1001,0.3306 0.15956,0.62475 0,0.69085c-0.22566,0.09347 -0.50391,-0.23953 -0.69085,-0.69085c-0.26437,-0.63826 -0.15872,-1.40017 0,-2.07254c0.08873,-0.37587 0.29247,-0.77009 0.51814,-0.86356c0.15957,-0.06609 0.37829,-0.02047 0.69085,0.51814c0.19384,0.33402 0.17271,0.51814 0.17271,0.69085l0,0.17271" id="svg_4" fill-opacity="0" stroke="#B1FFFF" fill="none"/>
  <path d="m86.83937,36.83937c-0.17271,0 -0.14727,-0.20261 -0.34542,-0.34542c-0.31329,-0.22581 -0.42941,-0.48769 -0.51814,-0.86356c-0.07936,-0.33618 0.07924,-0.6379 0.17271,-0.86356c0.06609,-0.15956 0,-0.34542 0.17271,-0.34542c0.17271,0 0.86356,0.69085 0.86356,1.55441c0,0.51814 -0.11962,1.06839 -0.34543,1.38169c-0.14281,0.19815 -0.35857,0.23881 -0.51814,0.17271c-0.22565,-0.09347 -0.42941,-0.31498 -0.51814,-0.69085c-0.07936,-0.33618 -0.37098,-0.55757 -0.17271,-1.03627c0.09347,-0.22566 0.27388,-0.51814 0.51814,-0.51814c0.24425,0 0.37122,0.25462 0.51814,0.34542c0.32851,0.20304 0.17271,0.86356 0.17271,1.03627l0,0.17271" id="svg_5" fill-opacity="0" stroke="#B1FFFF" fill="none"/>
  <path d="m82.00345,41.15717c0.17271,0 0.29247,0.25195 0.51814,0.34542c0.15957,0.06609 0.34542,0.17271 0.51814,0.17271c0.17271,0 0.29247,0.07924 0.51814,0.17271c0.15957,0.06609 0.34542,0.17271 0.51814,0.17271c0.17271,0 0.34542,0 0.51814,0c0.17271,0 0.1516,-0.174 0.17271,-0.34542c0.08701,-0.70677 0.11939,-1.3941 0.34543,-2.24525c0.28036,-1.05573 0.5171,-1.69871 0.69084,-3.28152c0.13192,-1.20176 0,-2.41796 0,-2.76339c0,-0.34542 0,-0.51813 -0.17271,-0.51813l-0.17271,0l-0.17271,0l-0.17271,0" id="svg_6" fill-opacity="0" stroke="#B1FFFF" fill="none"/>
  <path d="m78.2038,44.78411c0.17271,0.17271 0.26453,0.26201 1.20898,1.03627c0.48158,0.3948 1.14229,0.74214 1.55441,1.20898c0.25558,0.28952 0.34542,0.51814 0.51814,0.51814c0.17271,0 0.46503,-0.55026 0.69085,-0.86356c0.42845,-0.59444 1.03627,-1.38169 1.38169,-2.07254c0.17271,-0.34542 0.45016,-0.78389 0.69085,-1.20898c0.35085,-0.61967 0.34542,-0.86356 0.34542,-0.69085c0,0.17271 0.11961,0.55026 0.34542,0.86356c0.14282,0.19815 0.47047,0.5566 1.03627,1.20898c0.32007,0.36904 0.51814,0.69085 0.86356,1.03627c0.17271,0.17271 0.29248,0.42466 0.51814,0.51814c0.15957,0.0661 0.38486,0.02557 0.86356,-0.17271c0.22566,-0.09347 0.40774,-0.90071 0.86356,-2.07254c0.28001,-0.71984 0.51814,-1.03627 0.69084,-1.72712l0,-0.17271l0.17271,-0.17271l-0.17271,0" id="svg_7" fill-opacity="0" stroke="#B1FFFF" fill="none"/>
  <path d="m83.21243,49.1019c0.17271,-0.51814 0.07233,-0.76319 0.34542,-1.03627c0.27308,-0.27308 0.74143,-0.64026 0.86356,-0.51814c0.12212,0.12212 0.07924,0.29248 0.17271,0.51814c0.06609,0.15956 0.17271,0.51814 0.34542,0.69085l0,0.34542l0,0.17271l0,0.34542" id="svg_8" fill-opacity="0" stroke="#B1FFFF" fill="none"/>
  <path d="m83.21243,45.82038c0.17271,0 0.51814,0 0.86356,0c0.34542,0 0.51814,0 0.69084,0c0.17271,0 0.34543,0 0.51814,0c0.17271,0 0.34543,0 0.51814,0l0.17271,0" id="svg_9" fill-opacity="0" stroke="#B1FFFF" fill="none"/>
  <path d="m74.05872,34.2487c0.51814,0 0.86356,-0.17271 0.86356,0c0,0.34542 -0.236,1.02481 -0.51814,2.76339c-0.22305,1.37446 -0.33143,2.43644 -0.17271,3.10881c0.08873,0.37586 0.17271,0.17271 0.17271,-1.03627l0,-0.69085" id="svg_10" fill-opacity="0" stroke="#B1FFFF" fill="none"/>
  <path d="m75.09499,32.00345c0,-0.17271 0.05059,-0.2233 0.17271,-0.34542c0.12212,-0.12213 0.07924,-0.29248 0.17271,-0.51814c0.06609,-0.15957 0.25195,-0.11976 0.34543,-0.34542c0.06609,-0.15956 0.57404,-0.78069 0.86356,-1.03627c0.46684,-0.41212 0.42466,-0.98332 0.51814,-1.20898c0.06609,-0.15956 0.07173,-0.20531 0.17271,-0.34542c0.31934,-0.44307 0.77008,-0.46519 0.86356,-0.69085c0.06609,-0.15956 0.25195,-0.29247 0.34542,-0.51813c0.06609,-0.15956 0.26618,-0.46519 0.17271,-0.69085c-0.26437,-0.63826 -1.37098,-0.08606 -2.41796,-0.17271c-2.2376,-0.18519 -4.6637,-0.00661 -7.08118,0.17271c-2.24572,0.16658 -4.03048,0.10953 -5.18135,0.51814c-0.94903,0.33694 -0.98332,0.77009 -1.20898,0.86356c-0.15957,0.0661 -0.51814,0.17271 -0.69085,0.34542c-0.17271,0.17271 -0.84933,0.23953 -1.03627,0.69085c-0.06609,0.15956 0,0.34542 0.34542,0c0.51814,-0.51814 2.44984,-2.54261 6.21762,-4.14508c5.52853,-2.35133 8.46635,-2.75389 10.36269,-3.45423c1.38426,-0.51122 1.75478,-0.68862 1.72712,-0.51814c-0.08749,0.53911 -0.23707,1.08871 -0.86356,2.24525c-0.2966,0.54754 -0.3851,0.68623 -0.34542,0.51814c0.08873,-0.37586 1.12009,-1.98365 2.59068,-3.45423c1.47059,-1.47059 3.25894,-3.22936 4.14507,-2.59067c0.14011,0.10099 -0.08053,0.70753 0.17271,1.72712c0.39496,1.59017 0.78921,2.61365 1.03627,3.28152c0.13399,0.36221 0.34876,0.39334 0.69085,0.34542c1.2452,-0.1744 3.26433,-0.69047 5.87219,-0.86356c2.58498,-0.17157 4.31779,0 5.18134,0c0.17271,0 0.17271,0.17271 0,0.51813c-0.34542,0.69085 -1.39592,1.10309 -1.20898,1.55441c0.13219,0.31913 1.37234,-0.19838 2.76338,-0.69085c3.0891,-1.09363 7.94186,-2.24246 13.12608,-2.24525c5.35684,-0.00288 5.85178,0.39049 5.52676,1.20898c-0.60133,1.51433 -1.68021,2.48771 -2.9361,3.28152c-1.50309,0.95007 -3.44349,1.40918 -5.18134,2.07254c-1.88863,0.72091 -3.85024,1.15839 -3.97237,1.03627c-0.12212,-0.12213 0.12212,-0.39601 0,-0.51814c-0.12212,-0.12213 -0.51145,-0.20801 -2.24525,-0.51814c-3.27026,-0.58496 -6.91817,-0.56898 -9.84456,-0.86356c-1.21511,-0.12232 -1.13725,-0.14011 -1.03627,0c0.31934,0.44307 1.57121,0.62682 4.31779,1.38169c3.47738,0.95572 6.78378,1.94535 9.67184,3.10881c1.93571,0.7798 2.76338,1.20898 2.76338,1.38169c0,0.17271 0.44365,0.48061 0.86356,1.72712c0.68201,2.02454 1.00182,4.154 1.55441,6.21762c0.65047,2.42913 1.39825,4.65963 1.72711,6.21762c0.36377,1.72334 0.69085,3.28152 0.69085,4.31779c0,1.72712 -0.13642,2.43151 -0.34543,2.9361c-0.29558,0.71359 -0.56799,1.44165 -1.03627,2.24525c-0.5568,0.9555 -1.38746,1.72302 -2.24525,2.9361c-1.21719,1.72134 -1.93184,2.9055 -2.59068,3.62695c-0.90963,0.99607 -1.55441,2.07254 -2.41796,2.93609c-0.69084,0.69085 -1.44135,1.5213 -1.89983,2.41796c-0.59881,1.17113 -0.74913,1.95338 -1.03627,2.41797c-0.12841,0.20777 -0.10149,0.51519 -0.17271,-0.34543c-0.08665,-1.04698 -0.34542,-2.59068 -0.34542,-5.52677c0,-3.79965 0,-7.42659 0,-12.08981c0,-2.41796 0,-3.97237 0,-5.00864c0,-1.20898 0,-2.24525 -0.17271,-3.45423c-0.17271,-1.20898 -0.28733,-2.29424 -0.69084,-3.62694c-0.22382,-0.73925 -0.35155,-1.46878 -0.86356,-2.24525c-0.13446,-0.20391 -0.69085,-0.69085 -1.55441,-1.55441c-0.69085,-0.69085 -1.30015,-1.85905 -2.07254,-2.24525c-0.15448,-0.07724 -0.20316,0.86401 -0.17271,1.89983c0.0864,2.9399 0.50657,6.39185 1.03627,10.36269c0.50706,3.80114 0.86318,6.89127 1.03627,9.49913c0.13726,2.06799 0.07513,3.62928 0,4.83593c-0.08652,1.38975 -1.20898,3.62694 -0.17271,3.62694c1.03626,0 -0.08855,-1.91032 -0.34542,-3.62694c-0.39098,-2.61289 -0.79382,-5.40851 -2.07254,-10.53541c-0.87273,-3.49913 -1.79954,-6.0831 -2.76338,-8.46287c-0.78341,-1.93425 -1.48622,-3.31307 -2.07254,-4.4905c-0.62069,-1.24645 -1.61639,-2.0971 -2.41796,-3.62695c-0.25348,-0.48378 -0.34542,-0.51814 -0.34542,-0.69085l-0.17271,-0.17271l-0.17271,-0.17271" id="svg_11" fill-opacity="0" stroke="#B1FFFF" fill="none"/>
  <path d="m77.16753,45.30224c-0.51814,0 -1.54369,0.08606 -2.59068,0.17271c-1.37698,0.11396 -2.78809,0.14371 -5.00864,0.51814c-3.34601,0.5642 -5.33575,1.29289 -6.73575,1.55441c-1.36877,0.25568 -2.12313,0.05059 -2.24525,0.17271c-0.24425,0.24425 -0.21298,0.85199 -0.69085,2.59068c-0.56615,2.05994 -0.67243,4.83706 -0.86356,7.77202c-0.15753,2.419 -0.53211,4.83344 -0.86356,6.73575c-0.36065,2.06995 -0.63415,4.35625 -1.20898,7.08118c-0.37219,1.76433 -0.88375,3.27593 -1.20898,4.4905c-0.36839,1.37575 -0.54365,2.06276 -0.86356,2.9361c-0.18785,0.51284 -0.34542,1.03627 -0.34542,1.20898c0,0.17271 0.17271,0.17271 0.51814,0.17271c0.34542,0 1.55441,0 3.10881,0c1.89983,0 4.492,-0.05193 9.32642,-0.17271c3.45747,-0.08638 6.5724,-0.65001 9.67185,-1.38169c2.77223,-0.65443 4.64447,-1.269 6.21761,-1.72711c1.36742,-0.39819 2.39749,-0.551 2.9361,-0.86356c0.33403,-0.19384 0.69085,-0.34542 1.03627,-0.34542l0,-0.17271" id="svg_12" fill-opacity="0" stroke="#B1FFFF" fill="none"/>
  <path d="m90.98445,43.40242c0.17271,0 0.86356,0 1.89983,0c0.34542,0 0.4927,0.0299 0.69085,0.17271c0.31329,0.22581 0.63789,0.42466 0.86356,0.51814c0.15957,0.06609 0.51814,0.17271 0.69085,0.34542l0.17271,0.17271l0.17271,0.17271" id="svg_13" fill-opacity="0" stroke="#B1FFFF" fill="none"/>
  <path d="m98.06563,44.43869c0.51814,0.34542 0.69084,0.51814 0.86356,0.69085c0.34542,0.34542 0.70399,0.27933 0.86356,0.34542c0.22566,0.09347 0.39601,0.05059 0.51814,0.17271c0.12212,0.12212 0.05059,0.2233 0.17271,0.34542c0.12212,0.12212 0.2233,0.05059 0.34542,0.17271c0.12212,0.12213 0.34542,0 0.34542,0.34542c0,0.17271 0,0.34542 0,0.51814c0,0.17271 0.05059,0.2233 0.17271,0.34542c0.12212,0.12212 0,0.34542 0.17271,0.34542l0,0.17271l-0.17271,0" id="svg_14" fill-opacity="0" stroke="#B1FFFF" fill="none"/>
  <path d="m111.36442,58.94646c0,0.17271 -0.02139,0.69847 0.17271,1.20898c0.46744,1.22947 1.00098,2.26099 1.55441,3.45423c0.64996,1.40139 1.23008,2.84791 2.24525,4.4905c0.454,0.73459 0.92335,1.33083 1.20898,1.72712c0.22581,0.31329 0.16727,0.58931 0.51814,1.20898c0.12035,0.21255 0.34542,0.51813 0.34542,0.69084c0,0.17271 0,0.34542 0,0.51814c0,0.17271 0.07008,0.39052 -0.17271,0.69085c-0.69524,0.86002 -2.09933,1.24784 -5.00864,1.89983c-1.92155,0.43063 -3.3038,0.53748 -5.00864,0.86356c-1.23498,0.23621 -2.42938,0.45982 -3.45423,0.69085c-1.22658,0.27651 -2.24525,0.51814 -3.10881,1.03627l-0.34542,0.17271l-0.17271,0.17271l-0.17271,0.17271" id="svg_15" fill-opacity="0" stroke="#B1FFFF" fill="none"/>
  <path d="m107.56476,64.81865c0,0.17271 0.08594,1.7143 0.17271,2.59068c0.06808,0.68748 -0.04221,1.21156 0,1.55441c0.08701,0.70677 0.17271,0.86356 0,0.86356c-0.17271,0 -0.35857,0.10662 -0.51814,0.17271c-0.22565,0.09347 -0.47687,0.24454 -1.03627,0.51814c-0.49062,0.23996 -1.0027,0.42287 -1.72711,0.69084c-0.66788,0.24706 -1.2179,0.06205 -1.89983,0.17271c-1.07821,0.17497 -1.35125,0.42941 -1.72711,0.51814c-0.33618,0.07936 -0.51814,-0.00001 -0.69085,0.17271c-0.17271,0.17271 0.00223,0.20038 0.17271,0.17271c0.53911,-0.08749 0.83311,-0.25669 1.20898,-0.34542c0.16808,-0.03968 0.50676,-0.19764 0.86356,-0.34543c0.50459,-0.20901 1.19305,-0.25842 1.89983,-0.34542c0.51425,-0.06331 0.69085,0 0.86356,0c0.17271,0 0.34543,0 0.69085,0c0.34542,0 0.69084,0 0.86356,0c0.17271,0 0.39896,0.11443 0.86356,-0.17271c0.20778,-0.12841 0.39897,-0.0583 0.86356,-0.34543c0.20776,-0.12841 0.35004,-0.13303 0.51814,-0.17271c0.37586,-0.08873 0.81268,-0.57793 1.20898,-0.86356c0.31329,-0.22581 0.39601,-0.2233 0.51814,-0.34542c0.12212,-0.12212 0.17271,-0.17271 0.34542,-0.17271c0.17271,0 0.34543,0 0.51814,0l0.17271,0.17271l0.17271,0" id="svg_16" fill-opacity="0" stroke="#B1FFFF" fill="none"/>
  <path d="m57.65112,58.25561c0.51814,0.34542 0.84081,0.56798 1.5544,0.86356c2.01835,0.83603 4.66322,1.20898 6.39033,1.72712l1.20898,0l0.34542,0.17271" id="svg_17" fill-opacity="0" stroke="#B1FFFF" fill="none"/>
  <path d="m73.02245,52.03799c0,0.17271 0,0.34542 0,1.03627c0,0.51814 -0.27927,1.85614 -0.51814,2.59067c-0.32488,0.99907 -0.72074,2.21981 -0.86356,2.41796c-0.22581,0.3133 -0.38972,0.48307 -0.51814,0.69085c-0.28713,0.46459 -0.224,0.79686 -0.69084,1.20898c-0.28953,0.25559 -0.69085,0.34542 -0.86356,0.34542c-0.17271,0 -0.34542,0 -0.51814,0c-0.17271,0 -0.52705,-0.11066 -1.20898,0c-0.53911,0.08749 -1.38169,0.34542 -1.55441,0.34542l-0.17271,0l0,0.17271" id="svg_18" fill-opacity="0" stroke="#B1FFFF" fill="none"/>
  <path d="m67.66839,63.78238c-0.17271,-0.17271 -0.34542,-0.34542 -0.34542,-0.51814c0,-0.17271 0.17814,-0.41659 -0.17271,-1.03627c-0.12035,-0.21255 -0.34542,-0.51814 -0.51814,-0.86356c-0.17271,-0.34542 -0.20037,-0.5159 -0.17271,-0.34542c0.08749,0.5391 0.42287,1.0027 0.69084,1.72712c0.24706,0.66788 0.68768,1.67737 0.86356,2.59067c0.16331,0.84798 0.17271,1.72712 0.17271,2.24525c0,0.69085 0,1.20898 0,1.55441c0,0.51814 0.19829,0.90301 0,1.3817c-0.09348,0.22565 -0.25195,0.81061 -0.34542,1.03626c-0.19828,0.47869 -0.25195,0.81062 -0.34543,1.03627c-0.13219,0.31913 0.02557,0.73029 -0.17271,1.20898c-0.09348,0.22566 -0.17271,0.34542 -0.34543,0.51814l0,0.34542l0,0.17271" id="svg_19" fill-opacity="0" stroke="#B1FFFF" fill="none"/>
  <path d="m57.30569,76.21761c0.17271,-0.17271 0.67038,-0.55099 1.20898,-0.86356c0.66805,-0.38769 1.40879,-0.61826 2.41796,-1.03627c0.7136,-0.29558 1.18852,-0.55099 1.72712,-0.86356c1.33609,-0.77537 2.5697,-0.94878 3.10881,-1.03627c0.68193,-0.11066 1.51245,-0.17046 2.59068,-0.34543c1.53433,-0.24899 2.9361,0 5.00864,0c1.89983,0 4.49285,-0.09464 6.39033,0c1.73357,0.08646 2.57785,0.25865 3.45423,0.34543c0.34374,0.03403 0.69084,0 1.03627,0c0.34542,0 0.69084,0 1.38169,0c0.17271,0 0.34542,0 0.51814,0l0.17271,0" id="svg_20" fill-opacity="0" stroke="#B1FFFF" fill="none"/>
  <path id="svg_116" d="m68.01381,69.48186l31.08808,1.20898" opacity="undefined" stroke="#000000" fill-opacity="0" fill="none"/>
  <path d="m86.32124,71.38169c0.34543,-0.34542 0.61611,-0.73977 0.86356,-1.03627c0.55332,-0.66299 1.41825,-1.15961 1.89983,-1.55441c0.37778,-0.3097 0.67038,-0.55099 1.20898,-0.86356c0.33403,-0.19385 0.69085,-0.17271 0.86356,-0.17271c0.17271,0 0.31498,0.08398 0.69084,0.17271c0.16809,0.03968 0.34542,0.17271 0.69085,0.34542c0.34542,0.17271 0.46503,0.55026 0.69084,0.86356c0.28564,0.3963 0.42467,0.46519 0.51814,0.69085c0.06609,0.15957 0,0.34542 0,0.51814c0,0.17271 -0.01315,0.41151 -0.17271,0.34542c-0.22565,-0.09347 -0.34543,-0.34542 -0.51814,-0.34542c-0.17271,0 -0.39601,-0.05059 -0.51814,-0.17271c-0.12212,-0.12212 -0.11977,-0.42466 -0.34543,-0.51814c-0.15956,-0.06609 -0.06065,0.20653 0.34543,0.86356c0.454,0.73458 1.45645,1.86571 1.89983,2.9361c0.20901,0.50459 0.39837,0.78432 0.17271,0.69084c-0.15957,-0.06609 -0.35857,-0.10661 -0.51814,-0.17271c-0.45132,-0.18694 -0.48578,-0.38115 -0.86356,-0.69085c-0.48158,-0.39479 -0.91515,-0.50925 -1.20898,-0.69085c-0.32851,-0.20303 -0.45204,-0.50499 -0.51814,-0.34542c-0.18694,0.45132 0.66871,0.87902 1.03627,1.38169c0.65276,0.8927 1.15839,1.25957 1.03627,1.38169c-0.12212,0.12212 -0.35005,0.03968 -0.51814,0c-0.37587,-0.08873 -0.9234,-0.1881 -1.55441,-0.51813c-1.62686,-0.8509 -2.41795,-2.41798 -2.9361,-2.9361c-0.17271,-0.17271 -0.27934,-0.33228 -0.34543,-0.17271c-0.18694,0.45132 -0.51813,0.51814 -0.86356,0.86356c-0.51814,0.51814 -1.04767,0.66972 -1.38169,0.86356c-0.5386,0.31256 -1.03627,0.69085 -1.20898,0.86356l0,0.17271l-0.17271,0" id="svg_21" fill-opacity="0" stroke="#B1FFFF" fill="none"/>
  <path d="m108.42832,88.65285c0,-0.17271 -0.05991,-0.67532 -0.34543,-1.89983c-0.43848,-1.88053 -0.66658,-3.62983 -0.86356,-5.18135c-0.15381,-1.21152 -0.32874,-1.73003 -0.51814,-2.76338c-0.15877,-0.86623 -0.27106,-1.57738 -0.51814,-2.24525c-0.13399,-0.36221 -0.17494,-0.5458 -0.34542,-0.51814c-0.53911,0.08749 -1.52757,0.26717 -2.59068,0.51814c-1.18858,0.28059 -2.41796,0.17271 -3.62695,0.17271c-1.5544,0 -3.45423,0 -5.18134,0c-2.41796,0 -4.14508,0 -5.87219,0c-1.38169,0 -2.9361,0 -3.97237,0c-1.20898,0 -1.87842,0.05927 -2.76339,0.34542c-0.67756,0.21909 -1.55572,0.12496 -2.41796,0.17271c-1.56158,0.08649 -2.9361,0.17271 -4.31779,0.17271c-1.55441,0 -2.7711,-0.04122 -3.79965,0.17271c-0.69719,0.145 -1.03627,0.17271 -1.38169,0.17271c-0.17271,0 -0.34543,0 -0.51814,0c-0.17271,0 -0.51814,0 -0.69085,0c-0.34542,0 -0.56873,-0.12212 -0.69085,0c-0.24425,0.24425 0,0.51814 0,0.69084c0,0.17271 0,0.69085 0,1.20898c0,0.51814 0,1.20898 0,1.55441c0,0.17271 0,0.34542 0,0.51814c0,0.17271 0,0.51814 0,0.69084c0,0.34543 -0.17271,0.51814 -0.17271,1.03627c0,0.51814 -0.25794,1.0153 -0.34543,1.55441c-0.083,0.51144 -0.02492,0.85218 -0.17271,1.20898c-0.20901,0.50459 -0.17271,0.69084 -0.17271,0.86356c0,0.34542 -0.17271,0.51814 -0.17271,0.86356c0,0.17271 0,0.34543 0,0.51814c0,0.69085 0,1.20898 0,1.55441c0,0.17271 0,0.34542 0,0.51814c0,0.51814 0,0.86356 0,1.20898c0,0.51814 -0.25669,1.00582 -0.34542,1.38169c-0.03968,0.16808 -0.12212,0.39601 0,0.51814c0.12212,0.12212 1.20037,-0.2118 1.89983,-0.34543c2.56718,-0.49044 5.69949,-0.34542 8.981,-0.34542c2.76339,0 5.52483,-0.0229 7.4266,-0.17271c2.58841,-0.2039 5.53311,-0.2889 9.67185,-0.51813c3.12315,-0.17298 5.69141,-0.77704 7.08117,-0.86356c0.51714,-0.0322 0.71714,0.13219 1.03627,0c0.22565,-0.09347 0.50676,-0.37035 0.86356,-0.51814c0.50459,-0.20901 1.02939,-0.35992 1.3817,-0.51814c0.84846,-0.38101 1.38169,-0.51814 1.72711,-0.51814c0.17271,0 0.23914,-0.03658 0.34542,-0.17271c0.43824,-0.56129 -0.17271,-1.20898 -0.34542,-2.24525c-0.17271,-1.03627 -0.17271,-1.72711 -0.17271,-2.24525c0,-0.17271 -0.05058,-0.2233 -0.17271,-0.34542c-0.12212,-0.12212 -0.34543,0 -1.20898,0l-0.69084,0.34542l-2.59068,0.69084" id="svg_24" fill-opacity="0" stroke="#B1FFFF" fill="none"/>
  <path d="m76.82211,84.50777c0,-0.17271 -0.11739,0.5226 -0.17271,0.86356c-0.08749,0.53911 -0.55424,1.72091 -0.86356,3.62695c-0.19563,1.20549 -0.43136,2.23244 -0.51814,3.10881c-0.05106,0.51562 -0.08398,1.17854 -0.17271,1.55441c-0.07936,0.33618 -0.22009,0.84369 -0.34542,1.20898c-0.2858,0.833 -0.17271,1.38169 -0.17271,1.55441c0,0.51814 0.01315,0.75694 0.17271,0.69085c0.22565,-0.09348 0.34626,-0.15569 0.51814,-0.17271c0.87637,-0.08678 4.32373,-0.25976 7.4266,-0.51814c3.11715,-0.25957 6.0449,-0.34542 8.80829,-0.34542c1.89983,0 3.97237,0 6.39033,0c1.89983,0 4.12412,0.36638 4.4905,0c0.12212,-0.12212 -0.08523,-0.49716 -0.17271,-1.03627c-0.16599,-1.02289 0.12661,-2.25302 0,-3.28152c-0.17401,-1.41355 -0.50749,-3.11003 -0.69084,-4.66322c-0.16325,-1.38284 -0.2567,-2.56023 -0.34543,-2.9361c-0.03968,-0.16809 -0.17733,-0.21239 -0.34542,-0.17271c-0.75173,0.17746 -2.07449,0.25934 -3.97237,0.34543c-1.9057,0.08644 -4.14508,0.17271 -6.73575,0.17271c-2.24525,0 -6.39033,0 -8.981,0c-2.76339,0 -4.66322,0 -6.39033,-0.17271l-0.69085,0l-0.17271,0l-0.17271,0" id="svg_25" fill-opacity="0" stroke="#B1FFFF" fill="none"/>
  <path d="m112.74611,78.80829c0.17271,0.17271 0.29247,0.25195 0.51814,0.34542c0.15956,0.06609 0.81381,0.68768 1.72711,0.86356c1.01757,0.19597 1.99678,-0.15499 2.9361,-0.51814c0.82142,-0.31757 1.56755,-0.10661 1.72712,-0.17271c0.22566,-0.09348 0.26606,-0.35467 0.34542,-0.69085c0.17746,-0.75172 0.36639,-0.94878 -0.17271,-1.03627c-0.51144,-0.083 -1.03627,0 -2.24525,0c-1.20898,0 -3.13338,-0.11037 -4.14508,0.17271c-0.89568,0.25062 -1.38169,0.69084 -1.38169,1.03627c0,0.17271 0,0.34542 0,0.51814l0.17271,0" id="svg_26" fill-opacity="0" stroke="#B1FFFF" fill="none"/>
  <path d="m112.74611,86.92573c-0.51814,-0.69084 -0.6757,-1.04156 -0.86356,-1.55441c-0.31991,-0.87333 -0.39152,-2.25301 -0.51814,-3.28152c-0.08701,-0.70677 -0.17271,-1.20898 -0.17271,-1.89983c0,-0.51814 0,-1.20898 0,-1.55441c0,-0.34542 0.05059,-0.64026 0.17271,-0.51814c0.36638,0.36638 0,0.86356 0,1.20898c0,0.17271 0,0.51814 0,0.69084c0,0.51814 0,1.3817 0,2.24525c0,0.51814 0,1.03627 0,1.55441c0,0.51814 0.13641,1.22253 0.34542,1.72711c0.14779,0.3568 0.42941,0.83311 0.51814,1.20898c0.03968,0.16808 0.11977,0.59737 0.34542,0.69084c0.31914,0.13219 1.55441,0 2.9361,0c1.55441,0 2.59068,0 3.10881,0c0.34542,0 0.51814,0 0.69085,0c0.34542,0 1.03626,0 1.38169,0c0.51814,0 0.69084,0 0.69084,-0.17271c0,-0.34543 0.08571,-1.02034 0.17271,-1.72712c0.08441,-0.68567 0,-1.72711 0,-2.76338c0,-0.86356 0,-1.72712 0,-2.07254c0,-0.86356 -0.08571,-1.53848 -0.17271,-2.24525c-0.04221,-0.34283 0,-0.51813 0,-0.86356c0,-0.34542 0,-0.69084 -0.17271,-1.20898l0,-0.17271" id="svg_27" fill-opacity="0" stroke="#B1FFFF" fill="none"/>
  <path d="m122.41795,79.67184c0.17271,0 0.34543,0 0.51814,0c0.17271,0 0.70399,-0.06609 0.86356,0c0.22566,0.09348 0.2233,0.39601 0.34543,0.51814c0.12212,0.12212 0.34542,0.34542 0.34542,0.51814c0,0.17271 0,0.34542 0,0.51814c0,0.34542 -0.0299,0.66541 -0.17271,0.86356c-0.22581,0.31329 -0.51814,0.69085 -0.86356,1.03627c-0.34542,0.34542 -0.8223,0.76268 -1.38169,1.03627c-0.49062,0.23996 -1.03627,0.34542 -1.20898,0.51814l-0.17271,0l-0.17271,0.17271" id="svg_28" fill-opacity="0" stroke="#B1FFFF" fill="none"/>
  <path d="m0.6563,80.5354c0.34542,0 1.5544,0 3.97237,0c3.28152,0 7.25389,0 11.57167,0c4.83592,0 9.84456,0 17.61658,0c4.66321,0 8.63558,0 11.74439,0c2.41796,0 4.83592,0 6.73575,0c2.41796,0 4.83593,0 5.52677,0l0.17271,0" id="svg_29" fill-opacity="0" stroke="#B1FFFF" fill="none"/>
  <path d="m106.01035,77.25388c0.17271,0 0.31499,-0.08398 0.69085,-0.17271c0.67237,-0.15873 1.03627,0 1.38169,0c0.51814,0 0.69085,0 0.86356,0c0.17271,0 0.34542,0 0.51813,0c0.17271,0 0.34543,0 0.69085,0c0.34542,0 1.03627,0 1.38169,0l0.69085,0" id="svg_30" fill-opacity="0" stroke="#B1FFFF" fill="none"/>
  <path d="m122.59067,76.56303c0.17271,0 0.29248,-0.07924 0.51814,-0.17271c1.43609,-0.59483 3.10881,0 5.00863,0c1.55441,0 2.41797,0 2.59068,0c0.17271,0 0.34541,0 0.69084,0c0.69084,0 1.20898,0 1.89983,0c2.07254,0 3.80257,0.06764 5.69948,0.17271c1.56158,0.08649 4.31062,0.43165 5.87219,0.51814c1.20714,0.06686 1.72713,0 2.07254,0c0.17271,0 0.34543,0 0.51814,0c0.17271,0 0.34541,0 0.51813,0c0.34543,0 0.56873,-0.12212 0.69086,0c0.24425,0.24426 -0.02113,0.70225 0.1727,1.03627c0.31256,0.5386 0.77608,1.0153 0.86357,1.55441c0.02766,0.17049 0.13301,0.35004 0.1727,0.51814c0.08873,0.37586 0.37532,0.31998 0.51814,0.51814c0.22581,0.31329 0.42465,0.6379 0.51813,0.86356c0.0661,0.15957 0.17271,0.34543 0.51814,0.69085c0.17271,0.17271 0.33118,0.52792 0.69084,1.03627c0.49878,0.70496 1.19826,1.38987 1.72711,2.07253c1.35455,1.74849 2.64148,3.06441 4.14508,4.83593c1.43126,1.68627 2.65025,3.23879 3.62694,4.66321c1.84283,2.68761 2.80067,4.12086 3.79967,5.69949c0.53853,0.85098 1.33789,1.92766 1.89983,2.76338c0.48186,0.71662 0.69084,1.03627 0.86356,1.20898l0.17271,0.34542" id="svg_31" fill-opacity="0" stroke="#B1FFFF" fill="none"/>
  <path d="m136.40759,44.6114c0,-0.17271 0.33243,0.35894 0.69084,0.69085c1.16832,1.08191 2.39978,2.10661 4.31779,3.10881c2.396,1.25195 4.20432,2.46511 6.39032,3.45423c1.4928,0.67546 3.48024,1.14999 4.31779,1.5544c1.25394,0.60545 2.18437,1.20424 2.9361,1.38169c0.16809,0.03968 0.39601,0.05059 0.51814,0.17271c0.12212,0.12212 0.51897,-0.15569 0.69084,-0.17271c0.87637,-0.08678 1.87598,-0.42754 2.9361,-0.69085c1.01959,-0.25324 1.8952,-0.60444 4.31779,-0.69085c1.89862,-0.06772 3.61977,-0.25893 5.18134,-0.34542c1.20714,-0.06686 2.59068,-0.17271 4.14508,-0.17271c2.07254,0 5.02115,-0.20377 7.77202,-0.51813c1.04378,-0.11928 1.20898,-0.17271 1.3817,-0.17271c0.17271,0 0.33226,0.06609 0.17271,0c-0.22566,-0.09347 -0.87816,-0.49236 -2.41797,-1.38169c-1.74414,-1.00735 -3.33704,-1.57209 -4.49049,-2.07254c-1.84773,-0.80168 -2.80125,-1.47373 -3.97237,-2.07254c-0.89665,-0.45847 -1.91338,-0.99998 -2.41797,-1.20898c-0.3568,-0.14779 -1.06076,-0.82235 -2.24525,-1.5544c-1.58914,-0.98215 -2.24524,-1.38169 -2.41795,-1.55441c-0.34543,-0.34542 -0.69084,-0.69085 -1.20898,-1.20898c-0.17271,-0.17271 -0.39601,-0.05059 -0.51813,-0.17271c-0.12213,-0.12213 -1.87071,-0.154 -4.66322,0.17271c-3.60645,0.42194 -9.1537,0.17271 -12.43523,0.17271c-2.59067,0 -5.00864,0 -6.56303,0c-1.89984,0 -3.63472,-0.12662 -4.66322,0c-0.70677,0.08701 -1.03627,0.17271 -0.86356,0.34542c1.03627,1.03627 2.26923,2.03992 3.45424,2.9361c0.88205,0.66706 1.38168,1.03627 1.5544,1.20898c0.34543,0.34542 0.34543,0.51814 0.51814,0.51814l0,0.17271l0.1727,0.17271" id="svg_38" fill-opacity="0" stroke="#7f3f00" fill="none"/>
  <path d="m154.19688,56.35578c0,0.17271 -0.13303,0.35004 -0.17271,0.51814c-0.08873,0.37587 -0.26607,0.8728 -0.34543,1.20898c-0.17746,0.75173 -0.62929,1.33653 -0.86356,2.07254c-0.68898,2.16466 -0.51587,3.41228 -0.69084,4.4905c-0.19366,1.19337 -0.19829,2.5873 -0.34543,3.79966c-0.20914,1.72308 -0.19324,2.45516 -0.51813,3.45423c-0.11943,0.36726 -0.46281,1.04073 -0.51814,1.38169c-0.08748,0.53911 -0.29536,0.87096 -0.34541,1.03627c-0.18045,0.596 -0.31776,0.69307 -0.34543,0.86356c-0.08749,0.53911 -0.17271,0.69085 -0.17271,0.86356l0,0.17271" id="svg_39" fill-opacity="0" stroke="#7f3f00" fill="none"/>
  <path d="m155.23315,54.97409c0,0.17271 0,0.51814 0,1.20898c0,1.72712 0,3.62694 0,6.04491c0,2.24525 0,3.62694 0,5.18135c0,1.20898 0,2.41796 0.17271,3.45423c0.17271,1.03627 0.25311,1.69915 0.51813,2.59068c0.25093,0.84415 0.27736,1.73048 0.34543,2.41796c0.08678,0.87637 0.32874,1.73003 0.51813,2.76338c0.15877,0.86623 0.6861,1.83895 0.86356,2.59068c0.15872,0.67236 0,0.86356 0,1.03627l0,0.17271" id="svg_41" fill-opacity="0" stroke="#7f3f00" fill="none"/>
  <path d="m150.91536,71.38169c0,0.17271 0.18539,0.67903 0.34543,0.86356c0.5658,0.65238 1.30081,1.47099 2.24525,2.24525c0.48157,0.3948 0.86356,0.51812 1.03627,0.69084c0.1727,0.17271 0.1066,0.35857 0.1727,0.51814c0.09348,0.22566 0.2233,0.39601 0.34543,0.51814c0.12213,0.12212 0.17271,0.17271 0.34543,0.17271l0,0.17271l0.17271,0" id="svg_42" fill-opacity="0" stroke="#7f3f00" fill="none"/>
  <path d="m178.37651,53.93782c0,0.34542 -0.20988,1.02533 -0.34543,1.55441c-0.47923,1.87056 -0.48763,3.45914 -0.86356,5.69948c-0.31955,1.90435 -0.85049,4.11549 -1.3817,7.42659c-0.24774,1.54423 -0.23755,3.1292 -0.51813,4.31779c-0.25096,1.0631 -0.60385,2.0566 -0.69086,2.76338c-0.08441,0.68568 0,0.86356 0,1.03627c0,0.34542 0,0.51814 -0.1727,0.69085l0,0.17271" id="svg_43" fill-opacity="0" stroke="#7f3f00" fill="none"/>
  <path d="m180.62175,52.72884c0,0.17271 0,0.69085 0.17271,1.38169c0.34543,1.38169 0.73572,2.91932 2.07254,6.56304c1.07243,2.92308 1.55441,5.35406 2.24525,7.42659c0.51814,1.55441 1.00758,3.29138 1.5544,4.83593c0.49248,1.39104 1.11859,2.66702 1.72711,4.66321c0.30634,1.00491 0.51814,1.89983 0.69086,2.41796l0.1727,0.69085l0.17271,0.69085" id="svg_44" fill-opacity="0" stroke="#7f3f00" fill="none"/>
  <path d="m175.95854,70.51814c0.17271,0.17271 0.34543,0.34543 0.51813,0.51814c0.34541,0.34543 1.42696,1.13519 2.59068,1.89983c2.16512,1.42262 2.89482,2.14437 3.45422,2.41796c0.49063,0.23996 0.70401,0.10662 0.86356,0.17271c0.22566,0.09348 0.17271,0.34543 0.34543,0.34543c0.17271,0 0.52701,0.29081 0.69084,0.34542c0.81926,0.27308 0.89569,0.63775 1.20898,0.86356c0.3963,0.28564 0.51814,0.51814 0.86356,0.51814l0.17271,0.17271l0.17271,0" id="svg_45" fill-opacity="0" stroke="#7f3f00" fill="none"/>
  <path d="m152.9879,73.79965c0.69084,0 2.22757,-0.10473 3.97237,-0.34542c2.23076,-0.30773 4.66321,-0.34543 6.39034,-0.34543c2.41795,0 4.49049,0 6.39032,0c1.55441,0 3.29507,-0.13641 3.79965,-0.34542c0.3568,-0.1478 1.03627,-0.17271 1.3817,-0.17271c0.17271,0 0.69084,0 1.03627,0c0.51813,0 1.72711,0 2.59067,0c0.86356,0 1.72713,0 2.59068,0l0.34541,0l0.17271,0" id="svg_46" fill-opacity="0" stroke="#7f3f00" fill="none"/>
  <path d="m133.98962,45.82038c-0.1727,0.34542 -0.60782,0.78725 -1.03627,1.38169c-0.90324,1.25319 -1.38168,2.59067 -1.72711,3.45423c-0.34541,0.86355 -0.57774,2.1031 -0.86356,2.9361c-0.25067,0.73058 -0.86356,1.38169 -1.20898,2.24525c-0.34541,0.86355 -0.89642,1.70665 -1.20898,2.24525c-0.38768,0.66805 -0.63775,1.24111 -0.86356,1.55441c-0.57127,0.79259 -1.03627,1.03627 -1.38169,1.72712l-0.17271,0.51814l-0.17271,0.17271l0.17271,0" id="svg_47" fill-opacity="0" stroke="#7f3f00" fill="none"/>
  <path d="m138.30742,47.37478c0,0.34542 -0.50749,2.59189 -0.69084,4.14508c-0.16325,1.38284 -0.1925,3.27966 -0.34543,5.00864c-0.19841,2.24313 -0.51813,4.14508 -0.69084,6.56304c-0.17271,2.41796 -0.34543,6.0449 -0.34543,7.77202c0,1.55441 -0.17271,2.41796 -0.17271,3.62695l-0.1727,0.69084l0,0.17271" id="svg_48" fill-opacity="0" stroke="#7f3f00" fill="none"/>
  <path d="m133.64421,44.43869c0,0.17271 0.07924,0.29247 0.17271,0.51814c0.06609,0.15956 0.41293,1.2645 1.72711,3.62694c1.28159,2.30386 2.54938,5.09827 4.66321,9.84456c1.41408,3.1751 2.61507,6.03436 3.79965,8.80829c0.88177,2.06485 1.89983,4.4905 2.07254,5.18135l0,0.34542l0,0.17271" id="svg_49" fill-opacity="0" stroke="#7f3f00" fill="none"/>
  <path d="m126.73575,58.25561c0.17271,0.51814 0.64489,1.75355 1.5544,3.28152c1.15181,1.93503 2.9361,4.49051 5.18135,7.4266l0.69084,1.03627l0.34543,0.34542" id="svg_50" fill-opacity="0" stroke="#7f3f00" fill="none"/>
  <path d="m131.39896,63.78238c0.17271,0 0.35686,0.05832 1.3817,-0.17271c2.45316,-0.55301 4.66321,-1.20898 7.25388,-1.72712c3.45424,-0.69085 6.72964,-1.25139 10.18999,-1.72712c4.13841,-0.56894 6.58751,-0.76764 8.11745,-1.20898c2.46693,-0.71164 3.71404,-1.31158 4.49049,-1.72712c0.21535,-0.11525 0.2233,-0.2233 0.34543,-0.34542c0.12213,-0.12213 0.34543,0 0.51813,0l0.17271,0" id="svg_51" fill-opacity="0" stroke="#7f3f00" fill="none"/>
  <path d="m149.36096,53.07426c0,0.69085 -0.04318,2.7833 -0.34543,4.31779c-0.24298,1.23365 -0.49763,2.42231 -0.69084,3.28152c-0.31245,1.38952 -0.60025,2.22141 -0.86356,3.28152c-0.25323,1.01958 -0.51814,2.41796 -0.51814,3.10881c0,0.86356 0,1.72711 0,2.24525l0,0.34542l0,0.17271" id="svg_52" fill-opacity="0" stroke="#7f3f00" fill="none"/>
  <path d="m156.44214,55.31952c0,0.34542 0.09309,1.05613 0.51813,2.59067c0.58315,2.10538 2.4601,6.54439 3.97237,10.01727c1.42151,3.26447 2.24525,5.35406 2.59068,6.21761l0,0.34543l0.1727,0" id="svg_53" fill-opacity="0" stroke="#7f3f00" fill="none"/>
  <path d="m147.80655,60.15544c0.34543,0 0.70343,0.32503 1.55441,0.86356c1.57861,0.999 3.47292,2.35812 5.52676,3.28152c1.14679,0.51559 2.0421,0.77483 2.41797,0.86356c0.16809,0.03968 0.29247,0.07924 0.51813,0.17271c0.15956,0.06609 0.11977,0.25195 0.34543,0.34542c0.15956,0.06609 0.34543,0.17271 0.51813,0.17271c0.17271,0 0.34543,0.17271 0.51814,0.34542l0,0.17271l0,0.17271l0.17271,0.17271" id="svg_54" fill-opacity="0" stroke="#7f3f00" fill="none"/>
  <path d="m145.90672,28.37651c0,0.17271 0.05106,0.34795 0,0.86356c-0.08678,0.87637 -0.43164,2.06537 -0.51813,3.62695c-0.08595,1.55202 0,4.14508 0,5.35406l0,0.34542l0,0.17271l0,-0.17271" id="svg_56" fill-opacity="0" stroke="#aaffff" fill="none"/>
  <path d="m146.25215,25.78584c0.17271,0 1.67569,1.12725 3.45424,2.07254c2.52448,1.34173 6.05511,2.38942 8.98099,3.45423c2.77336,1.00931 4.355,1.22952 5.35406,1.55441c0.73453,0.23886 1.5544,0.51813 2.07254,0.51813c0.34543,0 0.34543,0.17271 0.34543,0.34542c0,0.17271 -0.63028,2.26644 -1.3817,4.31779c-0.63982,1.74666 -1.13942,3.64233 -1.5544,5.35406c-0.29625,1.22196 -0.41263,1.9063 -0.51814,2.76339c-0.08701,0.70677 -0.34543,1.38169 -0.34543,1.5544c0,0.17271 -0.32684,-0.01963 -0.69084,-0.34542c-0.82404,-0.73754 -1.99577,-1.53688 -3.97237,-2.41796c-2.84386,-1.26767 -6.73575,-2.41796 -10.18999,-3.45423l-2.9361,-1.20898l-2.07253,-0.86356l-0.51814,-0.17271" id="svg_57" fill-opacity="0" stroke="#aaffff" fill="none"/>
  <path d="m2.03799,38.39378c-0.17271,0 -0.01753,0.35892 0.51813,1.03627c0.83673,1.05805 1.79646,2.18445 3.45423,4.14508c1.98544,2.34817 3.92706,4.35879 5.18135,5.69948c1.50182,1.60527 3.10881,2.9361 3.62694,3.45423c0.17271,0.17271 0.04221,0.69343 0,1.03627c-0.08701,0.70677 -0.45648,1.70654 -0.69085,3.28152c-0.33144,2.22736 -0.51814,3.79965 -0.86356,5.69948l-0.34542,1.5544l0,0.86356l-0.17271,0.17271" id="svg_58" fill-opacity="0" stroke="#ffaa56" fill="none"/>
  <path d="m15.68221,50.6563c0.17271,0 0.51813,-0.17271 0.86356,-0.17271c1.72712,0 3.45423,0 5.18135,0c2.24525,0 4.31779,0 5.35406,0.17271l0,0.17271" id="svg_59" fill-opacity="0" stroke="#ffaa56" fill="none"/>
  <path d="m25.35406,49.1019c0,-0.17271 -0.51814,-0.69085 -0.86356,-0.86356c-0.34542,-0.17271 -1.36749,-1.39312 -3.45423,-3.97237c-1.54394,-1.90834 -2.62941,-2.90788 -3.62694,-4.31779c-0.71933,-1.0167 -1.03627,-1.72712 -1.38169,-2.24525l0,-0.17271l0,0.17271l0,0.17271" id="svg_60" fill-opacity="0" stroke="#ffaa56" fill="none"/>
  <path d="m23.62694,51.86528c0,0.34542 0.08199,1.39627 -0.17271,2.59067c-0.26223,1.22971 -0.43136,2.23243 -0.51813,3.10881c-0.05106,0.51561 0.00223,0.71851 0.17271,0.69085c0.53911,-0.08749 0.84298,-0.28377 2.41796,-0.51814c2.22736,-0.33144 4.14508,-0.17271 7.4266,-0.17271c2.9361,0 6.39567,0.17171 9.15371,0c2.77951,-0.17305 4.05161,-0.29248 4.14508,-0.51814c0.06609,-0.15957 -0.2006,-1.89449 -0.51814,-3.62695c-0.1894,-1.03335 -0.17271,-1.72712 -0.17271,-2.07254c0,-0.17271 0,-0.51814 0.17271,-0.51814c0.17271,0 1.03627,0.17271 1.89983,0.17271c0.86356,0 1.72712,-0.17271 2.41796,-0.17271c0.86356,0 1.7143,-0.08593 2.59067,-0.17271c0.51561,-0.05106 0.74143,-0.12213 0.86356,0c0.24425,0.24425 -0.08614,0.85435 -0.17271,2.07254c-0.13468,1.89505 0,4.66321 0,6.56304c0,1.03627 0,2.24525 0,3.28152c0,1.20898 -0.17271,2.41796 -0.17271,3.10881c0,0.86356 -0.08593,1.36888 -0.17271,2.24525c-0.08509,0.85935 0,1.72711 0,2.9361c0,0.86356 0,1.55441 0,2.07254c0,0.34542 0,0.51814 0,0.86356c0,0.17271 0,0.34542 -0.17271,0.17271l0,-0.17271" id="svg_61" fill-opacity="0" stroke="#ffaa56" fill="none"/>
  <path d="m44.35233,49.79274c-0.17271,-0.17271 -0.48254,-0.87866 -0.86356,-1.72712c-0.94925,-2.11382 -2.56819,-4.67723 -4.83592,-8.29015c-1.19716,-1.9073 -2.13827,-3.06789 -2.76339,-4.14508c-0.19384,-0.33402 -0.69085,-0.69085 -1.03627,-0.86356l-0.17271,-0.17271l-0.34542,-0.34542l-0.17271,0" id="svg_62" fill-opacity="0" stroke="#ffaa56" fill="none"/>
  <path d="m50.05181,46.51122c-0.17271,-0.51814 -0.65005,-1.23412 -1.72712,-2.9361c-1.332,-2.10482 -2.94983,-4.3073 -4.66322,-6.56304c-1.04467,-1.37535 -2.29937,-3.07406 -3.28152,-4.66321c-0.73205,-1.18449 -1.09456,-1.95337 -1.38169,-2.41796c-0.12841,-0.20777 -0.18586,-0.06609 -0.34542,0c-0.22566,0.09347 -0.31746,0.25311 -1.20898,0.51814c-0.84415,0.25094 -1.892,0.37839 -3.28152,0.69085c-3.43682,0.77282 -5.71014,0.99208 -7.94473,1.5544c-1.90968,0.48056 -4.13116,1.09074 -6.73575,1.72712c-3.09364,0.75587 -6.04527,0.68512 -8.80829,0.86356c-2.59103,0.16734 -6.73893,0.14073 -8.63558,0.34542c-1.38441,0.14941 -2.76338,0.34542 -3.45423,0.51814l-0.17271,0l0.17271,0" id="svg_63" fill-opacity="0" stroke="#ffaa56" fill="none"/>
  <path d="m10.67357,66.89119c0.17271,0 0.70148,-0.12614 1.5544,-0.34542c3.33288,-0.85683 10.36307,-1.88793 16.06217,-2.07254c5.00899,-0.16225 9.49914,-0.17271 13.29879,-0.17271c2.76339,0 4.46952,-0.08523 5.00864,-0.17271c0.17048,-0.02766 0.34542,0 0.51813,0c0.17271,0 0.34542,0 0.69085,0c0.17271,0 0.34542,0 0.51814,0l0.17271,0" id="svg_64" fill-opacity="0" stroke="#ffaa56" fill="none"/>
  <path d="m-1.58895,72.41796c-0.34542,0.34542 1.38169,0.34542 5.87219,0.34542c6.0449,0 12.78066,0 19.3437,0c5.35406,0 9.84398,-0.01327 13.64421,-0.17271c4.48987,-0.18839 7.4266,-0.51814 10.18998,-0.69084l1.89983,0l1.20898,0l0.34542,0" id="svg_65" fill-opacity="0" stroke="#ffaa56" fill="none"/>
  <path d="m0.82901,26.99482c1.89983,0 6.56304,0 11.05354,0c4.4905,0 9.50238,0.07462 14.33506,-0.17271c5.18606,-0.26541 10.01727,-0.34542 14.68048,-0.34542c4.4905,0 7.94473,0 10.5354,0c1.55441,0 2.41796,0 2.59067,0c0.51814,0 1.72853,-0.06261 3.10881,0c1.9057,0.08644 3.45423,0.17271 4.66321,0.17271l0.69085,0l0.17271,0" id="svg_66" fill-opacity="0" stroke="#ffaa56" fill="none"/>
  <path d="m104.97409,28.03109c0.17271,0 0.34542,0 2.41796,0c1.72711,0 3.45423,0 5.35406,0c2.07254,0 4.31779,0 6.21761,0c2.24525,0 3.97237,0 5.35406,0c0.69085,0 1.03627,0 1.03627,-0.34542c0,-0.17271 0,-0.51814 0,-0.69085c0,-1.38169 0,-2.59067 0,-3.45423c0,-1.72712 0.17271,-3.28152 0.17271,-4.83592c0,-1.38169 0.05541,-2.93709 0,-4.4905c-0.08641,-2.42258 -0.08831,-3.11398 -0.17271,-3.79965c-0.08701,-0.70677 -0.17271,-1.20898 -0.17271,-1.38169c0,-0.17271 0,-0.34542 0,-0.86356c0,-0.69085 0,-1.5544 0,-3.45423c0,-1.72712 0.17271,-3.45423 0.17271,-3.79965l0,-0.17271" id="svg_67" fill-opacity="0" stroke="#ffaa56" fill="none"/>
  <path d="m22.93609,1.43351c0,0.17271 -0.1178,2.07316 -0.17271,4.4905c-0.08638,3.8026 -0.51814,8.11744 -0.51814,12.78066c0,6.56304 0,9.49914 0,11.22625c0,0.69085 0,0.51814 0,0.34542l0.17271,-0.34542" id="svg_68" fill-opacity="0" stroke="#ffaa56" fill="none"/>
  <path d="m45.21589,1.95164c0.17271,0.17271 0.30869,0.69215 0.34542,1.20898c0.17315,2.43637 0.78969,5.51941 1.03627,9.49914c0.28857,4.65748 0.34542,8.80829 0.34542,11.9171l0,1.72712l0,0.69085" id="svg_69" fill-opacity="0" stroke="#ffaa56" fill="none"/>
  <path d="m0.31088,13.52331c0.17271,0 1.03627,0 5.00864,0c4.14508,0 9.49914,0 15.54404,0c6.39033,0 13.4715,0 20.37996,0c7.08118,0 13.81054,-0.2536 19.86183,-0.69085c5.86705,-0.42393 12.26699,-0.74867 22.62522,-1.20898c6.22106,-0.27646 10.69935,-0.62136 14.16235,-0.86356c4.31071,-0.30148 9.14912,-0.5899 13.98964,-0.86356c4.14205,-0.23417 6.73575,-0.17271 8.80829,-0.17271c0.86356,0 2.41681,-0.00947 3.79965,-0.17271c1.55318,-0.18335 2.41796,-0.17271 3.10881,-0.17271c0.51813,0 0.69084,0 0.86356,0l0,-0.17271" id="svg_70" fill-opacity="0" stroke="#ffaa56" fill="none"/>
  <path d="m70.08635,0.56995c0,0.17271 -0.08629,0.51316 -0.17271,2.76339c-0.10605,2.76135 0,7.4266 0,9.84456c0,1.38169 0,2.41796 0,2.9361c0,0.51814 0,0.86356 0,1.20898c0,0.17271 0,0.34542 0,0.51814c0,0.17271 0,0.51814 0,0.69085c0,0.17271 0,0.34542 0,0.51814c0,0.17271 -0.07936,0.8728 0,1.20898c0.08873,0.37586 0.17271,1.03627 0.17271,1.38169c0,0.17271 -0.06609,0.35857 0,0.51814c0.09348,0.22566 0.2567,0.31498 0.34543,0.69085c0.03968,0.16809 0.17271,0.34542 0.17271,0.51814l0,0.17271l0,0.17271l0.17271,0" id="svg_72" fill-opacity="0" stroke="#ffaa56" fill="none"/>
  <path d="m93.74783,-0.81175c-0.17271,0.69085 -0.17271,2.07254 -0.34542,4.14508c-0.34542,4.14508 -0.34542,7.25389 -0.34542,9.84456c0,2.24525 0,3.97237 0.17271,5.52677l0,1.03627l0,0.51814l0.17271,0" id="svg_73" fill-opacity="0" stroke="#ffaa56" fill="none"/>
  <path d="m112.22797,-0.1209c-0.34542,0.86356 -0.90527,1.89114 -1.20898,3.45423c-0.40076,2.06255 -0.86356,5.18135 -0.86356,6.56304c0,1.38169 0.08619,2.75532 0.17271,4.14508c0.08585,1.37902 0,2.59067 0,3.79965c0,0.86356 0,1.38169 0,1.5544c0,0.17271 0,0.34542 0,0.51814c0,0.17271 0,0.34542 0,0.51814l0,0.17271l0,0.17271" id="svg_74" fill-opacity="0" stroke="#ffaa56" fill="none"/>
  <path d="m128.11743,2.64249c-0.34542,0.51813 -0.70594,1.00068 -1.5544,1.38169c-1.40921,0.63283 -2.53474,1.36978 -4.31779,1.89983c-1.6883,0.50188 -4.65512,0.91174 -7.59931,1.38169c-3.61797,0.5775 -8.11745,1.20898 -14.16235,2.24525l-12.08981,2.07254" id="svg_75" fill-opacity="0" stroke="#ffaa56" fill="none"/>
  <path d="m128.80829,2.29706c0,0.51813 0.41132,1.75678 1.03627,3.79965c1.18274,3.86621 2.55502,6.33639 3.1088,7.94473c0.23183,0.67332 0.17401,0.88466 0.34543,0.86356c0.70677,-0.08701 1.20898,-0.17271 1.89983,-0.17271c1.89983,0 3.94673,0.17187 5.69948,0.34542c0.17188,0.01702 0.87733,-0.32857 1.72713,-1.03627c2.63434,-2.19385 7.86746,-6.71084 11.39896,-8.46287c3.04759,-1.51195 4.71675,-2.13083 5.18135,-2.41796c0.20778,-0.12841 0.17271,-0.34542 0.17271,-0.51813l0,-0.17271" id="svg_78" fill-opacity="0" stroke="#ffffaa" fill="none"/>
  <path d="m133.29878,15.25043c-0.17271,0.17271 -0.42506,0.88286 -0.86356,2.76338c-0.28552,1.22451 -0.35603,2.4165 -0.51813,3.62694c-0.18481,1.38013 -0.14633,2.07968 -0.34543,2.76339c-0.15269,0.52438 -0.29485,0.91414 -0.17271,1.03627c0.12213,0.12213 0.34564,0.0086 0.51814,0c1.73357,-0.08646 3.61977,-0.43165 5.18134,-0.51814c1.20714,-0.06686 1.55441,0 1.72713,0c0.34541,0 0.69084,0 1.03625,0c0.51814,0 0.86383,-0.00955 1.03627,0c1.56158,0.08649 2.24525,0.34542 2.41797,0.34542c0.17271,0 0.17271,-0.17271 0.17271,-0.34542c0,-0.86356 -0.00874,-1.92899 -0.51814,-4.31779c-0.52446,-2.45942 -1.38168,-4.4905 -2.07254,-6.21762l-0.1727,-0.69085l0,-0.17271" id="svg_79" fill-opacity="0" stroke="#ffffaa" fill="none"/>
  <path d="m134.50777,26.82211c-0.34543,0.17271 -1.25806,1.16255 -2.07254,2.07254c-0.73753,0.82403 -1.39528,1.71643 -2.07254,2.59067c-0.52885,0.68267 -1.56601,2.69819 -2.76338,4.31779c-1.38133,1.86843 -2.91889,3.29542 -4.31779,5.00863c-0.85316,1.04485 -1.03627,1.55441 -1.03627,1.72712l0.51814,-0.51814l1.5544,-1.72712" id="svg_80" fill-opacity="0" stroke="#ffffaa" fill="none"/>
  <polyline stroke-linecap="round" id="svg_87" points="136.40759244561195,25.785836070775986 136.40759244561195,25.95854763686657 136.40759244561195,26.649393901228905 136.40759244561195,28.549221128225327 136.40759244561195,30.44904835522175 136.40759244561195,32.176164016127586 136.40759244561195,33.73056811094284 136.40759244561195,35.284972205758095 136.40759244561195,36.49395316839218 136.40759244561195,37.70293413102627 136.40759244561195,38.3937803953886 136.40759244561195,38.56649196147919 136.40759244561195,38.73920352756977 " opacity="NaN" fill-opacity="0" stroke="#ff7f00" fill="none"/>
  <path d="m146.07944,24.92228c0,0.69085 0,1.72712 0,2.76339c0,0.86356 0,2.07254 0,3.28152l0,1.20898l0,0.17271" id="svg_81" fill-opacity="0" stroke="#ffffaa" fill="none"/>
  <path d="m141.93436,27.51295c0,-0.17271 0.61536,0.28158 1.3817,1.55441c0.996,1.65428 1.89983,3.79966 2.07254,4.66321l0,0.51814l0,0.17271l0,0.17271" id="svg_82" fill-opacity="0" stroke="#ffffaa" fill="none"/>
  <path d="m142.62521,24.57685c0,0.69085 0,1.38169 0,1.89983l0,0.69085l-0.34543,0.86356" id="svg_83" fill-opacity="0" stroke="#ffffaa" fill="none"/>
  <path d="m127.94473,3.85147c0.34542,0.69085 1.26339,1.85523 2.24525,3.10881c0.91612,1.16965 1.85313,2.45748 2.59068,3.28152c0.32579,0.36399 0.396,0.56872 0.51813,0.69085c0.12213,0.12213 0.25894,-0.16554 0.34543,-1.72712c0.12416,-2.24181 0.16978,-4.67815 -0.17271,-7.59931c-0.3472,-2.96118 -0.864,-4.47826 -1.03627,-4.4905c-1.21819,-0.08658 -0.60199,5.03092 -0.17271,9.15371c0.34729,3.33542 0.69543,5.5094 1.3817,5.69948c0.2354,0.0652 0.16853,-0.34703 1.03627,-2.59067c1.2032,-3.11105 3.15219,-6.88293 4.66321,-9.49914c0.88933,-1.5398 1.20898,-2.07254 1.20898,-1.20898c0,2.76339 0,5.52677 0,7.25389c0,0.51813 0.02043,0.77234 0.17271,0.69085c0.54903,-0.29384 1.97186,-2.52378 4.14507,-4.4905c1.82004,-1.64711 3.44392,-2.70459 3.28152,-2.76339c-5.07341,-1.83682 -7.98439,8.93595 -12.78065,10.88083c-3.0368,1.23142 -3.6593,1.17326 -3.28152,0.86356c0.48158,-0.3948 2.39194,-1.59678 5.18135,-3.28152c8.21539,-4.96189 13.06194,-8.13642 17.27116,-9.67185c1.4959,-0.54567 1.68282,-0.38048 1.5544,-0.17271c-0.28714,0.46459 -0.54993,1.84481 -2.59067,4.14508c-3.24193,3.65422 -5.78307,5.81526 -6.04491,7.59931c-0.02509,0.17088 0.53134,0.26594 2.07254,0c2.97235,-0.5129 6.04491,-1.38169 9.32642,-1.5544l1.89983,0l0.17271,0" id="svg_86" fill-opacity="0" stroke="#ffffaa" fill="none"/>
  <path d="m135.02589,37.01209c-0.1727,0 -0.69084,0 -0.86356,0c-0.17271,0 -0.34541,0 -0.51813,0c-0.17271,0 -0.34543,0 0.17271,0c0.1727,0 0.34541,0 0.69084,0c0.69084,0 1.3817,0 1.89983,0c0.86356,0 1.03627,0 1.20898,0c0.17271,0 0.34541,0 0.51813,0l0.17271,0" id="svg_90" fill-opacity="0" stroke="#ff7f00" fill="none"/>
  <path d="m122.59067,61.88255c0.34542,-0.69085 0.82473,-1.74372 1.72711,-3.79966c0.99386,-2.26434 1.99881,-5.21705 3.28152,-7.77202c1.14415,-2.27897 2.08514,-3.44644 2.9361,-4.83593c0.52596,-0.85881 0.91714,-1.50586 1.3817,-2.07254c0.39479,-0.48158 0.89301,-1.00841 1.38168,-1.55441c0.73753,-0.82403 1.01514,-1.39309 1.20898,-1.72712c0.31256,-0.5386 0.3243,-0.87496 0.51813,-1.20898c0.31256,-0.5386 0.34543,-0.69085 0.34543,-0.86356c0,-0.17271 0,-0.34542 -0.17271,-0.34542l0,-0.17271" id="svg_91" fill-opacity="0" stroke="#ff7f00" fill="none"/>
  <path d="m137.78929,59.46459c0,-0.34542 -0.01205,-0.5162 -0.17271,-1.55441c-0.18675,-1.20689 -0.27628,-3.78371 -0.51814,-5.69948c-0.30363,-2.40503 -0.25899,-4.48512 -0.34541,-6.56304c-0.05025,-1.20794 0,-2.07254 0,-2.41796l-0.17271,-0.51814l0,-0.17271" id="svg_92" fill-opacity="0" stroke="#ff7f00" fill="none"/>
  <path d="m144.87045,58.25561c-0.1727,-0.51814 -0.50594,-1.90338 -0.86356,-3.10881c-0.66814,-2.25211 -1.20897,-3.79965 -1.5544,-4.83592c-0.34543,-1.03627 -0.69084,-1.72712 -0.86356,-2.07254l0,-0.17271l0,-0.17271" id="svg_93" fill-opacity="0" stroke="#ff7f00" fill="none"/>
  <path d="m139.17097,42.02072c-0.17271,-0.17271 -0.68011,-1.04444 -1.20898,-1.72712c-0.67728,-0.87424 -1.29758,-1.48428 -1.5544,-1.89983c-0.28714,-0.46459 -0.51813,-1.03627 -0.86356,-1.72712l-0.17271,-0.51814l0,-0.17271" id="svg_94" fill-opacity="0" stroke="#ff7f00" fill="none"/>
  <path d="m136.23488,40.46632c-0.17271,-0.17271 -0.42465,-0.46519 -0.51813,-0.69085c-0.19829,-0.47869 -0.17271,-1.03627 -0.17271,-1.72712c0,-0.34542 0,-0.51814 0,-0.69085l0.17271,0" id="svg_96" fill-opacity="0" stroke="#ff7f00" fill="none"/>
  <path id="svg_105" d="m72.50431,54.80138l24.87046,1.20898" opacity="undefined" stroke="#000000" fill-opacity="0" fill="none"/>
  <path id="svg_109" d="m72.84974,52.90155l24.87046,1.20898" opacity="undefined" stroke="#000000" fill-opacity="0" fill="none"/>
  <path id="svg_110" d="m72.3316,58.0829l24.87046,1.20898" opacity="undefined" stroke="#000000" fill-opacity="0" fill="none"/>
  <path id="svg_111" d="m72.50431,54.80138l24.87046,1.20898" opacity="undefined" stroke="#000000" fill-opacity="0" fill="none"/>
  <path id="svg_112" d="m68.01381,60.84628l31.08808,1.20898" opacity="undefined" stroke="#000000" fill-opacity="0" fill="none"/>
  <path id="svg_113" d="m68.18652,63.09153l31.08808,1.20898" opacity="undefined" stroke="#000000" fill-opacity="0" fill="none"/>
  <path id="svg_114" d="m68.01381,65.5095l31.08808,1.20898" opacity="undefined" stroke="#000000" fill-opacity="0" fill="none"/>
  <path id="svg_115" d="m68.01381,60.84628l31.08808,1.20898" opacity="undefined" stroke="#000000" fill-opacity="0" fill="none"/>
  <path id="svg_117" d="m59.37824,56.35578l12.26252,1.03627" opacity="undefined" stroke="#000000" fill-opacity="0" fill="none"/>
  <path id="svg_118" d="m60.06908,54.45596l12.26252,1.03627" opacity="undefined" stroke="#000000" fill-opacity="0" fill="none"/>
  <path id="svg_119" d="m60.24179,52.55613l12.26252,1.03627" opacity="undefined" stroke="#000000" fill-opacity="0" fill="none"/>
  <path id="svg_120" d="m60.06909,49.79274l42.48704,1.38169" opacity="undefined" stroke="#000000" fill-opacity="0" fill="none"/>
  <path id="svg_121" d="m65.94127,46.68394l12.26252,1.03627" opacity="undefined" stroke="#000000" fill-opacity="0" fill="none"/>
  <path id="svg_122" d="m89.25734,47.02936l6.56304,1.20898" opacity="undefined" stroke="#000000" fill-opacity="0" fill="none"/>
 </g>

</svg>