<?xml version="1.0" encoding="UTF-8" standalone="no"?>
<!-- Created with Inkscape (http://www.inkscape.org/) -->

<svg
   width="136.60664mm"
   height="110.10078mm"
   viewBox="0 0 136.60664 110.10078"
   version="1.1"
   id="svg1"
   inkscape:export-filename="bitmap.png"
   inkscape:export-xdpi="9.3133335"
   inkscape:export-ydpi="9.3133335"
   xmlns:inkscape="http://www.inkscape.org/namespaces/inkscape"
   xmlns:sodipodi="http://sodipodi.sourceforge.net/DTD/sodipodi-0.dtd"
   xmlns="http://www.w3.org/2000/svg"
   xmlns:svg="http://www.w3.org/2000/svg">
  <sodipodi:namedview
     id="namedview1"
     pagecolor="#ffffff"
     bordercolor="#000000"
     borderopacity="0.25"
     inkscape:showpageshadow="2"
     inkscape:pageopacity="0.0"
     inkscape:pagecheckerboard="0"
     inkscape:deskcolor="#d1d1d1"
     inkscape:document-units="mm" />
  <defs
     id="defs1" />
  <g
     inkscape:groupmode="layer"
     id="layer2"
     inkscape:label="Layer 2"
     transform="translate(-30.923177,-2.7186972)">
    <path
       id="path8"
       style="fill:#800000;stroke-width:0.109128"
       d="M 70.511975,2.7186971 A 11.044052,11.383867 0 0 0 59.468205,14.102498 11.044052,11.383867 0 0 0 70.511975,25.4863 11.044052,11.383867 0 0 0 71.251982,25.43204 c 0.141766,-0.09194 0.294367,-0.182985 0.471805,-0.277502 1.586845,-0.692599 3.241772,-1.19273 4.922181,-1.600936 A 11.044052,11.383867 0 0 0 81.556262,14.102498 11.044052,11.383867 0 0 0 70.511975,2.7186971 Z m 1.595252,4.7196086 c 1.382318,0.019988 2.011737,0.866945 1.793172,1.7352946 0.961802,0.5361574 1.872298,1.1849577 2.669087,1.9440677 1.195772,1.433252 1.442,2.46535 1.045415,4.312398 -0.670264,1.894202 -1.695898,3.365078 -3.143478,4.758366 -0.263774,0.220043 -0.510024,0.463052 -0.791166,0.660425 -1.255565,0.88145 -2.835645,1.365448 -4.365625,0.970483 -0.385022,-0.0994 -0.733739,-0.306247 -1.100708,-0.459403 -1.603997,-1.219271 -2.110408,-2.144909 -2.503723,-4.086573 -0.02106,-0.122526 -0.0385,-0.245466 -0.05684,-0.368453 -0.468065,-0.184986 -0.918231,-0.453846 -1.352889,-0.837158 -0.169687,-0.183744 -0.360126,-0.349903 -0.509013,-0.550871 -0.97915,-1.32165 -0.93413,-2.956177 5.17e-4,-4.28656 1.009187,-1.3354178 2.258968,-2.4811417 3.934643,-2.8778602 0.331581,-0.065352 0.662744,-0.1129549 0.993221,-0.1415935 0.789382,-0.3987619 1.675959,-0.5284123 2.535246,-0.6924642 0.309781,-0.059142 0.594141,-0.083829 0.852145,-0.080098 z" />
  </g>
  <g
     inkscape:label="Layer 1"
     inkscape:groupmode="layer"
     id="layer1"
     transform="translate(-30.923177,-2.7186972)">
    <path
       id="path7"
       style="fill:#6bc5eb;fill-opacity:1;stroke-width:0.264583"
       d="M 94.085213,85.989067 C 74.09913,86.145921 52.108618,92.855033 30.923177,112.47944 l 136.606653,0.34003 c 0,0 -32.52073,-27.151581 -73.444617,-26.830403 z m -7.80004,5.084444 c 2.644285,0.0028 5.288601,0.0047 7.932849,0.02067 1.857316,0.01523 3.715302,0.03222 5.570719,0.125057 2.653179,0.132693 5.305099,0.309966 7.946799,0.594279 3.24869,0.376951 6.47156,0.915979 9.70225,1.420069 1.96619,0.334939 3.93037,0.66642 5.86838,1.141532 1.64526,0.388424 3.31403,0.735019 4.8705,1.414384 0.24769,0.122857 0.50149,0.251876 0.75396,0.379822 0.26723,0.02911 0.53504,0.05174 0.8015,0.08888 1.84543,0.312292 3.64097,0.805043 5.30562,1.686202 1.86432,0.96569 3.73199,1.937698 5.52421,3.032894 0.55585,0.0127 1.12268,0.0326 1.38596,0.0682 0.37185,0.0503 0.73137,0.16777 1.0971,0.25167 1.18158,0.48773 1.97989,1.21405 1.85828,2.63653 0.85522,0.45547 1.72906,0.79421 2.68201,0.99529 0.51891,0.19166 1.63129,0.51484 1.62729,1.21284 -0.0141,2.63132 -1.36482,2.60433 -3.07682,2.59933 h -8.95139 c -3.30674,0 -6.6136,-2e-5 -9.92032,0 -3.93931,2e-5 -7.87858,-8e-5 -11.81789,0 -4.70792,1.1e-4 -9.41576,3.8e-4 -14.12368,0.001 -2.01981,3.8e-4 -4.039775,0.002 -6.059581,0.002 0.0016,0.0968 7.42e-4,0.19367 0.0031,0.29042 -1.089361,0.0831 -2.196202,0.29104 -3.292823,0.22324 -0.323916,-0.02 -0.644169,-0.0783 -0.966349,-0.11731 -0.443537,-0.1095 -0.909064,-0.24159 -1.370459,-0.39429 -1.366633,6.9e-4 -2.733374,5.2e-4 -4.100008,0.002 -5.006966,0.005 -10.013879,0.007 -15.020789,0.0336 -4.893129,0.0294 -9.786348,0.0683 -14.67869,0.16485 -3.39618,0.0757 -6.806922,0.0925 -10.188526,0.43512 l -5.16e-4,-5.2e-4 c -2.958086,0.29974 -3.589,-2.29782 -1.386479,-3.14296 -0.774624,-0.97544 -0.271031,-2.19572 0.266134,-3.1688 0.15055,-0.20787 0.285944,-0.42774 0.451652,-0.62373 0.84166,-0.9955 2.020467,-1.62727 3.12384,-2.27997 1.644709,-0.888563 3.286603,-1.789076 5.022432,-2.491838 1.643705,-0.666675 3.328733,-1.18318 5.034835,-1.666049 2.181768,-0.6973 4.381387,-1.334849 6.56084,-2.040185 2.274763,-0.7389 4.558701,-1.483262 6.913273,-1.926497 2.502589,-0.38655 5.016999,-0.694401 7.545276,-0.854729 2.368233,-0.07819 4.735449,-0.154554 7.10551,-0.112654 z m -14.292151,4.362007 c -0.04242,0.0086 -0.08423,0.01965 -0.126608,0.02842 0.0375,-0.0036 0.07515,-0.0057 0.112655,-0.0093 0.005,-0.0064 0.0089,-0.0127 0.01395,-0.01912 z m -21.433834,7.272422 c -0.04111,0.0222 -0.08242,0.044 -0.123507,0.0662 0.0456,-0.0121 0.09085,-0.0255 0.136426,-0.0377 -0.0033,-0.008 -0.0097,-0.0207 -0.01292,-0.0284 z m 96.775492,2.36678 c -0.0681,-0.0401 -0.24436,0.022 -0.45424,0.26769 0.44844,-0.0202 0.54549,-0.21392 0.45424,-0.26769 z m -100.087951,0.14883 c -0.03464,0.0884 -0.07713,0.17683 -0.0739,0.20051 0.0082,0.0597 0.09562,-0.10068 0.08372,-0.15968 -0.0028,-0.0137 -0.007,-0.0272 -0.0098,-0.0408 z" />
    <path
       id="path7-7"
       style="fill:#6bc5eb;fill-opacity:1;stroke-width:0.262722"
       d="m 102.57979,14.319539 c -10.518332,0.01923 -24.219207,4.950287 -42.059453,17.542599 l 76.600493,44.972449 c 0,0 3.02437,-62.583739 -34.54104,-62.515048 z m -2.48926,5.863725 c 0.42648,0.01477 0.7883,0.104351 1.09347,0.249081 3.11135,-0.480017 3.70452,2.468474 0.98134,3.24993 -0.59016,1.979388 -1.47575,3.861946 -2.489254,5.659086 -1.212076,2.036218 -2.57389,4.522622 -4.867919,5.490621 -0.147681,0.06232 -0.302885,0.09907 -0.460438,0.129708 -0.202847,0.140371 -0.409955,0.272753 -0.639237,0.359151 -0.747481,0.281677 -1.78933,-0.0686 -2.705261,-0.489892 C 88.936834,34.285781 87.040373,33.095668 84.998429,32.498275 82.092796,31.44431 79.145677,30.47248 76.068742,30.062248 74.699493,29.848433 73.316686,29.62932 72.00284,29.17548 c -0.545787,-0.267542 -1.575271,-0.75312 -1.630391,-1.472261 -0.121076,-1.579708 0.294052,-1.985493 1.351338,-2.548682 1.7616,-0.768872 3.605103,-1.307336 5.476669,-1.737878 2.807223,-0.64728 5.638212,-1.093448 8.508524,-1.358057 3.317593,-0.405356 6.619226,-0.96788 9.959082,-1.16272 0.595982,-0.0375 1.193218,-0.07256 1.790072,-0.107487 0.662258,-0.222292 1.654396,-0.565517 2.253092,-0.599963 0.131446,-0.0076 0.25778,-0.0094 0.379304,-0.0052 z m 10.44898,3.54707 c 1.22472,0.03188 2.07515,1.228126 2.5647,2.226738 0.8845,2.306631 1.22992,4.765805 1.26452,7.2316 0.0253,2.473584 -0.022,4.947786 -0.31161,7.407816 -0.27451,2.188581 -0.65502,4.372831 -1.77715,6.310726 -0.96298,1.527807 -1.57244,2.478976 -3.55017,2.641183 -0.21557,0.01768 -1.13779,-0.227702 -1.33325,-0.275952 -1.52897,-0.456227 -2.96638,-1.10759 -4.33411,-1.932182 -1.83774,-0.872096 -3.770429,-1.561603 -5.490618,-2.665987 -0.254891,-0.21321 -0.548596,-0.387408 -0.764811,-0.639755 -0.879356,-1.026308 -0.662697,-2.292004 -0.077,-3.379638 0.582605,-1.018473 1.230057,-1.995971 1.896008,-2.961577 0.678398,-0.976644 1.421911,-1.906129 2.267051,-2.745052 0.97004,-1.230126 1.91232,-2.483962 2.70939,-3.835424 0.88682,-1.315849 1.70566,-2.676074 2.45101,-4.077271 0.55969,-1.052128 1.29489,-1.524892 1.94149,-1.567863 0.0314,-0.05377 0.0617,-0.10822 0.0935,-0.161747 0.57034,-0.719181 0.85272,-1.254963 1.90325,-1.51412 0.19027,-0.04694 0.3728,-0.06604 0.54777,-0.0615 z m -31.542781,2.778125 c -0.02825,0.006 -0.0565,0.01206 -0.08475,0.01809 0.0592,0.01115 0.111067,0.01621 0.164331,0.02222 -0.0271,-0.01283 -0.04961,-0.0302 -0.07958,-0.04031 z m 30.627591,0.280087 c -0.0172,0.0063 0.0403,0.08824 0.16639,0.174666 -0.0938,-0.132256 -0.15242,-0.179778 -0.16639,-0.174666 z m 9.42784,0.187068 c 1.03057,0.06365 1.96656,0.572002 2.72955,1.324467 0.98545,1.11687 1.76051,2.375753 2.49908,3.666443 1.05928,1.694096 2.10852,3.395758 2.9962,5.188314 0.93999,1.853326 1.83081,3.732491 2.62981,5.651335 0.682,1.60838 1.37007,3.213796 2.10065,4.80074 0.78229,1.856869 1.51858,3.767364 1.70945,5.789828 0.16741,2.30183 -0.2221,4.410432 -0.85162,6.624402 -0.30932,1.25746 -0.58702,2.520641 -0.8723,3.783748 -0.0436,0.192869 -0.421,1.908858 -0.5023,2.170927 -0.10913,0.351573 -0.26085,0.688222 -0.39119,1.032495 -0.26818,0.301415 -0.46755,0.681812 -0.80408,0.904338 -1.14244,0.755428 -2.44299,0.2979 -3.60185,-0.08423 -1.68864,-0.663032 -3.22255,-1.613779 -4.63589,-2.752287 -0.61435,-0.494028 -1.22062,-0.997772 -1.84227,-1.482597 -1.19682,-0.933413 -2.485,-1.78967 -3.44785,-2.98173 -0.19603,-0.305133 -0.42137,-0.593615 -0.58808,-0.915706 -0.85141,-1.644889 -0.67435,-3.482409 0.0357,-5.13457 0.75822,-1.916967 1.4463,-3.848024 1.63349,-5.920569 0.22563,-2.368802 0.40878,-4.746051 0.22479,-7.125664 -0.10482,-1.894075 -0.23378,-3.794949 -0.67903,-5.64565 -0.36142,-1.352437 -0.80159,-2.68263 -1.51463,-3.89692 -0.80263,-1.366656 -0.56567,-2.456123 0.0811,-2.931087 0.10821,-0.677594 0.51185,-1.290142 1.43402,-1.771985 0.22894,-0.07381 0.45139,-0.172182 0.68678,-0.221692 0.17655,-0.03713 0.35107,-0.06081 0.52348,-0.07183 0.15087,-0.0096 0.29978,-0.0096 0.447,-5.17e-4 z m -45.957397,1.288811 c -8.48e-4,3.77e-4 -0.0017,7.22e-4 -0.0026,0.001 -0.04585,0.03082 -0.121269,0.03916 -0.137459,0.09198 -0.01426,0.04655 0.112378,-0.02117 0.129708,-0.06666 0.0033,-0.0088 0.007,-0.0176 0.01033,-0.02636 z m 19.126481,1.212329 c -0.0365,-0.004 -0.08062,0.0084 -0.128674,0.02842 0.06767,0.0035 0.126857,0.0036 0.213424,0.01189 -0.02455,-0.02116 -0.05185,-0.03666 -0.08475,-0.04031 z m 0.220142,0.730704 c -0.187552,0.125524 -0.375093,0.250708 -0.561723,0.376205 -0.01011,0.05939 -0.01852,0.118883 -0.02842,0.178284 0.131707,0.0095 0.318664,0.03058 0.561206,0.0615 0.0146,-0.21756 0.0277,-0.43252 0.02894,-0.615984 z m 26.399934,0.0987 c 0.016,0.02744 0.0302,0.05567 0.046,0.0832 0.0203,-0.0109 0.0364,-0.02564 0.0543,-0.03876 -0.0332,-0.01651 -0.066,-0.03468 -0.10026,-0.04444 z m 1.70016,2.032435 c 0.0391,0.08948 0.0728,0.181011 0.1111,0.270784 0.0161,-0.0017 0.0315,-0.0036 0.0481,-0.0052 -0.053,-0.08863 -0.10531,-0.177568 -0.15916,-0.265616 z m -20.705197,9.737906 c -3.13e-4,5.35e-4 -7.53e-4,9.51e-4 -10e-4,0.0016 5.4e-4,3.02e-4 10e-4,7.64e-4 0.0015,10e-4 -1.55e-4,-8.66e-4 -3.63e-4,-0.0017 -5.17e-4,-0.0026 z m -0.232027,0.433049 c -0.125776,0.305894 -0.01681,0.252932 0,0 z m 10.197824,0.519865 c -0.0611,-0.0077 -0.14734,0.0087 -0.26045,0.05064 -0.0196,0.04897 -0.0365,0.09892 -0.0563,0.147794 -0.2337,0.291531 -0.36234,0.766749 -0.63562,0.989087 -0.0366,0.274163 -0.3401,0.654764 -0.94982,1.342037 -0.0273,0.07509 -0.0495,0.151852 -0.0785,0.226343 -0.005,0.01393 -0.0156,0.03592 -0.0217,0.05116 0.18309,0.06255 0.36825,0.121749 0.55552,0.1757 0.0334,-0.08395 0.10798,-0.08194 0.19947,-0.04703 0.54392,-1.133557 1.76861,-2.869742 1.24747,-2.935738 z m 18.85622,5.408972 c 8.5e-4,0.0033 0.002,0.0065 0.003,0.0098 0.4991,1.391583 0.9547,2.797541 1.35599,4.220414 0.058,0.02551 0.1004,0.04065 0.16175,0.06821 -0.26984,-1.313467 -0.77659,-2.574901 -1.30018,-3.805453 -0.0753,-0.163484 -0.1457,-0.329129 -0.22014,-0.492993 z m -3.54604,3.255099 c -0.0294,0.01404 -0.0697,0.03457 -0.0982,0.04806 0.0492,0.0085 0.0915,0.01921 0.13695,0.02894 -0.0126,-0.02585 -0.0262,-0.05116 -0.0388,-0.077 z m 1.63608,3.504178 c 0.0161,0.390621 0.0277,0.781863 0.0651,1.167888 0.18465,0.161363 0.39541,0.374183 0.6351,0.627868 0.002,-0.01265 0.004,-0.02508 0.006,-0.03772 -0.1276,-0.341073 -0.2515,-0.684096 -0.38912,-1.018026 -0.10229,-0.248216 -0.21045,-0.493705 -0.31729,-0.740007 z m 0.14159,1.687236 c 0.0209,0.107507 0.0421,0.215138 0.0718,0.320911 0.0293,0.104437 0.0194,-0.253737 -0.0677,-0.318327 -0.001,-9.69e-4 -0.003,-0.0016 -0.004,-0.0026 z m -6.23063,1.589567 c -0.0371,-0.02717 0.008,0.112958 0.0517,0.128158 0.0494,0.01728 0.10081,0.02907 0.15089,0.04496 -0.0642,-0.06171 -0.13092,-0.120693 -0.20257,-0.173116 z m 6.1495,0.552421 c -0.003,-0.0028 -0.0142,-6.86e-4 -0.0372,0.0088 -0.18721,0.07688 -0.37195,0.160001 -0.55707,0.241846 0.004,10e-4 0.007,0.0031 0.0114,0.0041 0.16877,0.04447 0.60107,-0.234905 0.58291,-0.254765 z m -5.50613,0.128158 c -0.28703,0.155809 -0.56297,0.258902 -0.83095,0.314709 1.0055,0.85013 2.05327,1.652585 3.08973,2.467033 0.001,-0.0059 0.001,-0.0071 0.003,-0.01292 -0.72591,-0.783683 -1.36641,-1.627224 -1.84019,-2.226221 -0.14173,-0.179761 -0.2798,-0.362549 -0.42117,-0.542602 z m 7.30602,4.195092 c -0.0781,0.07114 -0.15738,0.141312 -0.23203,0.215491 -0.4907,0.13857 -0.96239,0.419779 -1.47226,0.415479 -0.0899,-7.51e-4 -0.17978,-0.01364 -0.26975,-0.02532 -0.023,0.02437 -0.0469,0.05304 -0.0692,0.07545 0.43646,0.237407 0.8862,0.450739 1.35496,0.628385 0.12407,0.03909 0.24563,0.07817 0.36742,0.115755 0.0925,-0.477969 0.20806,-0.951346 0.32091,-1.425236 z m 0.54983,1.573548 c -0.10034,0.0086 -0.0902,0.008 -0.15502,0.01188 0.0134,0.001 0.0264,0.0045 0.0398,0.0052 0.0389,0.0019 0.15403,-0.02035 0.11523,-0.01705 z" />
    <path
       id="rect7"
       style="fill:#6bc5eb;fill-opacity:1;stroke-width:0.105692"
       transform="matrix(0.8660254,0.5,0.5,-0.8660254,0,0)"
       d="m 109.12117,6.9040159 -1.4e-4,-49.2732449 0.9041,-1.4e-4 c 1.35182,1.034836 2.72117,2.046277 4.13955,2.989665 0.018,0.0112 0.0363,0.02193 0.0543,0.03312 l -4.4e-4,46.2511792 z" />
  </g>
</svg>
