<svg width="200" height="100" xmlns="http://www.w3.org/2000/svg">
 <g id="Layer_1">
  <title>Layer 1</title>
  <polyline stroke-linecap="round" id="svg_75" points="44.07743388414383,9.543103486299515 43.90168696641922,9.543103486299515 41.61697322130203,9.894597321748734 32.126632034778595,13.23379161953926 19.648593246936798,17.97896221280098 7.873540222644806,22.7241328060627 -5.3074886202812195,28.523784905672073 -11.810129821300507,31.335737496614456 -11.282888114452362,27.293556481599808 -0.38657134771347046,17.80321529507637 13.321698486804962,7.434139043092728 27.38146334886551,-1.353213757276535 38.62927561998367,-8.383095473051071 43.37444621324539,-11.898036688566208 43.55019313097,-12.601025313138962 41.79272013902664,-12.425278395414352 38.102034866809845,-10.667807310819626 33.18111735582352,-7.504360407590866 25.272498428821564,-1.8804547488689423 11.739975273609161,7.082644730806351 0.4921639561653137,13.936780244112015 -11.458635985851288,19.033443719148636 -2.319788873195648,7.609885960817337 11.388481438159943,2.8647156059741974 24.042268097400665,-0.29873141646385193 28.084451019763947,-0.47447845339775085 26.50272685289383,-0.29873141646385193 19.121350586414337,2.8647156059741974 9.455263435840607,7.434139043092728 -1.4410536289215088,12.003562241792679 -11.458635985851288,14.639767915010452 -12.86461228132248,11.82781532406807 -6.361971080303192,7.434139043092728 0.8436580300331116,3.7434509098529816 5.588828384876251,1.2829920947551727 6.819057762622833,0.40425682067871094 6.643310844898224,0.40425682067871094 1.7223933339118958,1.107244998216629 -6.8892123103141785,2.8647156059741974 -11.634382903575897,3.919197827577591 -9.701164901256561,1.2829920947551727 10.685492813587189,-0.29873141646385193 36.871802628040314,-1.528960794210434 57.60995417833328,-1.353213757276535 66.04581767320633,1.6344862282276154 56.37972575426102,9.894597321748734 35.81732112169266,17.100227624177933 5.061587154865265,24.657350808382034 -11.282888114452362,27.293556481599808 -5.483236014842987,37.8383791744709 33.00536662340164,35.72941234707832 77.64512187242508,31.511484414339066 122.28486949205399,30.45700290799141 166.92462474107742,28.699531823396683 176.41496592760086,27.645050317049026 153.74359446763992,29.22677257657051 110.33407145738602,32.03872707486153 65.69432383775711,33.62044933438301 21.054568588733673,38.01412609219551 -1.2653065919876099,42.93504360318184 -12.68886536359787,54.7100947201252 14.551927864551544,54.7100947201252 54.095015823841095,52.24963787198067 121.05464488267899,46.6257326900959 160.59773570299149,42.58354976773262 173.77875071763992,41.88056209683418 166.22163707017899,43.46228435635567 135.2901490330696,49.26193645596504 90.6504014134407,56.64331462979317 46.01064997911453,64.20043590664864 1.370899260044098,66.48514583706856 -12.337370574474335,60.86124446988106 46.88938456773758,24.481601983308792 91.52913981676102,-4.340913504362106 101.01948100328445,-9.086084097623825 56.37972575426102,-8.734590262174606 11.739975273609161,-8.383095473051071 -10.579900443553925,-8.031601637601852 2.249634563922882,-6.80137225985527 69.2092621922493,-6.274131029844284 113.8490098118782,-7.152866572141647 158.4887574315071,-6.274131029844284 151.45888072252274,-0.12298431992530823 106.81913310289383,6.028162270784378 62.17937785387039,8.488621026277542 17.539628326892853,8.84011486172676 -4.780247628688812,10.246092110872269 37.04754954576492,23.427120476961136 81.68730479478836,23.427120476961136 126.32705241441727,23.251373559236526 170.96680003404617,23.251373559236526 192.7594330906868,23.954361230134964 148.64693003892899,27.293556481599808 104.00717478990555,30.45700290799141 59.36742717027664,31.511484414339066 14.727674782276154,35.553665429353714 11.739975273609161,38.89286068081856 46.71363765001297,41.529068261384964 91.35338908433914,41.529068261384964 158.3130219578743,42.40780285000801 192.93518382310867,42.40780285000801 172.02128916978836,42.2320559322834 127.38153392076492,41.001827508211136 82.74178630113602,41.001827508211136 38.102034866809845,40.47458294034004 -6.5377179980278015,40.47458294034004 19.648593246936798,39.595848351716995 86.60821849107742,38.01412609219551 131.24797374010086,38.01412609219551 175.8877289891243,38.01412609219551 198.20759898424149,38.36561992764473 200.84379893541336,40.65032985806465 156.20405894517899,41.001827508211136 111.56430369615555,41.529068261384964 66.92454844713211,42.2320559322834 73.0756943821907,44.51676586270332 117.71544963121414,45.21975353360176 162.35519725084305,45.21975353360176 206.99495249986649,45.74699428677559 200.84379893541336,42.58354976773262 156.20405894517899,42.40780285000801 111.56430369615555,42.40780285000801 66.92454844713211,42.40780285000801 13.673193275928497,41.529068261384964 58.137198746204376,38.54136684536934 102.77695018053055,31.159990578889847 147.41670542955399,24.481601983308792 192.05644541978836,19.209190636873245 178.52392894029617,28.523784905672073 133.88417369127274,29.40251949429512 89.24442607164383,29.40251949429512 22.28479892015457,28.172291070222855 -8.29518860578537,24.833097726106644 36.344561874866486,22.899879723787308 80.98431712388992,18.3304560482502 125.62406474351883,16.221491128206253 170.26381236314774,16.221491128206253 180.98439341783524,18.506202965974808 136.3446381688118,25.53608539700508 91.70488291978836,27.293556481599808 24.745257675647736,29.40251949429512 2.4253814816474915,29.40251949429512 9.631010353565216,21.4939024746418 54.270762741565704,13.58528545498848 98.91051036119461,8.84011486172676 143.55026561021805,3.2162096798419952 188.19002085924149,3.0404625236988068 146.53796702623367,13.058044701814651 101.89821177721024,14.288274079561234 57.258460342884064,14.288274079561234 12.618710815906525,14.288274079561234 6.643310844898224,13.40953853726387 51.28306132555008,12.003562241792679 95.92281657457352,9.367356568574905 140.56256419420242,7.961380273103714 185.20231944322586,7.785632878541946 207.52218943834305,8.84011486172676 156.20405894517899,33.4447024166584 111.56430369615555,39.595848351716995 66.92454844713211,43.28653743863106 22.28479892015457,46.80147960782051 -0.03507721424102783,47.15297344326973 27.2057164311409,47.15297344326973 71.8454697728157,47.15297344326973 116.48521739244461,47.15297344326973 161.12497264146805,48.03170803189278 205.76472789049149,54.7100947201252 173.77875071763992,90.91398647427559 129.13901072740555,99.34984615445137 84.49925547838211,99.87709072232246 39.85950404405594,100.93157222867012 -4.780247628688812,101.28306606411934 30.017669022083282,101.28306606411934 74.65742045640945,98.99835231900215 119.29716807603836,97.59237697720528 186.25679332017899,97.4166262447834 208.57667857408524,100.22858455777168 72.37270671129227,113.7611086666584 117.0124619603157,109.19168117642403 161.6522095799446,108.31295040249825 206.29196482896805,107.9614489376545 182.56610423326492,109.71892574429512 137.92636424303055,110.07041957974434 70.96673136949539,110.07041957974434 26.32697993516922,110.24616268277168 25.623992264270782,109.89466884732246 70.26374369859695,108.66444423794746 114.90349131822586,108.66444423794746 159.5432465672493,108.66444423794746 204.18300181627274,107.78570583462715 178.52392894029617,107.78570583462715 133.88417369127274,107.78570583462715 89.24442607164383,107.78570583462715 " opacity="NaN" stroke-width="99" stroke="#fbe09b" fill="none"/>
  <path d="m102.39128,28.91304c0,0.21739 -0.04874,0.63105 -0.21738,1.08696c-0.31097,0.84065 -0.49668,1.72279 -0.86957,3.26087c-0.26117,1.07727 -0.40899,1.962 -0.65218,3.04348c-0.19665,0.87449 -0.64243,1.42373 -0.86956,2.17391c-0.12599,0.41613 0.19611,0.8314 -0.21739,1.08696c-0.18492,0.11429 -0.21739,0.21739 -0.21739,0.43478c0,0.21739 0,0.43478 0,0.65217c0,0.21739 -0.21739,0.43478 -0.21739,0.65218c0,0.21739 0,0.43478 0,0.86956c0,0.21739 0.03137,0.42046 0.21739,0.86956c0.26308,0.63512 0.7679,1.34759 1.08695,1.95652c0.50446,0.96281 1.16032,1.58913 1.52174,2.17392c0.16163,0.26152 0.58813,0.94482 1.08695,1.30435c0.39435,0.28423 0.35159,0.45133 0.43478,0.65217c0.11765,0.28403 0.47522,0.36795 0.86957,0.65218c0.2494,0.17976 0.21739,0.43478 0.43478,0.65217c0.21739,0.2174 0.36814,0.53452 0.65218,0.65217c0.20084,0.08319 0.87771,0.30198 1.95652,0.43478c0.88962,0.10952 1.73914,0.21739 2.82609,0.21739c1.08696,0 1.91978,-0.34022 3.91305,-0.86956c1.07134,-0.28451 2.38145,-0.47628 4.13043,-0.86957c1.08147,-0.24319 1.33326,-0.1238 2.17391,-0.43478c0.45591,-0.16865 1.06001,-0.50938 2.17391,-0.86957c0.85285,-0.27577 1.23771,-0.53452 1.52174,-0.65217c0.20084,-0.08319 0.6779,-0.11481 0.86957,-0.21739c0.69107,-0.36985 0.6898,-1.05494 0.86957,-1.30435c0.28423,-0.39434 0.32751,-0.62577 0.21739,-1.30435c-0.27858,-1.71667 -0.21739,-3.26087 -0.21739,-4.78261c0,-1.52174 0.13424,-3.72687 -0.43478,-5.86956c-0.17645,-0.66442 -0.71407,-2.15757 -1.08696,-3.69565c-0.26117,-1.07727 -0.32455,-2.00739 -0.86956,-3.04348c-0.36491,-0.6937 -1.11006,-2.08541 -2.17391,-3.47826c-0.18661,-0.24432 -0.39019,-0.70005 -1.08696,-1.30435c-0.82115,-0.71218 -1.66113,-1.42399 -2.6087,-1.95652c-1.02056,-0.57355 -2.10924,-0.77467 -3.26086,-1.30435c-0.62456,-0.28726 -1.52174,-0.21739 -2.6087,-0.21739c-1.08696,0 -1.97678,-0.04421 -3.91305,0.86957c-1.31882,0.62238 -2.61708,1.32965 -3.69565,2.82609c-0.85268,1.18304 -1.12222,2.59406 -1.73914,4.13043c-0.6921,1.72363 -1.51576,2.53206 -1.73913,3.47826c-0.14984,0.63473 -0.21739,1.30435 -0.43478,2.3913l-0.21739,0.65218l0,0.65217" id="svg_2" stroke="#000" fill="none"/>
  <path d="m102.39128,36.08695c0.65218,-0.43478 0.86957,-0.65217 1.73914,-1.52174c0.65217,-0.65217 1.53336,-1.20446 1.95652,-1.30435c0.4731,-0.11168 0.65218,-0.43478 0.86957,-0.65217l0.21738,0l0.21739,-0.21739l0.21739,0" id="svg_3" stroke="#000" fill="none"/>
  <path d="m110.43476,32.1739c0.43478,0 0.87855,-0.18418 1.73913,-0.43478c1.32008,-0.38441 1.93013,-0.75945 2.6087,-0.86957c0.21458,-0.03482 0.43478,0 0.86957,0l0.21739,0l0.21739,0l0.21739,0" id="svg_4" stroke="#000" fill="none"/>
  <path d="m104.5652,44.13042c0.21738,0.21739 0.82883,1.13192 1.30434,1.52174c0.60616,0.49693 1.28934,0.92125 1.95652,1.08696c1.28335,0.31875 2.62009,0.40332 4.13043,0.21739c0.88962,-0.10952 1.591,-0.2655 2.82609,-0.86956c0.70412,-0.34437 1.33745,-0.48579 1.73914,-0.65218c0.28403,-0.11765 0.43478,-0.43478 0.65217,-0.86956c0.43478,-0.86956 0.33031,-1.53016 0.43478,-2.17391c0.11012,-0.67858 0.21739,-1.08696 0.21739,-1.52174c0,-0.43478 0,-0.65218 0,-0.86956l-0.21739,-0.21739l-0.21739,-0.21739l0,-0.21739" id="svg_5" stroke="#000" fill="none"/>
  <path d="m97.82607,35.86956c0,-0.21739 0.23335,-0.8547 0.43478,-1.08696c0.71217,-0.82114 1.2422,-1.78515 1.73913,-2.3913c0.58473,-0.71327 1.02293,-1.16221 1.52174,-1.52174c0.78869,-0.56845 2.00494,-1.02695 2.82609,-1.73913c0.23225,-0.20143 0.43478,-0.21739 0.65217,-0.21739c0.21739,0 0.43478,0 0.65218,0c0.21739,0 0.53452,-0.06664 0.65218,0.21739c0.08319,0.20084 0.21739,0.21739 0.43478,0.21739c0.21739,0 0.43478,0 0.65217,0c0.43478,0 0.71585,-0.15372 0.86957,0c0.15372,0.15372 0.1032,0.67053 -0.21739,2.17391c-0.33007,1.54783 -1.08098,2.96685 -1.30434,3.91304c-0.14984,0.63473 -0.21142,1.22772 -0.43478,2.17392c-0.14984,0.63473 -0.00281,0.83474 -0.21739,0.86956c-0.67857,0.11012 -1.6625,0.6462 -2.6087,0.86956c-0.42316,0.09989 -0.58553,0.09974 -0.86957,0.21739c-0.20084,0.08319 -0.4724,0.03202 -0.65217,-0.21739c-0.28423,-0.39435 -0.43478,-0.65217 -0.86957,-1.52174c-0.21739,-0.43478 -0.65218,-1.30435 -0.65218,-1.52174c0,-0.21739 -0.1342,-0.23394 -0.21739,-0.43478c-0.11765,-0.28403 -0.53788,-0.46725 -0.65217,-0.65217c-0.25556,-0.41351 -0.58553,-0.31713 -0.86957,-0.43478c-0.20084,-0.08319 -0.36814,-0.31713 -0.65218,-0.43478c-0.20084,-0.08319 -0.43478,-0.21739 -0.65217,-0.43478l-0.21739,0l0,-0.21739" id="svg_7" stroke="#000" fill="none"/>
  <path d="m117.60867,27.82608c-0.21739,0.43478 -0.05101,0.68527 -0.21739,1.08696c-0.23531,0.56807 -0.59904,0.87282 -0.65217,1.30435c-0.10952,0.88961 -0.15056,1.34478 -0.43478,1.73913c-0.17976,0.24941 -0.15075,0.53452 -0.43478,0.65218c-0.20084,0.08319 -0.43478,0 -0.43478,0.21739c0,0.21739 -0.28107,0.06367 -0.43478,0.21739c-0.15372,0.15372 -0.1342,0.45133 -0.21739,0.65218c-0.11765,0.28403 -0.28106,0.28106 -0.43478,0.43478c-0.15372,0.15372 -0.02128,0.39662 -0.43478,0.65218c-0.18492,0.11429 -0.06367,0.28106 -0.21739,0.43478c-0.15372,0.15372 -0.43478,0.21739 -0.65218,0.21739c-0.21739,0 -0.43478,0.21739 -0.65218,0.21739c-0.21739,0 -0.43478,0 -0.86956,0c-0.21739,0 -0.47573,-0.20514 -0.65218,-0.86956c-0.28452,-1.07135 -0.5938,-1.97324 -0.86957,-2.82609c-0.36018,-1.1139 -0.95328,-2.25479 -1.52174,-3.04348c-0.53929,-0.74822 -0.78638,-0.88611 -0.86957,-1.08696c-0.11765,-0.28403 0.03848,-0.29243 1.08696,-0.65217c0.45979,-0.15776 1.49479,-0.50938 2.6087,-0.86956c0.85284,-0.27577 1.71273,-0.75945 2.3913,-0.86957c0.64375,-0.10447 1.30434,0 1.73913,0c0.21739,0 0.43478,0.21739 0.65218,0.21739c0.21739,0 0.21739,0.21739 0.43478,0.43478c0.21739,0.21739 0.53452,0.36814 0.65217,0.65217c0.08319,0.20084 0.21739,0.21739 0.21739,0.43478l0,0.21739l0.21739,0" id="svg_8" stroke="#000" fill="none"/>
  <path d="m118.04346,27.3913c0.21739,0.21739 0.46941,0.35014 1.08696,0.65217c0.70411,0.34437 1.08695,0.43478 1.52174,0.43478c0.86957,0 1.69688,0.31487 2.6087,0.65217c0.84064,0.31098 1.08695,0.21739 1.30434,0.21739c0.21739,0 0.43478,0 0.65218,0.21739c0.21739,0.21739 0.49846,0.28106 0.65218,0.43478c0.15372,0.15372 0.21739,0.21739 0.43478,0.21739l0,0.21739" id="svg_9" stroke="#000" fill="none"/>
  <path d="m97.82607,34.56521c0.21739,0.21739 0.53452,0.58553 0.65218,0.86956c0.08319,0.20084 0.43478,0.86957 0.65218,1.30435l0.43478,0.43478l0.21739,0.43478l0,0.43478" id="svg_10" stroke="#000" fill="none"/>
  <path d="m107.39128,34.7826c0.21739,0 0.43478,0 0.65218,0c0.21739,0 0.45133,-0.1342 0.65218,-0.21739c0.28403,-0.11765 0.43478,-0.21739 0.65218,-0.21739c0.21738,0 0.43478,0 0.65217,0l0.21739,0l0.21739,0" id="svg_11" stroke="#000" fill="none"/>
  <path d="m126.71905,33.33988c-0.19646,0 -0.98232,0.19646 -1.37524,0.19646c-0.39293,0 -0.58939,0 -0.78585,0c-0.58939,0 -0.79637,0.09028 -1.17879,0c-0.42755,-0.10093 -0.98232,-0.58939 -1.17878,-0.78585c-0.58939,-0.58939 -0.8142,-0.77292 -0.98232,-1.17878c-0.23775,-0.57398 -0.2205,-1.19175 0,-1.57171c0.35555,-0.61267 0.43668,-0.92809 1.17878,-1.57171c0.41979,-0.36408 0.76676,-0.63344 1.17878,-0.78585c0.75973,-0.28104 1.17878,-0.39293 1.57171,-0.39293c0,0 0.3583,0.292 0.78586,0.39293c0.38242,0.09028 0.86814,0.08229 1.17878,0.39293c0.62128,0.62127 0.50121,1.61386 0.78586,2.55403c0.20527,0.67796 0.39292,1.17878 0.39292,1.57171c0,0.19646 -0.42947,0.52899 -0.78585,0.78585c-0.2254,0.16246 -0.39293,0.39293 -0.78586,0.39293c-0.19646,0 -0.39292,0 -0.58939,0" id="svg_18" stroke="#E6C36A" fill="none"/>
  <path d="m124.66367,27.01046c-0.14948,0 -0.30537,0.04332 -0.44843,0c-1.03164,-0.31236 -2.03172,-1.55027 -2.98953,-2.54111c-0.66522,-0.68816 -1.04633,-1.19582 -1.34529,-1.79372c-0.14948,-0.29896 -0.61337,-1.03234 -0.74738,-1.19582c-0.34169,-0.41679 -0.44843,-0.44843 -0.59791,-0.44843c-0.14948,0 -1.19582,0 -1.64425,0c-0.29895,0 -0.44843,0 -0.59791,0c-0.29895,0 -0.60177,0.04789 -0.89686,0c-0.46658,-0.07572 -0.59791,-0.14948 -0.74738,-0.14948c-0.14948,0 -0.43028,-0.22324 -0.89687,-0.29895c-0.14754,-0.02394 -0.29895,0 -0.44843,-0.14948l-0.14948,-0.14948l-0.14948,0" id="svg_24" stroke="#E6C36A" fill="none"/>
  <ellipse stroke-width="5" ry="1.19582" rx="1.42003" id="svg_27" cy="30.74738" cx="124.88789" stroke="#E6C36A" fill="none"/>
  <path d="m100.89686,49.58146c0,0.44843 0.51985,1.92537 0.89686,3.58744c0.36968,1.6298 0.52312,2.5368 0.59791,4.48431c0.08031,2.09113 -0.2632,5.95015 -1.04633,9.26756c-0.52534,2.22539 -1.17549,3.85652 -1.49477,5.53064c-0.25358,1.32961 -0.59747,3.27135 -0.74738,5.23169c-0.14817,1.93754 -0.22418,3.73381 -0.29895,6.42751c-0.04147,1.49419 -0.10596,2.9933 0,4.48431c0.07493,1.0543 0.29895,1.79372 0.29895,2.24215l0,0.29896l0,0.14948l0.14948,0" id="svg_34" stroke-width="3" stroke="#000000" fill="none"/>
  <path d="m99.55157,45.84454c0,0.14948 0.07376,0.2808 0.14948,0.74738c0.07183,0.44264 0.28986,1.05004 0.59791,1.79372c0.43564,1.05173 1.25632,2.21028 1.9432,3.58744c0.65708,1.3174 1.55137,3.18425 2.24215,4.4843c0.66168,1.24529 1.30963,2.26336 1.9432,3.28849c0.56668,0.91691 1.19582,2.09268 1.49477,2.84006c0.29895,0.74738 0.67208,1.63046 0.74738,2.24215c0.07306,0.59343 0,1.04633 0,1.19582l0,0.14948" id="svg_35" stroke-width="5" stroke="#000000" fill="none"/>
  <path d="m108.52017,66.32287c0,0.14948 0,1.64425 0,3.28849c0,1.9432 0,3.8864 0,6.27803c0,2.39162 0,4.4843 0,6.12855c0,1.19582 0,2.24215 0,2.84006l0,0.29896" id="svg_36" stroke-width="5" stroke="#000000" fill="none"/>
  <path d="m106.4275,67.66816c0,0.14948 -0.31474,2.08901 -0.89686,4.63378c-0.61461,2.68681 -1.49461,5.9689 -1.64425,9.26756c-0.14224,3.13579 0.03131,5.97404 0.44843,8.66965c0.32327,2.08907 0.59791,3.8864 0.59791,4.33483l0.14948,0.29895l0,0.14948" id="svg_37" stroke-width="5" stroke="#000000" fill="none"/>
  <path d="m100.44843,71.85351c-0.14948,0 -0.24595,-0.161 -0.44843,1.9432c-0.2867,2.97952 -0.44058,5.97945 -0.59791,9.11809c-0.14238,2.84043 -0.14948,5.53065 -0.29896,7.47385l-0.14948,1.34529l-0.14948,1.19581l-0.29896,0.14948" id="svg_38" stroke-width="5" stroke="#000000" fill="none"/>
  <path d="m98.20628,74.5441c-0.14948,0 -0.79317,0.40486 -1.64425,1.34529c-1.42553,1.57519 -2.78227,3.43665 -3.73692,5.23169c-0.82152,1.54471 -1.33997,3.43224 -1.34529,5.38116c-0.00573,2.098 0.99435,5.11465 1.9432,6.57698c0.99316,1.53062 1.64424,2.39162 2.39162,3.13901l0.29896,0.14948l0.14948,0l0,0.14948" id="svg_39" stroke-width="5" stroke="#000000" fill="none"/>
  <path d="m105.82959,70.95665c-0.14948,1.49477 -0.8221,4.63123 -0.89686,7.92227c-0.06789,2.98877 0,5.8296 0,8.3707c0,2.24215 0.14948,3.58744 0.14948,4.18535l0,0.29896l0,0.14948" id="svg_40" stroke-width="5" stroke="#000000" fill="none"/>
  <path d="m128.55006,41.06129c0.14949,0.29895 0.76886,1.56383 1.94321,3.58744c1.35255,2.3307 3.68066,5.58911 5.23169,7.02541c1.01115,0.93636 1.64424,1.49477 2.09267,1.79372l0.59792,0.44843l0.44843,0.29895l0.29895,0.14948" id="svg_41" stroke-width="5" stroke="#000000" fill="none"/>
  <path d="m127.50373,38.96861c0.14948,0.14948 0.29896,0.14948 0.29896,0c0,-0.14948 0,-1.04634 -0.29896,-1.34529c-0.14948,-0.14948 -0.24175,-0.31033 -0.29895,-0.44843c-0.08089,-0.1953 -0.29896,-0.29895 -0.29896,-0.44843l0,-0.14948" id="svg_42" stroke-width="5" stroke="#000000" fill="none"/>
  <path d="m103.43797,23.72197c0.14948,0 0.74738,-0.44843 1.04633,-0.74738c0.29896,-0.29896 0.72104,-0.52111 1.04634,-0.59791c0.43644,-0.10303 0.75074,-0.09469 1.19582,-0.14948c0.61169,-0.0753 1.19958,-0.28122 1.9432,-0.44843c0.6013,-0.13521 1.51242,-0.05611 2.54111,-0.29895c0.46004,-0.1086 1.04633,-0.29895 1.19581,-0.29895l0.14948,0l0.14948,0l0.14948,0" id="svg_47" stroke="#000000" fill="none"/>
  <path d="m102.84006,23.72197c0.14948,-0.14948 0.8279,-0.53908 1.19582,-0.74738c0.53632,-0.30365 1.6677,-0.67497 2.69058,-1.04634c1.3838,-0.5024 3.73692,-1.34529 4.78326,-1.49477l0.74738,-0.44843" id="svg_51" stroke-width="3" stroke="#000000" fill="none"/>
  <path d="m128.40059,33.28849c0.44844,0.74738 1.37894,1.45662 3.58745,3.43797c2.12569,1.90704 3.88542,3.79807 5.08221,5.97908c1.02957,1.87626 1.70752,4.62278 2.09267,7.02541c0.35803,2.23348 0.29897,3.73692 0.29897,4.78326l0,0.74739l0,0.44843l0,0.14948" id="svg_52" stroke-width="5" stroke="#000000" fill="none"/>
  <path d="m133.63228,40.76233c0,0.29895 0.78577,2.06957 1.94321,4.03587c1.39198,2.36476 3.31671,5.78274 5.23169,7.92227c1.5508,1.73265 3.43796,2.98954 5.38116,4.18535l1.19582,0.44843l0.29895,0.14948" id="svg_53" stroke-width="5" stroke="#000000" fill="none"/>
  <path d="m149.92526,58.69955c0,0.29895 -0.15266,0.77417 0,1.19582c0.39743,1.09771 2.0287,1.89801 3.43796,2.69058c2.15662,1.21289 4.614,2.06595 7.02542,2.39163c1.78374,0.24091 3.73691,0.29896 3.88638,0.29896l0.14949,0" id="svg_54" stroke-width="5" stroke="#000000" fill="none"/>
  <path d="m128.55006,51.97309c-0.14948,0.44843 -0.85656,2.10564 -1.64424,4.4843c-0.99568,3.00679 -2.34327,6.29451 -3.58744,9.86547c-1.15128,3.30434 -2.00644,8.24412 -2.84006,11.21076c-0.67784,2.41227 -1.63435,4.18808 -2.09268,5.8296c-0.29264,1.04811 -0.55175,1.95393 -0.74738,2.69058c-0.12132,0.45686 -0.14948,0.59791 -0.14948,0.89686l0,0.14948l0,0.14948" id="svg_60" stroke-width="5" stroke="#EDB6DC" fill="none"/>
  <path d="m130.04485,54.36472c-0.14949,0 -0.31503,0.01699 0,0.29895c0.71318,0.63831 2.00684,1.40146 3.13901,2.24215c1.27571,0.94728 2.28606,1.71499 3.13901,2.24215c0.63577,0.39293 1.07964,0.70613 1.64426,1.19582c0.1597,0.1385 0.29895,0.14948 0.74738,0.59791c0.14948,0.14948 0.4922,0.19325 0.59792,0.29895c0.1057,0.10569 -0.17346,0.44294 -0.29897,1.04634c-0.18515,0.89018 -0.27701,1.79828 -0.5979,3.28849c-0.41982,1.94958 -0.52901,3.45515 -0.89687,4.78326c-0.37852,1.36661 -0.91476,2.38361 -1.64424,4.03587c-0.45978,1.0414 -0.75554,1.80721 -0.89687,2.54111c-0.15222,0.79043 -0.5226,1.3315 -0.5979,1.9432c-0.10957,0.89014 -0.33981,1.78787 -0.59792,3.73692c-0.17769,1.34186 -0.08334,2.84189 -0.14948,4.03587c-0.07486,1.3515 -0.14948,2.24215 -0.14948,2.84006c0,0.74738 0.42279,1.37094 0,1.79372c-0.1057,0.1057 -0.26466,-0.03877 -0.5979,-0.29896c-0.687,-0.53639 -2.95494,-1.59963 -5.53065,-2.39162c-2.80705,-0.86312 -4.02478,-1.12071 -4.78326,-1.19582c-0.44625,-0.04419 -0.89687,0 -1.19582,0c-0.44843,0 -1.34529,0 -2.39163,0c-0.59791,0 -0.82632,0.13179 -0.89686,0c-0.25431,-0.47517 0.40176,-0.77803 1.49477,-2.39163c2.58244,-3.81245 5.01796,-6.67809 7.02541,-10.3139c1.87433,-3.39469 3.29623,-6.51012 4.18535,-8.81914c0.73059,-1.8973 1.73213,-3.43327 1.19582,-3.73692c-0.18396,-0.10415 -0.7256,1.20733 -2.39163,4.33483c-1.91821,3.60088 -4.65,7.38577 -6.57698,11.21076c-1.47495,2.92774 -2.09194,5.2095 -2.24215,6.72646c-0.07365,0.74375 0.06674,0.93479 0.29895,0.44843c1.07959,-2.26118 2.22122,-5.83663 3.73692,-10.3139c1.62188,-4.79089 2.69558,-8.8172 3.73692,-11.50972c0.75099,-1.94181 1.56854,-3.41981 1.64426,-3.8864c0.02394,-0.14754 0,0 -0.14948,0.29895c-0.44844,0.89687 -1.94075,3.8194 -4.33483,9.26757c-1.7532,3.98975 -3.57921,7.19521 -4.03588,9.56651c-0.1696,0.88068 0.03765,0.76341 0.14948,0.44843c0.9222,-2.59736 1.44296,-6.07468 3.43797,-10.01495c2.72185,-5.37582 3.85257,-8.09638 4.63377,-7.7728c0.13809,0.0572 0.36899,0.61481 0,4.63378c-0.37526,4.0873 -1.93672,8.93422 -2.84005,13.00449c-0.88928,4.007 -1.04635,5.23169 -0.89687,5.23169c0.14948,0 0.47731,-0.58548 1.49477,-2.98954c1.3848,-3.27205 3.74133,-8.61407 4.48431,-10.9118c0.37924,-1.17283 0.30322,-0.59718 0.14948,0.29895c-0.43633,2.54321 -0.73228,3.5905 -1.34529,6.57698c-0.58356,2.84304 -1.34334,5.49433 -1.49477,6.42751c-0.07182,0.44263 0.04291,0.16732 0.14948,-0.14948c0.77582,-2.30631 0.70157,-3.81781 0.89687,-3.73692c0.2762,0.1144 0.1619,0.74209 0.14948,2.84006c-0.01065,1.79991 -0.48453,3.13149 -0.74739,4.48431c-0.17342,0.89254 -0.5979,1.64424 -0.29895,1.64424c0.14948,0 -0.14362,-1.0687 0.29895,-3.43797c0.45267,-2.42332 1.33183,-5.81178 1.79373,-9.86547c0.42441,-3.72475 0.63454,-6.2723 0.89685,-8.07175c0.17384,-1.19252 0.37314,-2.6768 0.44844,-3.28849c0.01826,-0.14835 0,-0.29895 0,-0.44843c0,-0.44843 0.26753,-1.05806 0.44843,-1.49477c0.12791,-0.3088 0.64966,-0.85284 0.89687,-1.19582c0.19543,-0.27115 0.5979,-0.74738 0.44843,-0.74738c-0.5979,0 0.11667,1.5013 0,2.54111c-0.37604,3.35132 -1.45898,5.96053 -1.79372,8.3707c-0.22713,1.63532 -0.25363,1.97768 -0.14948,1.79372c0.60728,-1.07262 0.5979,-1.9432 1.34529,-4.03587c0.74738,-2.09267 1.71761,-5.06939 1.94319,-6.57698c0.22231,-1.48568 0.44843,-2.24215 0.29895,-2.24215c-0.14948,0 0.02283,0.30513 -0.14948,0.89686c-0.52863,1.81535 -1.83821,5.8136 -2.84006,8.66965c-1.09525,3.12229 -1.76607,6.58002 -2.09267,9.41705c-0.27565,2.39442 -0.52299,3.87843 -0.59792,4.93273c-0.05298,0.74551 -0.14948,1.49477 -0.14948,1.79372c0,0.14948 -0.04378,0.19325 -0.14948,0.29895c-0.1057,0.1057 -0.10365,0.36754 -0.29895,0.44843c-0.27621,0.11441 -0.44873,0.00928 -0.59792,0c-1.20279,-0.07488 -1.96965,-0.05159 -2.69058,-0.29895c-0.94845,-0.32542 -1.64425,-0.89686 -1.9432,-1.19582c-0.14948,-0.14948 -0.21806,-0.25314 -0.29895,-0.44843c-0.1144,-0.27619 0,-0.44843 0,-0.74738c0,-0.14948 0.14948,-0.14948 0.44843,-0.74738c0.14948,-0.29896 0.28044,-0.90347 0.44843,-1.34529c0.40456,-1.06407 1.2022,-2.96692 1.49477,-5.53065c0.32246,-2.82565 0.44843,-5.23169 0.44843,-7.32436c0,-1.79372 0,-3.58744 0,-5.68012c0,-1.64425 -0.07305,-2.99401 0,-3.58744c0.0753,-0.61169 0.14948,-1.04634 0.14948,-1.34529c0,-0.14948 0.14948,-0.14948 0.29896,-0.14948l0.14948,0" id="svg_61" stroke-width="5" stroke="#EDB6DC" fill="none"/>
  <path d="m140.6577,66.02392c0,0.14948 0.29933,0.27764 0.89685,0.29895c2.09668,0.07478 5.38116,0.29896 8.96861,0.29896c2.98953,0 4.78326,0 5.38116,0l0.14948,0l0.14948,0" id="svg_62" stroke-width="5" stroke="#EDB6DC" fill="none"/>
  <path d="m156.50224,69.61136c0,0.14948 0.14948,0.29896 0.14948,0.44843c0,0.29895 0.27611,0.90304 0.44843,1.49477c0.26431,0.90767 0.86861,1.75588 1.79372,4.93273c0.51694,1.77519 1.04634,3.58745 1.64426,5.53065c0.5979,1.9432 0.97639,3.45367 1.34529,4.93273c0.37767,1.5142 0.5979,2.69058 0.5979,3.73692c0,0.59791 0,1.04634 0,1.49477c0,0.29896 0.07182,0.6037 0,1.04634c-0.07571,0.46658 -0.14948,1.19582 -0.14948,2.54111c0,0.74738 0,1.34529 0.14948,2.09267c0.14948,0.74738 0.30426,1.42066 0.74739,2.09267c0.46548,0.70591 0.85736,1.38049 1.79372,2.39163c0.57452,0.62041 1.04634,1.04633 1.19582,1.19582l0.14948,0.14948l0,0.14948" id="svg_63" stroke-width="5" stroke="#EDB6DC" fill="none"/>
  <path d="m138.11659,71.55456c0,0.59791 0.22418,2.68708 0.29895,5.08221c0.08862,2.83868 0,5.97907 0,8.66965c0,2.24215 0,4.33482 0,5.97907c0,1.19582 0,2.84006 0,3.28849c0,0.59791 0.07268,1.01999 0.14948,1.34529c0.06868,0.29095 -0.0582,0.47224 0.14948,0.89686c0.23679,0.48415 0.61948,1.33545 0.74739,1.64425c0.18088,0.4367 0.18166,0.69056 0.29895,0.59791c2.53215,-2.00005 1.69525,-6.4176 2.54111,-10.91181c0.95454,-5.07169 1.19582,-10.3139 1.19582,-14.05082c0,-2.09267 -0.1716,-3.4721 0,-3.8864c0.0809,-0.1953 0.14948,0.44843 0.14948,1.64424c0,3.73692 0,8.07175 0,13.15396c0,4.93274 0,9.11809 0,12.2571c0,1.9432 -0.01233,2.5406 0,2.39163c0.14998,-1.81227 1.23492,-6.57139 2.09267,-12.70554c0.93974,-6.7206 1.15721,-13.0589 2.09268,-17.78774c0.33073,-1.67189 0.44133,-2.54093 0.44843,-2.39162c0.14966,3.14967 0.59792,8.3707 0.59792,14.34978c0,5.68011 0,10.46337 0,13.75186c0,2.39163 0.00192,3.86246 0.14948,3.8864c0.46658,0.07571 0.64789,-1.78079 2.09268,-7.47384c1.70331,-6.71174 2.8974,-13.35354 4.03587,-18.23618c0.49422,-2.11956 0.60324,-1.94424 0.74738,-1.19582c0.77618,4.03044 1.83589,12.55097 2.39163,17.33932c0.48528,4.18124 0.90605,7.47263 1.19582,9.71599c0.15437,1.19519 0.10016,1.34326 0.14948,0.74739c0.075,-0.90614 0.30667,-4.03559 0.44843,-7.92227c0.15808,-4.33453 1.04634,-7.7728 0.29897,-7.7728c-1.04633,0 0,2.39162 0,4.63378c0,3.13902 0.18855,7.50204 -0.14949,9.11809c-0.19356,0.92534 -0.55208,1.26439 -0.74738,1.34529c-0.2762,0.11441 -0.70856,-0.18536 -2.09268,-1.64425c-1.89143,-1.99361 -2.83473,-2.54102 -2.84006,-2.39162c-0.07478,2.09667 -0.22498,4.93851 -0.44843,7.32436c-0.11238,1.19987 -0.20319,1.48568 0,0.44843c0.23695,-1.20963 0.67262,-4.63208 0.74738,-9.56651c0.10867,-7.17406 0.00002,-10.16443 -0.29895,-10.16443c-0.14949,0 0.14948,2.09268 0.14948,5.08221c0,3.43797 -0.07315,7.46191 -0.5979,10.91181c-0.52136,3.42767 -0.44844,4.03587 -0.44844,3.8864c0,-0.89687 0,-3.73692 0,-6.57698c0,-1.9432 -0.10243,-2.25063 -0.29895,0.74738c-0.313,4.77534 -1.1423,2.71935 -2.09267,2.09267c-0.12479,-0.08228 -0.698,0.7259 -1.19582,3.28849c-0.37492,1.92999 -0.46878,-1.94495 -0.59792,-6.72646c-0.14954,-5.53671 -0.97847,-10.10439 -1.64424,-10.16443c-0.74435,-0.06712 -1.06113,3.28689 -1.34529,5.97907c-0.15768,1.49393 -0.11345,1.74158 0,1.64425c1.49217,-1.28017 0.67264,-4.93066 0.74739,-8.96861c0.09407,-5.08134 -0.23564,-10.17396 -0.89687,-14.34977c-0.54576,-3.44663 -1.19582,-5.53065 -1.19582,-5.38117c0,0.14948 0.14948,0.59791 0.29895,0.74739c0.44843,0.44843 1.13824,0.98623 1.79373,1.34529c2.24017,1.22711 3.28848,0.89686 3.58743,0.89686c0.14948,0 0.29897,0 0.29897,0.14948c0,0.14948 0.047,0.93003 -0.59792,1.79372c-0.69849,0.93545 -1.60593,1.82049 -2.24216,2.69058c-0.56494,0.7726 -1.19385,1.30898 -1.34529,2.24215c-0.09578,0.59019 0.07268,1.16947 0.14948,1.49477c0.10303,0.43643 0.24895,0.52223 0.44844,0.14948c0.35963,-0.672 0.42461,-2.58801 -0.29895,-4.33483c-0.76744,-1.85278 -2.81348,-4.39099 -4.03587,-6.12855c-0.50151,-0.71286 -0.37576,-0.47478 -0.29897,-0.14948c0.06868,0.29095 0.32587,1.84099 0.89687,3.13901c0.61969,1.40869 1.46669,2.70213 2.09268,4.18536c0.57243,1.35632 0.92273,1.92119 1.04633,2.09267c0.19543,0.27115 0.43028,0.52219 0.89687,0.59791c0.44264,0.07183 1.27147,0.14797 2.84006,-0.74738c1.58463,-0.90451 3.18933,-2.24277 4.03587,-3.58745c0.60649,-0.96337 0.74739,-2.69058 0.74739,-3.43797c0,-0.14948 -0.02414,-0.3804 -0.14948,-0.29895c-1.23441,0.80221 -1.61267,3.30458 -2.69058,5.38116c-1.01678,1.95882 -1.72484,4.38221 -2.39163,4.33482c-0.4715,-0.03351 -0.35452,-1.01569 -0.74739,-1.79372c-0.8759,-1.7346 -1.8159,-4.22774 -3.28848,-4.48431c-2.00294,-0.34898 -4.06606,2.50648 -6.12856,4.33482c-1.82086,1.61414 -2.64476,2.32305 -2.84006,2.24216c-0.13809,-0.05721 0.17308,-0.31382 0.44843,0.14948c1.63969,2.75892 2.82431,6.11435 3.13902,9.716c0.26056,2.9819 0.14948,5.53064 0.14948,8.52018c0,2.98953 2.19098,6.80365 -0.14948,8.66965c-2.01761,1.6086 -4.32837,-1.84162 -5.08221,-4.48431c-0.99767,-3.49741 -1.32776,-7.17742 -1.19582,-10.61285c0.0748,-1.9475 0.29895,-2.98954 0.29895,-2.84006c0,0.74738 -0.24257,4.77077 -0.5979,7.77279c-0.40564,3.42702 -0.59792,6.72646 -0.59792,9.11809c0,1.04634 0.30527,0.30074 0.59792,-0.74738c0.45833,-1.64151 1.69925,-4.43736 2.39163,-7.92227c0.85272,-4.29198 0.74738,-5.68011 0.5979,-5.68011c-0.44843,0 -0.12349,3.58957 0,7.17488c0.14957,4.34255 1.12721,9.67588 11.95815,8.22123c1.40544,-0.18876 1.81766,-0.45036 1.79372,-0.59791c-0.15143,-0.93317 -0.80811,-1.76129 -1.34529,-2.84006c-1.01488,-2.03806 -1.82872,-5.22221 -2.54111,-7.92227c-0.78613,-2.97958 -0.74738,-3.13902 -0.74738,-2.98954c0,0.14948 -0.01048,0.59927 0.14948,1.79372c0.14029,1.04761 0.53169,2.6718 0.89687,4.48431c0.38832,1.92733 0.44843,3.73692 0.44843,5.23169c0,0.14948 0,0 0,-0.44843c0,-0.44843 -0.37537,-2.84995 -0.89687,-6.42751c-0.65578,-4.49861 -1.67917,-8.69936 -2.39162,-11.21076c-0.25801,-0.90948 -0.46556,-1.94159 -0.59792,-3.43797c-0.17171,-1.94136 -0.25539,-3.5937 -0.44843,-4.78326c-0.12209,-0.75234 -0.24242,-1.35069 -0.29895,-1.64425c-0.15224,-0.79044 -0.55092,-1.52794 -1.19582,-2.39162c-0.69849,-0.93546 -1.27376,-1.57158 -2.39163,-2.54111c-1.12923,-0.97938 -2.21581,-1.56746 -2.54111,-1.64425c-0.14548,-0.03434 -0.47943,0.14256 -0.59792,0.74738c-0.2032,1.03725 -0.14948,4.03587 -0.14948,6.87594c0,3.28849 0.74448,6.36481 1.04634,8.52018c0.14513,1.03622 0.12663,1.33911 0.29895,0.74738c0.26433,-0.90768 0.80444,-3.57809 1.04634,-5.23169c0.39185,-2.67863 0.44843,-4.33483 0.44843,-5.23169c0,-0.14948 0,0 0,1.49477c0,1.49477 0.22411,2.68437 0.29897,4.03587c0.00827,0.14925 0,0 0,-0.14948l0.14948,-0.44843l0,-0.29895l0,-0.14948" id="svg_64" stroke-width="5" stroke="#FFEBFF" fill="none"/>
  <path d="m127.95216,45.24664c0,0.14948 -0.20123,0.4044 -0.44843,0.74739c-0.19543,0.27114 -0.70947,0.92095 -1.19582,1.64425c-0.41703,0.62021 -0.77248,1.18391 -1.04633,1.79372c-0.32976,0.73431 -0.68283,1.75607 -1.04634,2.69058c-0.3945,1.01418 -0.64976,1.93272 -0.89686,3.28849c-0.18952,1.03983 -0.59516,1.90015 -0.74738,2.69058c-0.14133,0.7339 -0.22396,1.93393 -0.29896,2.84006c-0.07397,0.89381 -0.07376,1.62609 -0.14948,2.09267c-0.07183,0.44264 0,1.19582 0,1.64425c0,0.29895 0,0.44843 0,0.74738c0,0.14948 -0.09227,0.16085 -0.14948,0.29895c-0.08089,0.1953 -0.37891,0.19593 -0.59791,0.44843c-0.30971,0.35709 -0.26862,0.63625 -0.44843,0.74738c-0.40208,0.2485 -1.19769,0.64735 -1.9432,1.04634c-0.672,0.35964 -1.51476,0.27672 -2.24215,0.44843c-0.3253,0.07679 -0.59791,0.29896 -0.74738,0.29896c-0.14948,0 -0.46035,-0.27623 -1.04634,-0.59791c-0.76405,-0.41942 -1.3795,-0.85645 -2.09267,-1.49477c-0.31503,-0.28197 -0.44843,-0.44843 -0.59791,-0.59791c-0.14948,-0.14948 -0.29895,-0.29896 -0.29895,-0.44843c0,-0.14948 0,-0.89686 0,-1.79372c0,-1.04634 0.0863,-2.09624 0,-3.13901c-0.075,-0.90614 -0.38408,-1.96308 -0.59791,-2.54111c-0.23193,-0.62696 -0.62378,-1.1738 -0.74738,-1.34529c-0.19543,-0.27115 -0.40247,-0.62571 -0.59791,-0.89686c-0.24721,-0.34298 -0.5407,-0.60928 -0.59791,-0.74738c-0.1618,-0.39061 -0.39124,-0.60929 -0.44843,-0.74738c-0.08089,-0.1953 -0.17535,-0.27694 -0.29895,-0.44843c-0.19543,-0.27115 -0.29896,-0.44843 -0.29896,-0.59791l-0.14948,-0.14948" id="svg_68" stroke="#000000" fill="none"/>
  <path d="m118.38564,61.83857c0,0.14948 0.41752,0.91674 1.19582,2.09267c1.00703,1.52153 1.84922,2.62962 2.84007,3.58744c0.68816,0.66522 1.04633,0.89686 1.04633,1.04633l0.14948,0" id="svg_70" stroke-width="0" stroke="#000000" fill="none"/>
  <path d="m121.82362,60.19432c0.14948,-0.14948 0.84863,-0.79836 1.79372,-1.64425c1.42635,-1.27665 2.75622,-2.16977 3.58745,-2.98954c0.98121,-0.96768 1.39574,-1.69058 1.64425,-2.09268c0.11113,-0.17982 0.22215,-0.27261 0.29895,-0.59791c0.03435,-0.14548 0,-0.29895 0,-0.44843c0,-0.14948 0,0 0,0.14948c0,0.29895 0.04645,1.20179 -0.14948,2.54111c-0.2419,1.6536 -0.26903,3.59726 -0.44844,5.23169c-0.15038,1.36988 -0.33205,2.70607 -0.74738,5.38116c-0.23386,1.50632 -0.49191,2.29729 -0.89687,2.54111c-0.77894,0.46899 -0.36598,1.46571 -0.59791,2.09267c-0.21383,0.57803 -0.37271,0.72923 -0.44843,1.19582c-0.04788,0.29509 0,0.44843 0,0.59791c0,0.14948 -0.09227,0.16085 -0.14948,0.29895c-0.0809,0.1953 -0.14948,0.29896 -0.14948,0.44843l-0.14948,0" id="svg_71" stroke="#000000" fill="none"/>
  <path d="m119.58146,69.01345c0,0.14948 -0.10143,0.46742 -0.29895,0.89687c-0.3642,0.79185 -1.10084,1.44746 -2.39163,2.98953c-1.09393,1.30688 -2.23801,2.69428 -3.43797,4.03587c-1.34067,1.49891 -2.4086,2.67867 -3.13902,3.73692c-0.61229,0.8871 -0.64835,1.39163 -0.89686,1.79372c-0.11114,0.17982 -0.14948,0.29895 -0.29896,0.29895l0,0.14948" id="svg_72" stroke="#000000" fill="none"/>
  <path d="m114.05082,87.69805c0,-0.14948 0,0.74739 0,2.24216c0,1.64424 0.34182,3.48357 0.89686,4.63378c0.37879,0.78497 0.53599,1.1339 0.74738,1.34529c0.1057,0.1057 0.14948,-0.14948 0.14948,-0.29896c0,-0.5979 -0.1552,-1.34483 -0.29896,-3.13901c-0.15566,-1.94271 -0.22396,-3.4287 -0.29895,-4.33483c-0.07397,-0.8938 -0.13811,-1.13861 0,-1.19582c0.1953,-0.08089 0.29895,0.29895 0.74738,0.74738c0.44843,0.44843 0.89686,1.04634 2.09267,2.84007c0.89686,1.34529 1.95495,2.53186 2.54111,3.28849c0.45771,0.59083 1.04633,1.04633 1.34529,1.34529c0.14948,0.14948 0.33036,0.13775 0.14948,-0.29896c-0.25581,-0.6176 -0.64987,-1.62802 -1.04634,-2.98953c-0.34463,-1.18346 -0.52207,-2.2458 -0.44843,-2.98954c0.0751,-0.75848 0.47427,-1.41251 0.89686,-2.54111c0.26727,-0.71379 0.47688,-1.1781 0.74738,-1.64424c0.33553,-0.57818 0.50394,-0.859 0.89687,-1.49477c0.35144,-0.56864 0.64169,-0.85308 0.74738,-0.74738c0.1057,0.1057 0,0.5979 0,1.04633c0,1.34529 -0.22419,3.28555 -0.29896,6.12855c-0.05109,1.94253 -0.19155,3.30393 0,4.48431c0.15144,0.93317 0.5979,1.49477 0.74738,1.64425c0.14948,0.14948 0.31665,0.00852 0.59791,-0.59791c0.47897,-1.03272 1.2699,-2.81316 1.9432,-4.78326c0.50468,-1.47673 0.94816,-2.52258 1.19582,-3.28849c0.18962,-0.58642 0.25107,-0.74353 0.29895,-0.44843c0.07571,0.46658 0.11945,1.05482 0.59792,2.69058c0.70346,2.40491 1.17764,3.8938 1.79372,5.38116c0.43564,1.05173 0.89687,1.9432 1.04634,2.24216l0.14948,0.44843l0.14948,0" id="svg_73" stroke="#000000" fill="none"/>
  <path d="m113.45291,95.32137c-0.59791,0 -1.34529,0 -2.24215,0c-0.74739,0 -1.49847,0.00909 -2.24216,-0.29895c-1.05173,-0.43564 -2.23418,-0.82194 -3.28849,-0.89687c-0.74551,-0.05298 -0.94064,-0.1057 -1.04633,0c-0.1057,0.1057 -0.06435,0.46832 0.14948,1.04634c0.23193,0.62696 0.8802,1.55149 2.69058,2.84006c1.52589,1.08607 3.13902,1.9432 4.18535,2.39163l0.74738,0.44843l0.14948,0" id="svg_74" stroke="#000000" fill="none"/>
  <path d="m96.09856,67.18814c0,0.17575 0.08446,0.88554 0,1.40598c-0.08903,0.54858 -0.28497,1.25843 -0.52724,2.28471c-0.18058,0.76495 -0.45158,1.42936 -0.70299,2.10897c-0.13634,0.36857 -0.30125,0.74019 -0.70299,1.23022c-0.31515,0.38441 -0.65122,0.76382 -1.05448,1.05448c-0.3188,0.22978 -0.63496,0.48657 -1.58173,0.87874c-0.66946,0.27731 -2.12158,0.47298 -2.9877,0.70299c-0.53714,0.14265 -0.86253,0.43871 -1.58172,0.52724c-0.17443,0.02148 -0.45937,0.05219 -0.87874,0.52724c-0.26007,0.29461 -0.43695,0.67201 -0.52724,1.05448c-0.12113,0.51314 -0.08745,1.39294 -0.17575,2.28471c-0.12122,1.22424 -0.0777,2.48566 0.52724,4.21793c0.31203,0.89351 0.41428,1.62637 0.87873,2.63621c0.42821,0.93102 0.78617,1.98483 1.40598,2.9877c0.46198,0.7475 0.89432,1.39575 1.58173,2.46046c0.89931,1.39291 1.3659,2.48147 1.93322,3.51495c0.49313,0.89832 0.68213,1.7619 0.87873,2.6362c0.15897,0.70697 0.79044,1.56869 0.87874,2.46046c0.1039,1.04935 0.17574,1.40598 0.17574,1.93321l0,0.17575" id="svg_80" stroke-width="5" stroke="#D3BEE7" fill="none"/>
 </g>
</svg>